<svg width="1969" height="457" viewBox="0 0 1969 457" fill="none" xmlns="http://www.w3.org/2000/svg">
<g clip-path="url(#clip0_233_2500)">
<path d="M1900.54 91.9903C1899.56 91.5003 1894.55 88.8103 1894.46 88.7503C1892.49 87.5603 1886.97 84.2403 1883.12 78.0203C1879.91 72.8703 1881.04 70.6303 1878.76 62.9603C1878.75 62.9303 1878.74 62.9003 1878.73 62.8703C1878.69 62.7903 1878.67 62.7103 1878.63 62.6303C1878.57 62.4603 1878.5 62.2803 1878.43 62.0903C1878.29 61.7303 1878.14 61.3503 1877.98 60.9503C1877.25 59.1203 1876.5 57.3803 1875.73 55.7303C1874.7 53.5303 1873.65 51.4903 1872.61 49.6003C1872.09 48.6503 1871.57 47.7503 1871.06 46.8803C1871.04 46.8503 1871.01 46.8103 1871 46.7703C1870.5 45.9503 1870.02 45.1603 1869.55 44.4103C1869.52 44.3703 1869.49 44.3303 1869.48 44.2903C1869 43.5503 1868.54 42.8503 1868.1 42.1903C1867.74 41.6703 1867.4 41.1603 1867.07 40.6803C1866.73 40.2003 1866.41 39.7503 1866.1 39.3103C1863.96 37.4503 1861.17 35.5903 1857.67 34.5103C1843.15 30.0203 1829.04 42.6703 1812.95 53.8303C1791.31 68.8403 1764.44 82.2603 1739.68 91.9903H1660.58C1659.84 91.1403 1659.36 90.3503 1659.2 89.6703C1658.22 89.1803 1657.59 88.8103 1657.5 88.7503C1655.53 87.5603 1650.01 84.2403 1646.16 78.0203C1642.95 72.8703 1644.08 70.6303 1641.8 62.9603C1641.79 62.9303 1641.78 62.9003 1641.77 62.8703C1641.73 62.7903 1641.71 62.7103 1641.67 62.6303C1641.61 62.4603 1641.54 62.2803 1641.47 62.0903C1641.33 61.7303 1641.18 61.3503 1641.02 60.9503C1640.29 59.1203 1639.54 57.3803 1638.77 55.7303C1637.74 53.5303 1636.69 51.4903 1635.65 49.6003C1635.13 48.6503 1634.61 47.7503 1634.1 46.8803C1634.08 46.8503 1634.05 46.8103 1634.04 46.7703C1633.54 45.9503 1633.06 45.1603 1632.59 44.4103C1632.56 44.3703 1632.53 44.3303 1632.52 44.2903C1632.04 43.5503 1631.58 42.8503 1631.14 42.1903C1630.78 41.6703 1630.44 41.1603 1630.11 40.6803C1629.77 40.2003 1629.45 39.7503 1629.14 39.3103C1627 37.4503 1624.21 35.5903 1620.71 34.5103C1618.44 33.8103 1616.18 33.5303 1613.92 33.5903C1601.7 33.8903 1589.51 44.3903 1575.91 53.8303C1554.26 68.8403 1527.4 82.2603 1502.64 91.9903H1423.61C1422.87 91.1403 1422.39 90.3503 1422.23 89.6703C1421.25 89.1803 1420.62 88.8103 1420.53 88.7503C1418.56 87.5603 1413.04 84.2403 1409.19 78.0203C1405.98 72.8703 1407.11 70.6303 1404.83 62.9603C1404.82 62.9303 1404.81 62.9003 1404.8 62.8703C1404.76 62.7903 1404.74 62.7103 1404.7 62.6303C1404.64 62.4603 1404.57 62.2803 1404.5 62.0903C1404.36 61.7303 1404.21 61.3503 1404.05 60.9503C1403.32 59.1203 1402.57 57.3803 1401.8 55.7303C1400.77 53.5303 1399.72 51.4903 1398.68 49.6003C1398.16 48.6503 1397.64 47.7503 1397.13 46.8803C1397.11 46.8503 1397.08 46.8103 1397.07 46.7703C1396.57 45.9503 1396.09 45.1603 1395.62 44.4103C1395.59 44.3703 1395.56 44.3303 1395.55 44.2903C1395.07 43.5503 1394.61 42.8503 1394.17 42.1903C1393.81 41.6703 1393.47 41.1603 1393.14 40.6803C1392.8 40.2003 1392.48 39.7503 1392.17 39.3103C1390.03 37.4503 1387.24 35.5903 1383.74 34.5103C1381.47 33.8103 1379.21 33.5303 1376.95 33.5903C1364.73 33.8903 1352.54 44.3903 1338.94 53.8303C1317.29 68.8403 1290.43 82.2603 1265.67 91.9903H1186.64C1185.9 91.1403 1185.42 90.3503 1185.26 89.6703C1184.28 89.1803 1183.65 88.8103 1183.56 88.7503C1181.59 87.5603 1176.07 84.2403 1172.22 78.0203C1169.01 72.8703 1170.14 70.6303 1167.86 62.9603C1167.85 62.9303 1167.84 62.9003 1167.83 62.8703C1167.79 62.7903 1167.77 62.7103 1167.73 62.6303C1167.67 62.4603 1167.6 62.2803 1167.53 62.0903C1167.39 61.7303 1167.24 61.3503 1167.08 60.9503C1166.35 59.1203 1165.6 57.3803 1164.83 55.7303C1163.8 53.5303 1162.75 51.4903 1161.71 49.6003C1161.19 48.6503 1160.67 47.7503 1160.16 46.8803C1160.14 46.8503 1160.11 46.8103 1160.1 46.7703C1159.6 45.9503 1159.12 45.1603 1158.65 44.4103C1158.62 44.3703 1158.59 44.3303 1158.58 44.2903C1158.1 43.5503 1157.64 42.8503 1157.2 42.1903C1156.84 41.6703 1156.5 41.1603 1156.17 40.6803C1155.83 40.2003 1155.51 39.7503 1155.2 39.3103C1153.06 37.4503 1150.27 35.5903 1146.77 34.5103C1144.5 33.8103 1142.24 33.5303 1139.98 33.5903C1127.76 33.8903 1115.57 44.3903 1101.97 53.8303C1080.32 68.8403 1053.46 82.2603 1028.7 91.9903H949.67C948.93 91.1403 948.45 90.3503 948.29 89.6703C947.31 89.1803 946.68 88.8103 946.59 88.7503C944.62 87.5603 939.1 84.2403 935.25 78.0203C932.04 72.8703 933.17 70.6303 930.89 62.9603C930.88 62.9303 930.87 62.9003 930.86 62.8703C930.82 62.7903 930.8 62.7103 930.76 62.6303C930.7 62.4603 930.63 62.2803 930.56 62.0903C930.42 61.7303 930.27 61.3503 930.11 60.9503C929.38 59.1203 928.63 57.3803 927.86 55.7303C926.83 53.5303 925.78 51.4903 924.74 49.6003C924.22 48.6503 923.7 47.7503 923.19 46.8803C923.17 46.8503 923.14 46.8103 923.13 46.7703C922.63 45.9503 922.15 45.1603 921.68 44.4103C921.65 44.3703 921.62 44.3303 921.61 44.2903C921.13 43.5503 920.67 42.8503 920.23 42.1903C919.87 41.6703 919.53 41.1603 919.2 40.6803C918.86 40.2003 918.54 39.7503 918.23 39.3103C916.09 37.4503 913.3 35.5903 909.8 34.5103C907.53 33.8103 905.27 33.5303 903.01 33.5903C890.79 33.8903 878.6 44.3903 865 53.8303C843.35 68.8403 816.49 82.2603 791.73 91.9903H712.7C711.96 91.1403 711.48 90.3503 711.32 89.6703C710.34 89.1803 709.71 88.8103 709.62 88.7503C707.65 87.5603 702.13 84.2403 698.28 78.0203C695.07 72.8703 696.2 70.6303 693.92 62.9603C693.91 62.9303 693.9 62.9003 693.89 62.8703C693.85 62.7903 693.83 62.7103 693.79 62.6303C693.73 62.4603 693.66 62.2803 693.59 62.0903C693.45 61.7303 693.3 61.3503 693.14 60.9503C692.41 59.1203 691.66 57.3803 690.89 55.7303C689.86 53.5303 688.81 51.4903 687.77 49.6003C687.25 48.6503 686.73 47.7503 686.22 46.8803C686.2 46.8503 686.17 46.8103 686.16 46.7703C685.66 45.9503 685.18 45.1603 684.71 44.4103C684.68 44.3703 684.65 44.3303 684.64 44.2903C684.16 43.5503 683.7 42.8503 683.26 42.1903C682.9 41.6703 682.56 41.1603 682.23 40.6803C681.89 40.2003 681.57 39.7503 681.26 39.3103C679.12 37.4503 676.33 35.5903 672.83 34.5103C670.56 33.8103 668.3 33.5303 666.04 33.5903C653.82 33.8903 641.63 44.3903 628.03 53.8303C606.38 68.8403 579.52 82.2603 554.76 91.9903H475.73C474.99 91.1403 474.51 90.3503 474.35 89.6703C473.37 89.1803 472.74 88.8103 472.65 88.7503C470.68 87.5603 465.16 84.2403 461.31 78.0203C458.1 72.8703 459.23 70.6303 456.95 62.9603C456.94 62.9303 456.93 62.9003 456.92 62.8703C456.88 62.7903 456.86 62.7103 456.82 62.6303C456.76 62.4603 456.69 62.2803 456.62 62.0903C456.48 61.7303 456.33 61.3503 456.17 60.9503C455.44 59.1203 454.69 57.3803 453.92 55.7303C452.89 53.5303 451.84 51.4903 450.8 49.6003C450.28 48.6503 449.76 47.7503 449.25 46.8803C449.23 46.8503 449.2 46.8103 449.19 46.7703C448.69 45.9503 448.21 45.1603 447.74 44.4103C447.71 44.3703 447.68 44.3303 447.67 44.2903C447.19 43.5503 446.73 42.8503 446.29 42.1903C445.93 41.6703 445.59 41.1603 445.26 40.6803C444.92 40.2003 444.6 39.7503 444.29 39.3103C442.15 37.4503 439.36 35.5903 435.86 34.5103C433.59 33.8103 431.33 33.5303 429.07 33.5903C416.85 33.8903 404.66 44.3903 391.06 53.8303C369.41 68.8403 342.55 82.2603 317.79 91.9903C310.3 94.9403 303.01 97.5403 296.11 99.7503C296.22 99.7203 296.32 99.7003 296.42 99.6703C296.36 99.6903 296.31 99.7103 296.25 99.7303C285.75 102.33 274.7 106.42 260.05 103.02C250.16 100.72 241.72 95.7403 238.45 91.9903C237.66 91.0803 237.17 90.2503 237.04 89.5403C236.2 89.1103 235.67 88.8003 235.58 88.7403C233.61 87.5503 228.1 84.2303 224.25 78.0103C221.07 72.8803 222.17 70.6303 219.92 63.0603C219.68 62.4103 219.42 61.7103 219.12 60.9603C215.23 51.2203 210.56 43.9303 207.23 39.3103C205.1 37.4503 202.3 35.5903 198.81 34.5103C184.29 30.0203 170.18 42.6703 154.1 53.8303C132.45 68.8403 105.59 82.2603 80.83 91.9903C73.34 94.9403 66.05 97.5403 59.15 99.7503C59.13 99.7503 59.11 99.7603 59.09 99.7703C58.16 100 57.22 100.24 56.27 100.49C56.19 100.51 56.1 100.53 56.02 100.56C55.14 100.79 54.25 101.03 53.35 101.26C52.37 101.52 51.38 101.78 50.37 102.03C49.87 102.15 49.36 102.27 48.86 102.39C48.35 102.52 47.84 102.64 47.33 102.74C46.81 102.86 46.29 102.97 45.77 103.07C45.29 103.17 44.81 103.26 44.33 103.35C44.22 103.37 44.11 103.39 44 103.4C43.56 103.49 43.12 103.56 42.68 103.63C42.61 103.64 42.53 103.65 42.46 103.66C41.97 103.74 41.47 103.81 40.97 103.87C40.43 103.94 39.89 104 39.34 104.06C39.31 104.06 39.28 104.07 39.24 104.07C38.71 104.12 38.18 104.16 37.64 104.2C37.07 104.24 36.5 104.27 35.93 104.29C31.92 104.43 27.64 104.1 23.01 103.03C13.1 100.73 4.67 95.7403 1.41 91.9903L0 88.999V456.99H1969V91.9903H1900.54Z" fill="#488D9F"/>
<path d="M487.96 32.5101V32.9401C486.92 33.2401 485.84 33.5101 484.73 33.7601C476.26 35.6401 465.72 35.9501 456.19 34.1501C451.69 33.3101 449.16 32.3201 446.57 31.2601C446.41 31.1901 446.25 31.1201 446.08 31.0601C443.65 30.0601 441.06 28.9901 436.62 27.8801C418.45 23.3601 402.75 26.5301 394.48 28.2101C379.51 31.2601 370.26 36.7101 359.73 44.0701C357.8 45.4401 355.81 46.8501 353.74 48.3401C344.58 54.9201 333.73 62.7101 317.45 71.4101C312.22 74.2101 307.13 76.9201 302.17 79.4501H302.15C302.06 79.5001 301.97 79.5401 301.89 79.5901C301.84 79.6101 301.8 79.6301 301.76 79.6501C293.39 83.9001 285.38 87.5701 277.66 90.1101C275.47 90.8301 273.31 91.4601 271.16 91.9901C264 93.7401 257.06 94.3301 250.27 93.2901H250.26C247.53 93.1601 245.47 92.7301 243.76 92.2301C243.49 92.1501 243.23 92.0701 242.97 91.9901C240.55 91.2201 238.41 90.2201 237.07 89.5401C236.23 89.1101 235.7 88.8001 235.61 88.7401C233.64 87.5501 228.13 84.2301 224.28 78.0101C221.1 72.8801 222.2 70.6301 219.95 63.0601C220.03 63.2701 220.11 63.4701 220.18 63.6601C220.3 63.9901 220.41 64.3101 220.52 64.6101C220.68 65.0701 220.82 65.5001 220.96 65.9101C221.07 66.2401 221.17 66.5401 221.26 66.8401C221.33 67.0501 221.39 67.2501 221.45 67.4401C221.49 67.5601 221.52 67.6801 221.56 67.7901C221.71 68.3001 221.85 68.7701 221.99 69.2101C222.07 69.4601 222.14 69.7001 222.21 69.9301C222.29 70.1901 222.37 70.4301 222.46 70.6701C222.57 70.9801 222.67 71.2701 222.78 71.5501C222.9 71.8301 223.01 72.1101 223.14 72.3801C224.04 74.3201 225.33 76.0901 226.94 77.6901C227.28 78.0301 227.64 78.3701 228 78.6901C228.42 79.0701 228.87 79.4401 229.33 79.7901C229.41 79.8501 229.49 79.9101 229.57 79.9701C229.58 79.9701 229.58 79.9801 229.58 79.9801C229.76 80.1201 229.94 80.2501 230.13 80.3801C230.16 80.4101 230.2 80.4301 230.23 80.4501C230.25 80.4701 230.26 80.4801 230.28 80.4901C230.31 80.5101 230.34 80.5301 230.37 80.5501C230.39 80.5701 230.41 80.5801 230.43 80.5901C230.52 80.6601 230.61 80.7201 230.7 80.7701C230.8 80.8501 230.91 80.9201 231.01 80.9901C231.03 81.0001 231.05 81.0201 231.07 81.0301H231.08C231.08 81.0301 231.16 81.0801 231.2 81.1001C231.23 81.1201 231.25 81.1301 231.28 81.1601C231.32 81.1901 231.36 81.2101 231.4 81.2301C231.42 81.2501 231.45 81.2701 231.48 81.2901C231.6 81.3701 231.72 81.4501 231.85 81.5201C232.11 81.6901 232.38 81.8501 232.66 82.0001C232.84 82.1101 233.02 82.2101 233.21 82.3201C233.39 82.4201 233.58 82.5101 233.76 82.6101C233.86 82.6701 233.96 82.7201 234.06 82.7701C234.32 82.9201 234.59 83.0501 234.87 83.1901H234.88C235.17 83.3401 235.46 83.4801 235.76 83.6101C236.25 83.8501 236.75 84.0601 237.26 84.2701H237.27C238.08 84.6201 238.92 84.9401 239.78 85.2301C240.1 85.3401 240.42 85.4501 240.75 85.5501C241.32 85.7401 241.89 85.9201 242.47 86.0701C242.77 86.1601 243.08 86.2401 243.39 86.3301C243.79 86.4501 244.2 86.5501 244.61 86.6501C244.8 86.7001 244.99 86.7401 245.18 86.7801C245.33 86.8101 245.47 86.8501 245.62 86.8801C245.66 86.8901 245.7 86.9001 245.74 86.9101C245.77 86.9201 245.81 86.9301 245.85 86.9401C245.86 86.9501 245.88 86.9501 245.89 86.9501H245.92C247.69 86.9401 249.68 86.9401 251.88 86.8901H251.89C252.63 86.8801 253.38 86.8601 254.16 86.8301C254.31 86.8301 254.46 86.8201 254.61 86.8101C255.21 86.7901 255.82 86.7701 256.45 86.7301C256.76 86.7201 257.07 86.7001 257.39 86.6801C259.93 86.5401 262.65 86.3001 265.52 85.9101C265.87 85.8701 266.23 85.8201 266.6 85.7601C268.05 85.5501 269.54 85.3001 271.06 85.0001C271.15 84.9901 271.23 84.9701 271.32 84.9501C272.36 84.7501 273.41 84.5201 274.47 84.2601C274.89 84.1701 275.3 84.0701 275.71 83.9601C276.5 83.7701 277.3 83.5601 278.1 83.3201C278.15 83.3101 278.2 83.3001 278.26 83.2801C279.77 82.8501 281.3 82.3701 282.85 81.8301C283.33 81.6701 283.81 81.5001 284.3 81.3201C285.1 81.0301 285.92 80.7101 286.74 80.3801C287.16 80.2101 287.58 80.0401 288.01 79.8601C291.06 78.5801 293.67 77.3001 296.17 75.9401C296.79 75.6001 297.41 75.2501 298.03 74.9001C298.65 74.5501 299.28 74.1901 299.9 73.8201C300.53 73.4501 301.15 73.0801 301.79 72.6901C302.43 72.3101 303.08 71.9201 303.75 71.5101H303.76C304.86 70.8401 305.93 70.1901 306.98 69.5501C306.98 69.5501 306.98 69.5401 306.99 69.5401C308.57 68.5701 310.1 67.6301 311.58 66.7001C313.07 65.7701 314.51 64.8601 315.91 63.9601H315.92C316.66 63.4901 317.4 63.0201 318.12 62.5401C319.58 61.6001 320.99 60.6701 322.35 59.7801C323.03 59.3201 323.7 58.8801 324.36 58.4401H324.37C325.03 57.9901 325.68 57.5501 326.32 57.1201C326.65 56.8901 326.97 56.6801 327.29 56.4701C328.24 55.8201 329.17 55.1901 330.08 54.5501C333.76 52.0101 337.14 49.6101 340.36 47.3001C341.43 46.5401 342.48 45.7801 343.52 45.0201H343.53C344.56 44.2701 345.59 43.5301 346.6 42.7801C348.13 41.6701 349.64 40.5801 351.14 39.5101C352.63 38.4301 354.12 37.3601 355.62 36.3001C356.62 35.5901 357.62 34.8901 358.63 34.1901C359.64 33.4901 360.66 32.7901 361.69 32.0901C361.69 32.0901 361.69 32.0901 361.7 32.0901C362.88 31.3001 364.07 30.5001 365.28 29.7001C366.5 28.9001 367.74 28.1001 369 27.3001C369 27.2901 369.01 27.2901 369.01 27.2901C370.78 26.1701 372.5 25.0701 374.19 24.0101C375.34 23.2801 376.46 22.5701 377.58 21.8801C378.27 21.4401 378.96 21.0101 379.65 20.5901C381.09 19.7001 382.51 18.8201 383.91 17.9801C384.38 17.6901 384.84 17.4201 385.31 17.1401C385.93 16.7701 386.54 16.4101 387.16 16.0501C387.98 15.5701 388.79 15.1001 389.6 14.6401C391.54 13.5301 393.47 12.4701 395.38 11.4801C396.02 11.1401 396.65 10.8201 397.29 10.5001C400.15 9.0601 403 7.7501 405.87 6.5801C408.03 5.7001 410.2 4.9001 412.41 4.1901C412.87 4.0401 413.33 3.9001 413.79 3.7601C415.64 3.1901 417.52 2.6901 419.43 2.2501C420.38 2.0301 421.34 1.8201 422.31 1.6401C422.8 1.5401 423.29 1.4601 423.78 1.3701C424.57 1.2301 425.36 1.1001 426.16 0.990103C426.76 0.900103 427.37 0.820103 427.98 0.750103C428.44 0.690103 428.9 0.640103 429.36 0.590103C430.75 0.450103 432.16 0.330103 433.59 0.250103C434.07 0.230103 434.67 0.190103 435.38 0.150103C435.61 0.140103 435.86 0.130103 436.12 0.120103C436.26 0.110103 436.42 0.100103 436.57 0.100103C437.06 0.070103 437.59 0.060103 438.14 0.050103C438.65 0.040103 439.18 0.030103 439.73 0.020103C441.2 0.00010302 442.84 0.010103 444.6 0.070103C444.71 0.070103 444.83 0.070103 444.94 0.080103C446.59 0.140103 448.34 0.250103 450.16 0.420103C450.69 0.470103 451.22 0.520103 451.75 0.580103C452.66 0.680103 453.58 0.800103 454.52 0.940103C455.14 1.0301 455.77 1.1301 456.4 1.2401C456.76 1.3001 457.13 1.3701 457.5 1.4401C458.4 1.6101 459.29 1.8001 460.19 2.0101C463.36 2.7401 466.52 3.7401 469.51 5.0701C470.34 5.4401 471.16 5.8401 471.96 6.2601C473.16 6.8901 474.33 7.5901 475.44 8.3601C476.19 8.8701 476.91 9.4101 477.6 9.9901C478.3 10.5601 478.97 11.1701 479.61 11.8101C481.09 13.2701 482.4 14.9101 483.51 16.7401C483.93 17.4301 484.33 18.1501 484.69 18.8901C485.06 19.6401 485.41 20.4201 485.72 21.2101C485.73 21.2101 485.73 21.2301 485.73 21.2401C485.98 21.8701 486.21 22.5201 486.42 23.1701C486.75 24.1901 487.03 25.2301 487.26 26.2801C487.4 26.9601 487.53 27.6401 487.63 28.3201C487.73 29.0201 487.81 29.7201 487.87 30.4201C487.91 31.0001 487.94 31.5801 487.94 32.1601C487.95 32.2801 487.95 32.4001 487.95 32.5201L487.96 32.5101Z" fill="white"/>
<path d="M66.71 71.5H66.7V71.52H66.71V71.5Z" fill="white"/>
<path fill-rule="evenodd" clip-rule="evenodd" d="M207.26 39.3101C205.13 37.4501 202.33 35.5901 198.84 34.5101C184.32 30.0201 170.21 42.6701 154.13 53.8301C132.48 68.8401 105.62 82.2601 80.8599 91.9901C73.3699 94.9401 66.0799 97.5401 59.1799 99.7501C59.1599 99.7501 59.1399 99.7601 59.1199 99.7701C58.1899 100 57.2499 100.24 56.2999 100.49C56.2199 100.51 56.1299 100.53 56.0499 100.56C55.1699 100.79 54.2799 101.03 53.3799 101.26C52.3999 101.52 51.4099 101.78 50.3999 102.03C49.8999 102.15 49.3899 102.27 48.8899 102.39C48.3799 102.51 47.8699 102.63 47.3599 102.74C46.8399 102.86 46.3199 102.97 45.7999 103.07C45.3199 103.17 44.8399 103.26 44.3599 103.35C44.2499 103.37 44.1399 103.39 44.0299 103.4C43.5899 103.49 43.1499 103.56 42.7099 103.63C42.6399 103.64 42.5599 103.65 42.4899 103.66C41.9999 103.74 41.4999 103.81 40.9999 103.87C40.4599 103.94 39.9199 104 39.3699 104.06C39.3399 104.06 39.3099 104.07 39.2699 104.07C38.7399 104.12 38.2099 104.16 37.6699 104.2C37.0999 104.24 36.5299 104.27 35.9599 104.29C31.9499 104.43 27.6699 104.1 23.0399 103.03C13.1299 100.73 4.69992 95.7401 1.43992 91.9901C0.409925 90.8001 -0.100075 89.7401 0.0199246 88.9301C0.0299246 88.8801 0.0399246 88.8301 0.0499246 88.7901C0.0699246 88.7101 0.0899246 88.6401 0.119925 88.5701C1.81992 89.4401 3.53992 90.2101 5.27992 90.8401C6.49992 91.2901 7.71992 91.6701 8.94992 91.9901C16.5399 94.0101 24.3199 93.7701 32.3999 91.9901C47.1399 88.7401 62.8799 80.3401 80.2699 71.0601C120.13 49.8001 127.33 33.9401 157.4 27.8401C165.66 26.1701 181.45 22.9801 199.69 27.5201C209.23 29.8901 210.31 32.0901 219.24 33.7801C230 35.8001 242.04 35.1501 250.91 32.5601C250.91 32.5601 250.917 32.5567 250.93 32.5501C250.94 37.3401 249.64 41.9101 246.48 45.1301C238.12 53.6201 221.53 47.8201 219.74 47.1801C213.72 44.9901 209.68 41.7201 207.29 39.3601L207.26 39.3101Z" fill="#70B3AB"/>
<path fill-rule="evenodd" clip-rule="evenodd" d="M250.93 32.5499C250.93 32.5499 250.92 32.5499 250.91 32.5599C242.04 35.1499 230 35.7999 219.24 33.7799C210.31 32.0899 209.23 29.8899 199.69 27.5199C181.45 22.9799 165.66 26.1699 157.4 27.8399C127.33 33.9399 120.13 49.7999 80.2701 71.0599C62.8801 80.3399 47.1401 88.7399 32.4001 91.9899C24.3201 93.7699 16.5401 94.0098 8.95012 91.9899C7.72012 91.6699 6.50012 91.2898 5.28012 90.8399C3.54012 90.2099 1.82012 89.4399 0.120117 88.5699C0.140117 88.5199 0.170117 88.4699 0.200117 88.4199C0.200117 88.4099 0.210117 88.3899 0.220117 88.3799C0.260117 88.3399 0.290117 88.2999 0.330117 88.2599C0.340117 88.2499 0.360117 88.2299 0.370117 88.2099C0.380117 88.1799 0.400117 88.1699 0.420117 88.1599C0.450117 88.1199 0.480117 88.0899 0.520117 88.0599C0.700117 87.8998 0.920117 87.7699 1.19012 87.6599C1.34012 87.5999 1.52012 87.5399 1.70012 87.4799C1.73012 87.4699 1.76012 87.4699 1.78012 87.4599C2.09012 87.3799 2.43012 87.3099 2.81012 87.2499C2.83012 87.2499 2.85012 87.2499 2.87012 87.2399C3.12012 87.2099 3.40012 87.1699 3.69012 87.1399C3.98012 87.1099 4.28012 87.0899 4.60012 87.0699C5.09012 87.0399 5.62012 87.0199 6.19012 86.9999C6.76012 86.9899 7.36012 86.9799 8.00012 86.9699C9.27012 86.9599 10.6801 86.9499 12.2001 86.9399C12.7201 86.9399 13.2401 86.9299 13.7701 86.9199C14.1601 86.9199 14.5601 86.9099 14.9601 86.8999C15.2401 86.8999 15.5301 86.8998 15.8101 86.8799C16.2501 86.8699 16.6901 86.8598 17.1301 86.8399C18.1701 86.8099 19.2401 86.7599 20.3501 86.6899C20.6701 86.6799 20.9901 86.6599 21.3201 86.6299C22.0901 86.5798 22.8801 86.5199 23.6801 86.4499C23.8801 86.4398 24.0901 86.4199 24.3001 86.3899C24.9801 86.3299 25.6601 86.2599 26.3601 86.1799C27.7601 86.0299 29.1901 85.8399 30.6601 85.5999C31.0301 85.5499 31.4001 85.4899 31.7701 85.4199C32.6001 85.2799 33.4301 85.1299 34.2801 84.9599C34.9101 84.8299 35.5501 84.6999 36.1901 84.5599C37.4001 84.2899 38.6201 83.9899 39.8601 83.6599C40.2601 83.5599 40.6601 83.4499 41.0601 83.3299C44.2701 82.4299 47.5801 81.2899 50.9501 79.8699H50.9601C51.7201 79.5499 52.4501 79.2299 53.1601 78.9099H53.1701C53.4401 78.7899 53.7001 78.6699 53.9601 78.5499C54.4801 78.3099 54.9901 78.0599 55.4901 77.8199C55.7401 77.6899 55.9801 77.5699 56.2301 77.4499C57.2201 76.9599 58.1701 76.4599 59.1101 75.9499C60.0501 75.4299 60.9801 74.9099 61.9201 74.3699C62.8501 73.8299 63.7801 73.2799 64.7401 72.6999C65.3801 72.3199 66.0301 71.9199 66.7001 71.5199H66.7101V71.4999H66.7301C98.8401 52.1799 111.68 40.1599 131.97 27.2899C133.91 26.0599 135.79 24.8599 137.64 23.6799H137.65C139.51 22.5199 141.32 21.3799 143.1 20.2699C144.29 19.5299 145.47 18.8099 146.64 18.1099C163.31 8.05986 177.65 1.33986 196.54 0.249858C202.69 -0.110142 229.1 -1.64014 242.57 11.8099C242.94 12.1699 243.3 12.5499 243.64 12.9399C244.68 14.0999 245.63 15.3699 246.47 16.7499C246.64 17.0199 246.8 17.2999 246.96 17.5799C247.12 17.8699 247.28 18.1699 247.44 18.4599C247.63 18.8299 247.81 19.1999 247.99 19.5899C248.51 20.7299 248.98 21.9499 249.39 23.1899C249.39 23.1899 249.393 23.1965 249.4 23.2099C249.71 24.1899 249.98 25.1899 250.21 26.1999C250.35 26.8799 250.48 27.5599 250.59 28.2399C250.74 29.2699 250.85 30.2999 250.9 31.3199C250.92 31.7299 250.93 32.1399 250.93 32.5499Z" fill="white"/>
<path d="M487.96 32.9399C487.9 37.5799 486.59 41.9799 483.52 45.1099C475.16 53.6099 458.55 47.8099 456.77 47.1699C450.76 44.9799 446.62 41.5399 444.24 39.1799C444.58 39.6499 444.94 40.1499 445.29 40.6799C444.95 40.1999 444.63 39.7499 444.32 39.3099C442.18 37.4499 439.39 35.5899 435.89 34.5099C421.37 30.0199 407.26 42.6699 391.17 53.8299C369.53 68.8399 342.66 82.2599 317.9 91.9899C315.23 93.0399 312.59 94.0499 309.99 94.9999C309.99 94.9999 309.96 95.0099 309.95 95.0199C305.27 96.7399 300.7 98.3099 296.29 99.7299C285.79 102.33 274.74 106.42 260.09 103.02C250.2 100.72 241.76 95.7399 238.49 91.9899C237.7 91.0799 237.21 90.2499 237.08 89.5399C238.42 90.2199 240.56 91.2199 242.98 91.9899C243.24 92.0699 243.5 92.1499 243.77 92.2299C245.48 92.7299 247.54 93.1599 250.27 93.2899H250.28C257.07 94.3299 264.01 93.7399 271.17 91.9899C273.32 91.4599 275.48 90.8299 277.67 90.1099C285.39 87.5699 293.4 83.8999 301.77 79.6499C301.81 79.6299 301.85 79.6099 301.9 79.5899C302 79.5499 302.09 79.5099 302.19 79.4699C302.2 79.4699 302.2 79.4599 302.21 79.4599H302.18C307.14 76.9199 312.23 74.2099 317.46 71.4099C333.74 62.7099 344.59 54.9199 353.75 48.3399C355.82 46.8499 357.81 45.4399 359.74 44.0699C370.27 36.7099 379.52 31.2599 394.49 28.2099C402.76 26.5299 418.46 23.3599 436.63 27.8799C441.07 28.9899 443.66 30.0599 446.09 31.0599C446.26 31.1199 446.42 31.1899 446.58 31.2599C449.17 32.3199 451.7 33.3099 456.2 34.1499C465.73 35.9499 476.27 35.6399 484.74 33.7599C485.85 33.5099 486.93 33.2399 487.97 32.9399H487.96Z" fill="#70B3AB"/>
<path d="M724.92 32.5101V32.9401C723.88 33.2401 722.8 33.5101 721.69 33.7601C713.22 35.6401 702.68 35.9501 693.15 34.1501C688.65 33.3101 686.12 32.3201 683.53 31.2601C683.37 31.1901 683.21 31.1201 683.04 31.0601C680.61 30.0601 678.02 28.9901 673.58 27.8801C655.41 23.3601 639.71 26.5301 631.44 28.2101C616.47 31.2601 607.22 36.7101 596.69 44.0701C594.76 45.4401 592.77 46.8501 590.7 48.3401C581.54 54.9201 570.69 62.7101 554.41 71.4101C549.18 74.2101 544.09 76.9201 539.13 79.4501H539.11C539.02 79.5001 538.93 79.5401 538.85 79.5901C538.8 79.6101 538.76 79.6301 538.72 79.6501C530.35 83.9001 522.34 87.5701 514.62 90.1101C512.43 90.8301 510.27 91.4601 508.12 91.9901C500.96 93.7401 494.02 94.3301 487.23 93.2901H487.22C484.49 93.1601 482.43 92.7301 480.72 92.2301C480.45 92.1501 480.19 92.0701 479.93 91.9901C477.51 91.2201 475.37 90.2201 474.03 89.5401C473.19 89.1101 472.66 88.8001 472.57 88.7401C470.6 87.5501 465.09 84.2301 461.24 78.0101C458.06 72.8801 459.16 70.6301 456.91 63.0601C456.99 63.2701 457.07 63.4701 457.14 63.6601C457.26 63.9901 457.37 64.3101 457.48 64.6101C457.64 65.0701 457.78 65.5001 457.92 65.9101C458.03 66.2401 458.13 66.5401 458.22 66.8401C458.29 67.0501 458.35 67.2501 458.41 67.4401C458.45 67.5601 458.48 67.6801 458.52 67.7901C458.67 68.3001 458.81 68.7701 458.95 69.2101C459.03 69.4601 459.1 69.7001 459.17 69.9301C459.25 70.1901 459.33 70.4301 459.42 70.6701C459.53 70.9801 459.63 71.2701 459.74 71.5501C459.86 71.8301 459.97 72.1101 460.1 72.3801C461 74.3201 462.29 76.0901 463.9 77.6901C464.24 78.0301 464.6 78.3701 464.96 78.6901C465.38 79.0701 465.83 79.4401 466.29 79.7901C466.37 79.8501 466.45 79.9101 466.53 79.9701C466.54 79.9701 466.54 79.9801 466.54 79.9801C466.72 80.1201 466.9 80.2501 467.09 80.3801C467.12 80.4101 467.16 80.4301 467.19 80.4501C467.21 80.4701 467.22 80.4801 467.24 80.4901C467.27 80.5101 467.3 80.5301 467.33 80.5501C467.35 80.5701 467.37 80.5801 467.39 80.5901C467.48 80.6601 467.57 80.7201 467.66 80.7701C467.76 80.8501 467.87 80.9201 467.97 80.9901C467.99 81.0001 468.01 81.0201 468.03 81.0301H468.04C468.04 81.0301 468.12 81.0801 468.16 81.1001C468.19 81.1201 468.21 81.1301 468.24 81.1601C468.28 81.1901 468.32 81.2101 468.36 81.2301C468.38 81.2501 468.41 81.2701 468.44 81.2901C468.56 81.3701 468.68 81.4501 468.81 81.5201C469.07 81.6901 469.34 81.8501 469.62 82.0001C469.8 82.1101 469.98 82.2101 470.17 82.3201C470.35 82.4201 470.54 82.5101 470.72 82.6101C470.82 82.6701 470.92 82.7201 471.02 82.7701C471.28 82.9201 471.55 83.0501 471.83 83.1901H471.84C472.13 83.3401 472.42 83.4801 472.72 83.6101C473.21 83.8501 473.71 84.0601 474.22 84.2701H474.23C475.04 84.6201 475.88 84.9401 476.74 85.2301C477.06 85.3401 477.38 85.4501 477.71 85.5501C478.28 85.7401 478.85 85.9201 479.43 86.0701C479.73 86.1601 480.04 86.2401 480.35 86.3301C480.75 86.4501 481.16 86.5501 481.57 86.6501C481.76 86.7001 481.95 86.7401 482.14 86.7801C482.29 86.8101 482.43 86.8501 482.58 86.8801C482.62 86.8901 482.66 86.9001 482.7 86.9101C482.73 86.9201 482.77 86.9301 482.81 86.9401C482.82 86.9501 482.84 86.9501 482.85 86.9501H482.88C484.65 86.9401 486.64 86.9401 488.84 86.8901H488.85C489.59 86.8801 490.34 86.8601 491.12 86.8301C491.27 86.8301 491.42 86.8201 491.57 86.8101C492.17 86.7901 492.78 86.7701 493.41 86.7301C493.72 86.7201 494.03 86.7001 494.35 86.6801C496.89 86.5401 499.61 86.3001 502.48 85.9101C502.83 85.8701 503.19 85.8201 503.56 85.7601C505.01 85.5501 506.5 85.3001 508.02 85.0001C508.11 84.9901 508.19 84.9701 508.28 84.9501C509.32 84.7501 510.37 84.5201 511.43 84.2601C511.85 84.1701 512.26 84.0701 512.67 83.9601C513.46 83.7701 514.26 83.5601 515.06 83.3201C515.11 83.3101 515.16 83.3001 515.22 83.2801C516.73 82.8501 518.26 82.3701 519.81 81.8301C520.29 81.6701 520.77 81.5001 521.26 81.3201C522.06 81.0301 522.88 80.7101 523.7 80.3801C524.12 80.2101 524.54 80.0401 524.97 79.8601C528.02 78.5801 530.63 77.3001 533.13 75.9401C533.75 75.6001 534.37 75.2501 534.99 74.9001C535.61 74.5501 536.24 74.1901 536.86 73.8201C537.49 73.4501 538.11 73.0801 538.75 72.6901C539.39 72.3101 540.04 71.9201 540.71 71.5101H540.72C541.82 70.8401 542.89 70.1901 543.94 69.5501C543.94 69.5501 543.94 69.5401 543.95 69.5401C545.53 68.5701 547.06 67.6301 548.54 66.7001C550.03 65.7701 551.47 64.8601 552.87 63.9601H552.88C553.62 63.4901 554.36 63.0201 555.08 62.5401C556.54 61.6001 557.95 60.6701 559.31 59.7801C559.99 59.3201 560.66 58.8801 561.32 58.4401H561.33C561.99 57.9901 562.64 57.5501 563.28 57.1201C563.61 56.8901 563.93 56.6801 564.25 56.4701C565.2 55.8201 566.13 55.1901 567.04 54.5501C570.72 52.0101 574.1 49.6101 577.32 47.3001C578.39 46.5401 579.44 45.7801 580.48 45.0201H580.49C581.52 44.2701 582.55 43.5301 583.56 42.7801C585.09 41.6701 586.6 40.5801 588.1 39.5101C589.59 38.4301 591.08 37.3601 592.58 36.3001C593.58 35.5901 594.58 34.8901 595.59 34.1901C596.6 33.4901 597.62 32.7901 598.65 32.0901C598.65 32.0901 598.65 32.0901 598.66 32.0901C599.84 31.3001 601.03 30.5001 602.24 29.7001C603.46 28.9001 604.7 28.1001 605.96 27.3001C605.96 27.2901 605.97 27.2901 605.97 27.2901C607.74 26.1701 609.46 25.0701 611.15 24.0101C612.3 23.2801 613.42 22.5701 614.54 21.8801C615.23 21.4401 615.92 21.0101 616.61 20.5901C618.05 19.7001 619.47 18.8201 620.87 17.9801C621.34 17.6901 621.8 17.4201 622.27 17.1401C622.89 16.7701 623.5 16.4101 624.12 16.0501C624.94 15.5701 625.75 15.1001 626.56 14.6401C628.5 13.5301 630.43 12.4701 632.34 11.4801C632.98 11.1401 633.61 10.8201 634.25 10.5001C637.11 9.0601 639.96 7.7501 642.83 6.5801C644.99 5.7001 647.16 4.9001 649.37 4.1901C649.83 4.0401 650.29 3.9001 650.75 3.7601C652.6 3.1901 654.48 2.6901 656.39 2.2501C657.34 2.0301 658.3 1.8201 659.27 1.6401C659.76 1.5401 660.25 1.4601 660.74 1.3701C661.53 1.2301 662.32 1.1001 663.12 0.990103C663.72 0.900103 664.33 0.820103 664.94 0.750103C665.4 0.690103 665.86 0.640103 666.32 0.590103C667.71 0.450103 669.12 0.330103 670.55 0.250103C671.03 0.230103 671.63 0.190103 672.34 0.150103C672.57 0.140103 672.82 0.130103 673.08 0.120103C673.22 0.110103 673.38 0.100103 673.53 0.100103C674.02 0.070103 674.55 0.060103 675.1 0.050103C675.61 0.040103 676.14 0.030103 676.69 0.020103C678.16 0.00010302 679.8 0.010103 681.56 0.070103C681.67 0.070103 681.79 0.070103 681.9 0.080103C683.55 0.140103 685.3 0.250103 687.12 0.420103C687.65 0.470103 688.18 0.520103 688.71 0.580103C689.62 0.680103 690.54 0.800103 691.48 0.940103C692.1 1.0301 692.73 1.1301 693.36 1.2401C693.72 1.3001 694.09 1.3701 694.46 1.4401C695.36 1.6101 696.25 1.8001 697.15 2.0101C700.32 2.7401 703.48 3.7401 706.47 5.0701C707.3 5.4401 708.12 5.8401 708.92 6.2601C710.12 6.8901 711.29 7.5901 712.4 8.3601C713.15 8.8701 713.87 9.4101 714.56 9.9901C715.26 10.5601 715.93 11.1701 716.57 11.8101C718.05 13.2701 719.36 14.9101 720.47 16.7401C720.89 17.4301 721.29 18.1501 721.65 18.8901C722.02 19.6401 722.37 20.4201 722.68 21.2101C722.69 21.2101 722.69 21.2301 722.69 21.2401C722.94 21.8701 723.17 22.5201 723.38 23.1701C723.71 24.1901 723.99 25.2301 724.22 26.2801C724.36 26.9601 724.49 27.6401 724.59 28.3201C724.69 29.0201 724.77 29.7201 724.83 30.4201C724.87 31.0001 724.9 31.5801 724.9 32.1601C724.91 32.2801 724.91 32.4001 724.91 32.5201L724.92 32.5101Z" fill="white"/>
<path d="M724.92 32.9399C724.86 37.5799 723.55 41.9799 720.48 45.1099C712.12 53.6099 695.51 47.8099 693.73 47.1699C687.72 44.9799 683.58 41.5399 681.2 39.1799C681.54 39.6499 681.9 40.1499 682.25 40.6799C681.91 40.1999 681.59 39.7499 681.28 39.3099C679.14 37.4499 676.35 35.5899 672.85 34.5099C658.33 30.0199 644.22 42.6699 628.13 53.8299C606.49 68.8399 579.62 82.2599 554.86 91.9899C552.19 93.0399 549.55 94.0499 546.95 94.9999C546.95 94.9999 546.92 95.0099 546.91 95.0199C542.23 96.7399 537.66 98.3099 533.25 99.7299C522.75 102.33 511.7 106.42 497.05 103.02C487.16 100.72 478.72 95.7399 475.45 91.9899C474.66 91.0799 474.17 90.2499 474.04 89.5399C475.38 90.2199 477.52 91.2199 479.94 91.9899C480.2 92.0699 480.46 92.1499 480.73 92.2299C482.44 92.7299 484.5 93.1599 487.23 93.2899H487.24C494.03 94.3299 500.97 93.7399 508.13 91.9899C510.28 91.4599 512.44 90.8299 514.63 90.1099C522.35 87.5699 530.36 83.8999 538.73 79.6499C538.77 79.6299 538.81 79.6099 538.86 79.5899C538.96 79.5499 539.05 79.5099 539.15 79.4699C539.16 79.4699 539.16 79.4599 539.17 79.4599H539.14C544.1 76.9199 549.19 74.2099 554.42 71.4099C570.7 62.7099 581.55 54.9199 590.71 48.3399C592.78 46.8499 594.77 45.4399 596.7 44.0699C607.23 36.7099 616.48 31.2599 631.45 28.2099C639.72 26.5299 655.42 23.3599 673.59 27.8799C678.03 28.9899 680.62 30.0599 683.05 31.0599C683.22 31.1199 683.38 31.1899 683.54 31.2599C686.13 32.3199 688.66 33.3099 693.16 34.1499C702.69 35.9499 713.23 35.6399 721.7 33.7599C722.81 33.5099 723.89 33.2399 724.93 32.9399H724.92Z" fill="#70B3AB"/>
<path d="M961.89 32.5101V32.9401C960.85 33.2401 959.77 33.5101 958.66 33.7601C950.19 35.6401 939.65 35.9501 930.12 34.1501C925.62 33.3101 923.09 32.3201 920.5 31.2601C920.34 31.1901 920.18 31.1201 920.01 31.0601C917.58 30.0601 914.99 28.9901 910.55 27.8801C892.38 23.3601 876.68 26.5301 868.41 28.2101C853.44 31.2601 844.19 36.7101 833.66 44.0701C831.73 45.4401 829.74 46.8501 827.67 48.3401C818.51 54.9201 807.66 62.7101 791.38 71.4101C786.15 74.2101 781.06 76.9201 776.1 79.4501H776.08C775.99 79.5001 775.9 79.5401 775.82 79.5901C775.77 79.6101 775.73 79.6301 775.69 79.6501C767.32 83.9001 759.31 87.5701 751.59 90.1101C749.4 90.8301 747.24 91.4601 745.09 91.9901C737.93 93.7401 730.99 94.3301 724.2 93.2901H724.19C721.46 93.1601 719.4 92.7301 717.69 92.2301C717.42 92.1501 717.16 92.0701 716.9 91.9901C714.48 91.2201 712.34 90.2201 711 89.5401C710.16 89.1101 709.63 88.8001 709.54 88.7401C707.57 87.5501 702.06 84.2301 698.21 78.0101C695.03 72.8801 696.13 70.6301 693.88 63.0601C693.96 63.2701 694.04 63.4701 694.11 63.6601C694.23 63.9901 694.34 64.3101 694.45 64.6101C694.61 65.0701 694.75 65.5001 694.89 65.9101C695 66.2401 695.1 66.5401 695.19 66.8401C695.26 67.0501 695.32 67.2501 695.38 67.4401C695.42 67.5601 695.45 67.6801 695.49 67.7901C695.64 68.3001 695.78 68.7701 695.92 69.2101C696 69.4601 696.07 69.7001 696.14 69.9301C696.22 70.1901 696.3 70.4301 696.39 70.6701C696.5 70.9801 696.6 71.2701 696.71 71.5501C696.83 71.8301 696.94 72.1101 697.07 72.3801C697.97 74.3201 699.26 76.0901 700.87 77.6901C701.21 78.0301 701.57 78.3701 701.93 78.6901C702.35 79.0701 702.8 79.4401 703.26 79.7901C703.34 79.8501 703.42 79.9101 703.5 79.9701C703.51 79.9701 703.51 79.9801 703.51 79.9801C703.69 80.1201 703.87 80.2501 704.06 80.3801C704.09 80.4101 704.13 80.4301 704.16 80.4501C704.18 80.4701 704.19 80.4801 704.21 80.4901C704.24 80.5101 704.27 80.5301 704.3 80.5501C704.32 80.5701 704.34 80.5801 704.36 80.5901C704.45 80.6601 704.54 80.7201 704.63 80.7701C704.73 80.8501 704.84 80.9201 704.94 80.9901C704.96 81.0001 704.98 81.0201 705 81.0301H705.01C705.01 81.0301 705.09 81.0801 705.13 81.1001C705.16 81.1201 705.18 81.1301 705.21 81.1601C705.25 81.1901 705.29 81.2101 705.33 81.2301C705.35 81.2501 705.38 81.2701 705.41 81.2901C705.53 81.3701 705.65 81.4501 705.78 81.5201C706.04 81.6901 706.31 81.8501 706.59 82.0001C706.77 82.1101 706.95 82.2101 707.14 82.3201C707.32 82.4201 707.51 82.5101 707.69 82.6101C707.79 82.6701 707.89 82.7201 707.99 82.7701C708.25 82.9201 708.52 83.0501 708.8 83.1901H708.81C709.1 83.3401 709.39 83.4801 709.69 83.6101C710.18 83.8501 710.68 84.0601 711.19 84.2701H711.2C712.01 84.6201 712.85 84.9401 713.71 85.2301C714.03 85.3401 714.35 85.4501 714.68 85.5501C715.25 85.7401 715.82 85.9201 716.4 86.0701C716.7 86.1601 717.01 86.2401 717.32 86.3301C717.72 86.4501 718.13 86.5501 718.54 86.6501C718.73 86.7001 718.92 86.7401 719.11 86.7801C719.26 86.8101 719.4 86.8501 719.55 86.8801C719.59 86.8901 719.63 86.9001 719.67 86.9101C719.7 86.9201 719.74 86.9301 719.78 86.9401C719.79 86.9501 719.81 86.9501 719.82 86.9501H719.85C721.62 86.9401 723.61 86.9401 725.81 86.8901H725.82C726.56 86.8801 727.31 86.8601 728.09 86.8301C728.24 86.8301 728.39 86.8201 728.54 86.8101C729.14 86.7901 729.75 86.7701 730.38 86.7301C730.69 86.7201 731 86.7001 731.32 86.6801C733.86 86.5401 736.58 86.3001 739.45 85.9101C739.8 85.8701 740.16 85.8201 740.53 85.7601C741.98 85.5501 743.47 85.3001 744.99 85.0001C745.08 84.9901 745.16 84.9701 745.25 84.9501C746.29 84.7501 747.34 84.5201 748.4 84.2601C748.82 84.1701 749.23 84.0701 749.64 83.9601C750.43 83.7701 751.23 83.5601 752.03 83.3201C752.08 83.3101 752.13 83.3001 752.19 83.2801C753.7 82.8501 755.23 82.3701 756.78 81.8301C757.26 81.6701 757.74 81.5001 758.23 81.3201C759.03 81.0301 759.85 80.7101 760.67 80.3801C761.09 80.2101 761.51 80.0401 761.94 79.8601C764.99 78.5801 767.6 77.3001 770.1 75.9401C770.72 75.6001 771.34 75.2501 771.96 74.9001C772.58 74.5501 773.21 74.1901 773.83 73.8201C774.46 73.4501 775.08 73.0801 775.72 72.6901C776.36 72.3101 777.01 71.9201 777.68 71.5101H777.69C778.79 70.8401 779.86 70.1901 780.91 69.5501C780.91 69.5501 780.91 69.5401 780.92 69.5401C782.5 68.5701 784.03 67.6301 785.51 66.7001C787 65.7701 788.44 64.8601 789.84 63.9601H789.85C790.59 63.4901 791.33 63.0201 792.05 62.5401C793.51 61.6001 794.92 60.6701 796.28 59.7801C796.96 59.3201 797.63 58.8801 798.29 58.4401H798.3C798.96 57.9901 799.61 57.5501 800.25 57.1201C800.58 56.8901 800.9 56.6801 801.22 56.4701C802.17 55.8201 803.1 55.1901 804.01 54.5501C807.69 52.0101 811.07 49.6101 814.29 47.3001C815.36 46.5401 816.41 45.7801 817.45 45.0201H817.46C818.49 44.2701 819.52 43.5301 820.53 42.7801C822.06 41.6701 823.57 40.5801 825.07 39.5101C826.56 38.4301 828.05 37.3601 829.55 36.3001C830.55 35.5901 831.55 34.8901 832.56 34.1901C833.57 33.4901 834.59 32.7901 835.62 32.0901C835.62 32.0901 835.62 32.0901 835.63 32.0901C836.81 31.3001 838 30.5001 839.21 29.7001C840.43 28.9001 841.67 28.1001 842.93 27.3001C842.93 27.2901 842.94 27.2901 842.94 27.2901C844.71 26.1701 846.43 25.0701 848.12 24.0101C849.27 23.2801 850.39 22.5701 851.51 21.8801C852.2 21.4401 852.89 21.0101 853.58 20.5901C855.02 19.7001 856.44 18.8201 857.84 17.9801C858.31 17.6901 858.77 17.4201 859.24 17.1401C859.86 16.7701 860.47 16.4101 861.09 16.0501C861.91 15.5701 862.72 15.1001 863.53 14.6401C865.47 13.5301 867.4 12.4701 869.31 11.4801C869.95 11.1401 870.58 10.8201 871.22 10.5001C874.08 9.0601 876.93 7.7501 879.8 6.5801C881.96 5.7001 884.13 4.9001 886.34 4.1901C886.8 4.0401 887.26 3.9001 887.72 3.7601C889.57 3.1901 891.45 2.6901 893.36 2.2501C894.31 2.0301 895.27 1.8201 896.24 1.6401C896.73 1.5401 897.22 1.4601 897.71 1.3701C898.5 1.2301 899.29 1.1001 900.09 0.990103C900.69 0.900103 901.3 0.820103 901.91 0.750103C902.37 0.690103 902.83 0.640103 903.29 0.590103C904.68 0.450103 906.09 0.330103 907.52 0.250103C908 0.230103 908.6 0.190103 909.31 0.150103C909.54 0.140103 909.79 0.130103 910.05 0.120103C910.19 0.110103 910.35 0.100103 910.5 0.100103C910.99 0.070103 911.52 0.060103 912.07 0.050103C912.58 0.040103 913.11 0.030103 913.66 0.020103C915.13 0.00010302 916.77 0.010103 918.53 0.070103C918.64 0.070103 918.76 0.070103 918.87 0.080103C920.52 0.140103 922.27 0.250103 924.09 0.420103C924.62 0.470103 925.15 0.520103 925.68 0.580103C926.59 0.680103 927.51 0.800103 928.45 0.940103C929.07 1.0301 929.7 1.1301 930.33 1.2401C930.69 1.3001 931.06 1.3701 931.43 1.4401C932.33 1.6101 933.22 1.8001 934.12 2.0101C937.29 2.7401 940.45 3.7401 943.44 5.0701C944.27 5.4401 945.09 5.8401 945.89 6.2601C947.09 6.8901 948.26 7.5901 949.37 8.3601C950.12 8.8701 950.84 9.4101 951.53 9.9901C952.23 10.5601 952.9 11.1701 953.54 11.8101C955.02 13.2701 956.33 14.9101 957.44 16.7401C957.86 17.4301 958.26 18.1501 958.62 18.8901C958.99 19.6401 959.34 20.4201 959.65 21.2101C959.66 21.2101 959.66 21.2301 959.66 21.2401C959.91 21.8701 960.14 22.5201 960.35 23.1701C960.68 24.1901 960.96 25.2301 961.19 26.2801C961.33 26.9601 961.46 27.6401 961.56 28.3201C961.66 29.0201 961.74 29.7201 961.8 30.4201C961.84 31.0001 961.87 31.5801 961.87 32.1601C961.88 32.2801 961.88 32.4001 961.88 32.5201L961.89 32.5101Z" fill="white"/>
<path d="M961.89 32.9399C961.83 37.5799 960.52 41.9799 957.45 45.1099C949.09 53.6099 932.48 47.8099 930.7 47.1699C924.69 44.9799 920.55 41.5399 918.17 39.1799C918.51 39.6499 918.87 40.1499 919.22 40.6799C918.88 40.1999 918.56 39.7499 918.25 39.3099C916.11 37.4499 913.32 35.5899 909.82 34.5099C895.3 30.0199 881.19 42.6699 865.1 53.8299C843.46 68.8399 816.59 82.2599 791.83 91.9899C789.16 93.0399 786.52 94.0499 783.92 94.9999C783.92 94.9999 783.89 95.0099 783.88 95.0199C779.2 96.7399 774.63 98.3099 770.22 99.7299C759.72 102.33 748.67 106.42 734.02 103.02C724.13 100.72 715.69 95.7399 712.42 91.9899C711.63 91.0799 711.14 90.2499 711.01 89.5399C712.35 90.2199 714.49 91.2199 716.91 91.9899C717.17 92.0699 717.43 92.1499 717.7 92.2299C719.41 92.7299 721.47 93.1599 724.2 93.2899H724.21C731 94.3299 737.94 93.7399 745.1 91.9899C747.25 91.4599 749.41 90.8299 751.6 90.1099C759.32 87.5699 767.33 83.8999 775.7 79.6499C775.74 79.6299 775.78 79.6099 775.83 79.5899C775.93 79.5499 776.02 79.5099 776.12 79.4699C776.13 79.4699 776.13 79.4599 776.14 79.4599H776.11C781.07 76.9199 786.16 74.2099 791.39 71.4099C807.67 62.7099 818.52 54.9199 827.68 48.3399C829.75 46.8499 831.74 45.4399 833.67 44.0699C844.2 36.7099 853.45 31.2599 868.42 28.2099C876.69 26.5299 892.39 23.3599 910.56 27.8799C915 28.9899 917.59 30.0599 920.02 31.0599C920.19 31.1199 920.35 31.1899 920.51 31.2599C923.1 32.3199 925.63 33.3099 930.13 34.1499C939.66 35.9499 950.2 35.6399 958.67 33.7599C959.78 33.5099 960.86 33.2399 961.9 32.9399H961.89Z" fill="#70B3AB"/>
<path d="M1198.85 32.5101V32.9401C1197.81 33.2401 1196.73 33.5101 1195.62 33.7601C1187.15 35.6401 1176.61 35.9501 1167.08 34.1501C1162.58 33.3101 1160.05 32.3201 1157.46 31.2601C1157.3 31.1901 1157.14 31.1201 1156.97 31.0601C1154.54 30.0601 1151.95 28.9901 1147.51 27.8801C1129.34 23.3601 1113.64 26.5301 1105.37 28.2101C1090.4 31.2601 1081.15 36.7101 1070.62 44.0701C1068.69 45.4401 1066.7 46.8501 1064.63 48.3401C1055.47 54.9201 1044.62 62.7101 1028.34 71.4101C1023.11 74.2101 1018.02 76.9201 1013.06 79.4501H1013.04C1012.95 79.5001 1012.86 79.5401 1012.78 79.5901C1012.73 79.6101 1012.69 79.6301 1012.65 79.6501C1004.28 83.9001 996.27 87.5701 988.55 90.1101C986.36 90.8301 984.2 91.4601 982.05 91.9901C974.89 93.7401 967.95 94.3301 961.16 93.2901H961.15C958.42 93.1601 956.36 92.7301 954.65 92.2301C954.38 92.1501 954.12 92.0701 953.86 91.9901C951.44 91.2201 949.3 90.2201 947.96 89.5401C947.12 89.1101 946.59 88.8001 946.5 88.7401C944.53 87.5501 939.02 84.2301 935.17 78.0101C931.99 72.8801 933.09 70.6301 930.84 63.0601C930.92 63.2701 931 63.4701 931.07 63.6601C931.19 63.9901 931.3 64.3101 931.41 64.6101C931.57 65.0701 931.71 65.5001 931.85 65.9101C931.96 66.2401 932.06 66.5401 932.15 66.8401C932.22 67.0501 932.28 67.2501 932.34 67.4401C932.38 67.5601 932.41 67.6801 932.45 67.7901C932.6 68.3001 932.74 68.7701 932.88 69.2101C932.96 69.4601 933.03 69.7001 933.1 69.9301C933.18 70.1901 933.26 70.4301 933.35 70.6701C933.46 70.9801 933.56 71.2701 933.67 71.5501C933.79 71.8301 933.9 72.1101 934.03 72.3801C934.93 74.3201 936.22 76.0901 937.83 77.6901C938.17 78.0301 938.53 78.3701 938.89 78.6901C939.31 79.0701 939.76 79.4401 940.22 79.7901C940.3 79.8501 940.38 79.9101 940.46 79.9701C940.47 79.9701 940.47 79.9801 940.47 79.9801C940.65 80.1201 940.83 80.2501 941.02 80.3801C941.05 80.4101 941.09 80.4301 941.12 80.4501C941.14 80.4701 941.15 80.4801 941.17 80.4901C941.2 80.5101 941.23 80.5301 941.26 80.5501C941.28 80.5701 941.3 80.5801 941.32 80.5901C941.41 80.6601 941.5 80.7201 941.59 80.7701C941.69 80.8501 941.8 80.9201 941.9 80.9901C941.92 81.0001 941.94 81.0201 941.96 81.0301H941.97C941.97 81.0301 942.05 81.0801 942.09 81.1001C942.12 81.1201 942.14 81.1301 942.17 81.1601C942.21 81.1901 942.25 81.2101 942.29 81.2301C942.31 81.2501 942.34 81.2701 942.37 81.2901C942.49 81.3701 942.61 81.4501 942.74 81.5201C943 81.6901 943.27 81.8501 943.55 82.0001C943.73 82.1101 943.91 82.2101 944.1 82.3201C944.28 82.4201 944.47 82.5101 944.65 82.6101C944.75 82.6701 944.85 82.7201 944.95 82.7701C945.21 82.9201 945.48 83.0501 945.76 83.1901H945.77C946.06 83.3401 946.35 83.4801 946.65 83.6101C947.14 83.8501 947.64 84.0601 948.15 84.2701H948.16C948.97 84.6201 949.81 84.9401 950.67 85.2301C950.99 85.3401 951.31 85.4501 951.64 85.5501C952.21 85.7401 952.78 85.9201 953.36 86.0701C953.66 86.1601 953.97 86.2401 954.28 86.3301C954.68 86.4501 955.09 86.5501 955.5 86.6501C955.69 86.7001 955.88 86.7401 956.07 86.7801C956.22 86.8101 956.36 86.8501 956.51 86.8801C956.55 86.8901 956.59 86.9001 956.63 86.9101C956.66 86.9201 956.7 86.9301 956.74 86.9401C956.75 86.9501 956.77 86.9501 956.78 86.9501H956.81C958.58 86.9401 960.57 86.9401 962.77 86.8901H962.78C963.52 86.8801 964.27 86.8601 965.05 86.8301C965.2 86.8301 965.35 86.8201 965.5 86.8101C966.1 86.7901 966.71 86.7701 967.34 86.7301C967.65 86.7201 967.96 86.7001 968.28 86.6801C970.82 86.5401 973.54 86.3001 976.41 85.9101C976.76 85.8701 977.12 85.8201 977.49 85.7601C978.94 85.5501 980.43 85.3001 981.95 85.0001C982.04 84.9901 982.12 84.9701 982.21 84.9501C983.25 84.7501 984.3 84.5201 985.36 84.2601C985.78 84.1701 986.19 84.0701 986.6 83.9601C987.39 83.7701 988.19 83.5601 988.99 83.3201C989.04 83.3101 989.09 83.3001 989.15 83.2801C990.66 82.8501 992.19 82.3701 993.74 81.8301C994.22 81.6701 994.7 81.5001 995.19 81.3201C995.99 81.0301 996.81 80.7101 997.63 80.3801C998.05 80.2101 998.47 80.0401 998.9 79.8601C1001.95 78.5801 1004.56 77.3001 1007.06 75.9401C1007.68 75.6001 1008.3 75.2501 1008.92 74.9001C1009.54 74.5501 1010.17 74.1901 1010.79 73.8201C1011.42 73.4501 1012.04 73.0801 1012.68 72.6901C1013.32 72.3101 1013.97 71.9201 1014.64 71.5101H1014.65C1015.75 70.8401 1016.82 70.1901 1017.87 69.5501C1017.87 69.5501 1017.87 69.5401 1017.88 69.5401C1019.46 68.5701 1020.99 67.6301 1022.47 66.7001C1023.96 65.7701 1025.4 64.8601 1026.8 63.9601H1026.81C1027.55 63.4901 1028.29 63.0201 1029.01 62.5401C1030.47 61.6001 1031.88 60.6701 1033.24 59.7801C1033.92 59.3201 1034.59 58.8801 1035.25 58.4401H1035.26C1035.92 57.9901 1036.57 57.5501 1037.21 57.1201C1037.54 56.8901 1037.86 56.6801 1038.18 56.4701C1039.13 55.8201 1040.06 55.1901 1040.97 54.5501C1044.65 52.0101 1048.03 49.6101 1051.25 47.3001C1052.32 46.5401 1053.37 45.7801 1054.41 45.0201H1054.42C1055.45 44.2701 1056.48 43.5301 1057.49 42.7801C1059.02 41.6701 1060.53 40.5801 1062.03 39.5101C1063.52 38.4301 1065.01 37.3601 1066.51 36.3001C1067.51 35.5901 1068.51 34.8901 1069.52 34.1901C1070.53 33.4901 1071.55 32.7901 1072.58 32.0901C1072.58 32.0901 1072.58 32.0901 1072.59 32.0901C1073.77 31.3001 1074.96 30.5001 1076.17 29.7001C1077.39 28.9001 1078.63 28.1001 1079.89 27.3001C1079.89 27.2901 1079.9 27.2901 1079.9 27.2901C1081.67 26.1701 1083.39 25.0701 1085.08 24.0101C1086.23 23.2801 1087.35 22.5701 1088.47 21.8801C1089.16 21.4401 1089.85 21.0101 1090.54 20.5901C1091.98 19.7001 1093.4 18.8201 1094.8 17.9801C1095.27 17.6901 1095.73 17.4201 1096.2 17.1401C1096.82 16.7701 1097.43 16.4101 1098.05 16.0501C1098.87 15.5701 1099.68 15.1001 1100.49 14.6401C1102.43 13.5301 1104.36 12.4701 1106.27 11.4801C1106.91 11.1401 1107.54 10.8201 1108.18 10.5001C1111.04 9.0601 1113.89 7.7501 1116.76 6.5801C1118.92 5.7001 1121.09 4.9001 1123.3 4.1901C1123.76 4.0401 1124.22 3.9001 1124.68 3.7601C1126.53 3.1901 1128.41 2.6901 1130.32 2.2501C1131.27 2.0301 1132.23 1.8201 1133.2 1.6401C1133.69 1.5401 1134.18 1.4601 1134.67 1.3701C1135.46 1.2301 1136.25 1.1001 1137.05 0.990103C1137.65 0.900103 1138.26 0.820103 1138.87 0.750103C1139.33 0.690103 1139.79 0.640103 1140.25 0.590103C1141.64 0.450103 1143.05 0.330103 1144.48 0.250103C1144.96 0.230103 1145.56 0.190103 1146.27 0.150103C1146.5 0.140103 1146.75 0.130103 1147.01 0.120103C1147.15 0.110103 1147.31 0.100103 1147.46 0.100103C1147.95 0.070103 1148.48 0.060103 1149.03 0.050103C1149.54 0.040103 1150.07 0.030103 1150.62 0.020103C1152.09 0.00010302 1153.73 0.010103 1155.49 0.070103C1155.6 0.070103 1155.72 0.070103 1155.83 0.080103C1157.48 0.140103 1159.23 0.250103 1161.05 0.420103C1161.58 0.470103 1162.11 0.520103 1162.64 0.580103C1163.55 0.680103 1164.47 0.800103 1165.41 0.940103C1166.03 1.0301 1166.66 1.1301 1167.29 1.2401C1167.65 1.3001 1168.02 1.3701 1168.39 1.4401C1169.29 1.6101 1170.18 1.8001 1171.08 2.0101C1174.25 2.7401 1177.41 3.7401 1180.4 5.0701C1181.23 5.4401 1182.05 5.8401 1182.85 6.2601C1184.05 6.8901 1185.22 7.5901 1186.33 8.3601C1187.08 8.8701 1187.8 9.4101 1188.49 9.9901C1189.19 10.5601 1189.86 11.1701 1190.5 11.8101C1191.98 13.2701 1193.29 14.9101 1194.4 16.7401C1194.82 17.4301 1195.22 18.1501 1195.58 18.8901C1195.95 19.6401 1196.3 20.4201 1196.61 21.2101C1196.62 21.2101 1196.62 21.2301 1196.62 21.2401C1196.87 21.8701 1197.1 22.5201 1197.31 23.1701C1197.64 24.1901 1197.92 25.2301 1198.15 26.2801C1198.29 26.9601 1198.42 27.6401 1198.52 28.3201C1198.62 29.0201 1198.7 29.7201 1198.76 30.4201C1198.8 31.0001 1198.83 31.5801 1198.83 32.1601C1198.84 32.2801 1198.84 32.4001 1198.84 32.5201L1198.85 32.5101Z" fill="white"/>
<path d="M1198.85 32.9399C1198.79 37.5799 1197.48 41.9799 1194.41 45.1099C1186.05 53.6099 1169.44 47.8099 1167.66 47.1699C1161.65 44.9799 1157.51 41.5399 1155.13 39.1799C1155.47 39.6499 1155.83 40.1499 1156.18 40.6799C1155.84 40.1999 1155.52 39.7499 1155.21 39.3099C1153.07 37.4499 1150.28 35.5899 1146.78 34.5099C1132.26 30.0199 1118.15 42.6699 1102.06 53.8299C1080.42 68.8399 1053.55 82.2599 1028.79 91.9899C1026.12 93.0399 1023.48 94.0499 1020.88 94.9999C1020.88 94.9999 1020.85 95.0099 1020.84 95.0199C1016.16 96.7399 1011.59 98.3099 1007.18 99.7299C996.68 102.33 985.63 106.42 970.98 103.02C961.09 100.72 952.65 95.7399 949.38 91.9899C948.59 91.0799 948.1 90.2499 947.97 89.5399C949.31 90.2199 951.45 91.2199 953.87 91.9899C954.13 92.0699 954.39 92.1499 954.66 92.2299C956.37 92.7299 958.43 93.1599 961.16 93.2899H961.17C967.96 94.3299 974.9 93.7399 982.06 91.9899C984.21 91.4599 986.37 90.8299 988.56 90.1099C996.28 87.5699 1004.29 83.8999 1012.66 79.6499C1012.7 79.6299 1012.74 79.6099 1012.79 79.5899C1012.89 79.5499 1012.98 79.5099 1013.08 79.4699C1013.09 79.4699 1013.09 79.4599 1013.1 79.4599H1013.07C1018.03 76.9199 1023.12 74.2099 1028.35 71.4099C1044.63 62.7099 1055.48 54.9199 1064.64 48.3399C1066.71 46.8499 1068.7 45.4399 1070.63 44.0699C1081.16 36.7099 1090.41 31.2599 1105.38 28.2099C1113.65 26.5299 1129.35 23.3599 1147.52 27.8799C1151.96 28.9899 1154.55 30.0599 1156.98 31.0599C1157.15 31.1199 1157.31 31.1899 1157.47 31.2599C1160.06 32.3199 1162.59 33.3099 1167.09 34.1499C1176.62 35.9499 1187.16 35.6399 1195.63 33.7599C1196.74 33.5099 1197.82 33.2399 1198.86 32.9399H1198.85Z" fill="#70B3AB"/>
<path d="M1435.82 32.5101V32.9401C1434.78 33.2401 1433.7 33.5101 1432.59 33.7601C1424.12 35.6401 1413.58 35.9501 1404.05 34.1501C1399.55 33.3101 1397.02 32.3201 1394.43 31.2601C1394.27 31.1901 1394.11 31.1201 1393.94 31.0601C1391.51 30.0601 1388.92 28.9901 1384.48 27.8801C1366.31 23.3601 1350.61 26.5301 1342.34 28.2101C1327.37 31.2601 1318.12 36.7101 1307.59 44.0701C1305.66 45.4401 1303.67 46.8501 1301.6 48.3401C1292.44 54.9201 1281.59 62.7101 1265.31 71.4101C1260.08 74.2101 1254.99 76.9201 1250.03 79.4501H1250.01C1249.92 79.5001 1249.83 79.5401 1249.75 79.5901C1249.7 79.6101 1249.66 79.6301 1249.62 79.6501C1241.25 83.9001 1233.24 87.5701 1225.52 90.1101C1223.33 90.8301 1221.17 91.4601 1219.02 91.9901C1211.86 93.7401 1204.92 94.3301 1198.13 93.2901H1198.12C1195.39 93.1601 1193.33 92.7301 1191.62 92.2301C1191.35 92.1501 1191.09 92.0701 1190.83 91.9901C1188.41 91.2201 1186.27 90.2201 1184.93 89.5401C1184.09 89.1101 1183.56 88.8001 1183.47 88.7401C1181.5 87.5501 1175.99 84.2301 1172.14 78.0101C1168.96 72.8801 1170.06 70.6301 1167.81 63.0601C1167.89 63.2701 1167.97 63.4701 1168.04 63.6601C1168.16 63.9901 1168.27 64.3101 1168.38 64.6101C1168.54 65.0701 1168.68 65.5001 1168.82 65.9101C1168.93 66.2401 1169.03 66.5401 1169.12 66.8401C1169.19 67.0501 1169.25 67.2501 1169.31 67.4401C1169.35 67.5601 1169.38 67.6801 1169.42 67.7901C1169.57 68.3001 1169.71 68.7701 1169.85 69.2101C1169.93 69.4601 1170 69.7001 1170.07 69.9301C1170.15 70.1901 1170.23 70.4301 1170.32 70.6701C1170.43 70.9801 1170.53 71.2701 1170.64 71.5501C1170.76 71.8301 1170.87 72.1101 1171 72.3801C1171.9 74.3201 1173.19 76.0901 1174.8 77.6901C1175.14 78.0301 1175.5 78.3701 1175.86 78.6901C1176.28 79.0701 1176.73 79.4401 1177.19 79.7901C1177.27 79.8501 1177.35 79.9101 1177.43 79.9701C1177.44 79.9701 1177.44 79.9801 1177.44 79.9801C1177.62 80.1201 1177.8 80.2501 1177.99 80.3801C1178.02 80.4101 1178.06 80.4301 1178.09 80.4501C1178.11 80.4701 1178.12 80.4801 1178.14 80.4901C1178.17 80.5101 1178.2 80.5301 1178.23 80.5501C1178.25 80.5701 1178.27 80.5801 1178.29 80.5901C1178.38 80.6601 1178.47 80.7201 1178.56 80.7701C1178.66 80.8501 1178.77 80.9201 1178.87 80.9901C1178.89 81.0001 1178.91 81.0201 1178.93 81.0301H1178.94C1178.94 81.0301 1179.02 81.0801 1179.06 81.1001C1179.09 81.1201 1179.11 81.1301 1179.14 81.1601C1179.18 81.1901 1179.22 81.2101 1179.26 81.2301C1179.28 81.2501 1179.31 81.2701 1179.34 81.2901C1179.46 81.3701 1179.58 81.4501 1179.71 81.5201C1179.97 81.6901 1180.24 81.8501 1180.52 82.0001C1180.7 82.1101 1180.88 82.2101 1181.07 82.3201C1181.25 82.4201 1181.44 82.5101 1181.62 82.6101C1181.72 82.6701 1181.82 82.7201 1181.92 82.7701C1182.18 82.9201 1182.45 83.0501 1182.73 83.1901H1182.74C1183.03 83.3401 1183.32 83.4801 1183.62 83.6101C1184.11 83.8501 1184.61 84.0601 1185.12 84.2701H1185.13C1185.94 84.6201 1186.78 84.9401 1187.64 85.2301C1187.96 85.3401 1188.28 85.4501 1188.61 85.5501C1189.18 85.7401 1189.75 85.9201 1190.33 86.0701C1190.63 86.1601 1190.94 86.2401 1191.25 86.3301C1191.65 86.4501 1192.06 86.5501 1192.47 86.6501C1192.66 86.7001 1192.85 86.7401 1193.04 86.7801C1193.19 86.8101 1193.33 86.8501 1193.48 86.8801C1193.52 86.8901 1193.56 86.9001 1193.6 86.9101C1193.63 86.9201 1193.67 86.9301 1193.71 86.9401C1193.72 86.9501 1193.74 86.9501 1193.75 86.9501H1193.78C1195.55 86.9401 1197.54 86.9401 1199.74 86.8901H1199.75C1200.49 86.8801 1201.24 86.8601 1202.02 86.8301C1202.17 86.8301 1202.32 86.8201 1202.47 86.8101C1203.07 86.7901 1203.68 86.7701 1204.31 86.7301C1204.62 86.7201 1204.93 86.7001 1205.25 86.6801C1207.79 86.5401 1210.51 86.3001 1213.38 85.9101C1213.73 85.8701 1214.09 85.8201 1214.46 85.7601C1215.91 85.5501 1217.4 85.3001 1218.92 85.0001C1219.01 84.9901 1219.09 84.9701 1219.18 84.9501C1220.22 84.7501 1221.27 84.5201 1222.33 84.2601C1222.75 84.1701 1223.16 84.0701 1223.57 83.9601C1224.36 83.7701 1225.16 83.5601 1225.96 83.3201C1226.01 83.3101 1226.06 83.3001 1226.12 83.2801C1227.63 82.8501 1229.16 82.3701 1230.71 81.8301C1231.19 81.6701 1231.67 81.5001 1232.16 81.3201C1232.96 81.0301 1233.78 80.7101 1234.6 80.3801C1235.02 80.2101 1235.44 80.0401 1235.87 79.8601C1238.92 78.5801 1241.53 77.3001 1244.03 75.9401C1244.65 75.6001 1245.27 75.2501 1245.89 74.9001C1246.51 74.5501 1247.14 74.1901 1247.76 73.8201C1248.39 73.4501 1249.01 73.0801 1249.65 72.6901C1250.29 72.3101 1250.94 71.9201 1251.61 71.5101H1251.62C1252.72 70.8401 1253.79 70.1901 1254.84 69.5501C1254.84 69.5501 1254.84 69.5401 1254.85 69.5401C1256.43 68.5701 1257.96 67.6301 1259.44 66.7001C1260.93 65.7701 1262.37 64.8601 1263.77 63.9601H1263.78C1264.52 63.4901 1265.26 63.0201 1265.98 62.5401C1267.44 61.6001 1268.85 60.6701 1270.21 59.7801C1270.89 59.3201 1271.56 58.8801 1272.22 58.4401H1272.23C1272.89 57.9901 1273.54 57.5501 1274.18 57.1201C1274.51 56.8901 1274.83 56.6801 1275.15 56.4701C1276.1 55.8201 1277.03 55.1901 1277.94 54.5501C1281.62 52.0101 1285 49.6101 1288.22 47.3001C1289.29 46.5401 1290.34 45.7801 1291.38 45.0201H1291.39C1292.42 44.2701 1293.45 43.5301 1294.46 42.7801C1295.99 41.6701 1297.5 40.5801 1299 39.5101C1300.49 38.4301 1301.98 37.3601 1303.48 36.3001C1304.48 35.5901 1305.48 34.8901 1306.49 34.1901C1307.5 33.4901 1308.52 32.7901 1309.55 32.0901C1309.55 32.0901 1309.55 32.0901 1309.56 32.0901C1310.74 31.3001 1311.93 30.5001 1313.14 29.7001C1314.36 28.9001 1315.6 28.1001 1316.86 27.3001C1316.86 27.2901 1316.87 27.2901 1316.87 27.2901C1318.64 26.1701 1320.36 25.0701 1322.05 24.0101C1323.2 23.2801 1324.32 22.5701 1325.44 21.8801C1326.13 21.4401 1326.82 21.0101 1327.51 20.5901C1328.95 19.7001 1330.37 18.8201 1331.77 17.9801C1332.24 17.6901 1332.7 17.4201 1333.17 17.1401C1333.79 16.7701 1334.4 16.4101 1335.02 16.0501C1335.84 15.5701 1336.65 15.1001 1337.46 14.6401C1339.4 13.5301 1341.33 12.4701 1343.24 11.4801C1343.88 11.1401 1344.51 10.8201 1345.15 10.5001C1348.01 9.0601 1350.86 7.7501 1353.73 6.5801C1355.89 5.7001 1358.06 4.9001 1360.27 4.1901C1360.73 4.0401 1361.19 3.9001 1361.65 3.7601C1363.5 3.1901 1365.38 2.6901 1367.29 2.2501C1368.24 2.0301 1369.2 1.8201 1370.17 1.6401C1370.66 1.5401 1371.15 1.4601 1371.64 1.3701C1372.43 1.2301 1373.22 1.1001 1374.02 0.990103C1374.62 0.900103 1375.23 0.820103 1375.84 0.750103C1376.3 0.690103 1376.76 0.640103 1377.22 0.590103C1378.61 0.450103 1380.02 0.330103 1381.45 0.250103C1381.93 0.230103 1382.53 0.190103 1383.24 0.150103C1383.47 0.140103 1383.72 0.130103 1383.98 0.120103C1384.12 0.110103 1384.28 0.100103 1384.43 0.100103C1384.92 0.070103 1385.45 0.060103 1386 0.050103C1386.51 0.040103 1387.04 0.030103 1387.59 0.020103C1389.06 0.00010302 1390.7 0.010103 1392.46 0.070103C1392.57 0.070103 1392.69 0.070103 1392.8 0.080103C1394.45 0.140103 1396.2 0.250103 1398.02 0.420103C1398.55 0.470103 1399.08 0.520103 1399.61 0.580103C1400.52 0.680103 1401.44 0.800103 1402.38 0.940103C1403 1.0301 1403.63 1.1301 1404.26 1.2401C1404.62 1.3001 1404.99 1.3701 1405.36 1.4401C1406.26 1.6101 1407.15 1.8001 1408.05 2.0101C1411.22 2.7401 1414.38 3.7401 1417.37 5.0701C1418.2 5.4401 1419.02 5.8401 1419.82 6.2601C1421.02 6.8901 1422.19 7.5901 1423.3 8.3601C1424.05 8.8701 1424.77 9.4101 1425.46 9.9901C1426.16 10.5601 1426.83 11.1701 1427.47 11.8101C1428.95 13.2701 1430.26 14.9101 1431.37 16.7401C1431.79 17.4301 1432.19 18.1501 1432.55 18.8901C1432.92 19.6401 1433.27 20.4201 1433.58 21.2101C1433.59 21.2101 1433.59 21.2301 1433.59 21.2401C1433.84 21.8701 1434.07 22.5201 1434.28 23.1701C1434.61 24.1901 1434.89 25.2301 1435.12 26.2801C1435.26 26.9601 1435.39 27.6401 1435.49 28.3201C1435.59 29.0201 1435.67 29.7201 1435.73 30.4201C1435.77 31.0001 1435.8 31.5801 1435.8 32.1601C1435.81 32.2801 1435.81 32.4001 1435.81 32.5201L1435.82 32.5101Z" fill="white"/>
<path d="M1435.82 32.9399C1435.76 37.5799 1434.45 41.9799 1431.38 45.1099C1423.02 53.6099 1406.41 47.8099 1404.63 47.1699C1398.62 44.9799 1394.48 41.5399 1392.1 39.1799C1392.44 39.6499 1392.8 40.1499 1393.15 40.6799C1392.81 40.1999 1392.49 39.7499 1392.18 39.3099C1390.04 37.4499 1387.25 35.5899 1383.75 34.5099C1369.23 30.0199 1355.12 42.6699 1339.03 53.8299C1317.39 68.8399 1290.52 82.2599 1265.76 91.9899C1263.09 93.0399 1260.45 94.0499 1257.85 94.9999C1257.85 94.9999 1257.82 95.0099 1257.81 95.0199C1253.13 96.7399 1248.56 98.3099 1244.15 99.7299C1233.65 102.33 1222.6 106.42 1207.95 103.02C1198.06 100.72 1189.62 95.7399 1186.35 91.9899C1185.56 91.0799 1185.07 90.2499 1184.94 89.5399C1186.28 90.2199 1188.42 91.2199 1190.84 91.9899C1191.1 92.0699 1191.36 92.1499 1191.63 92.2299C1193.34 92.7299 1195.4 93.1599 1198.13 93.2899H1198.14C1204.93 94.3299 1211.87 93.7399 1219.03 91.9899C1221.18 91.4599 1223.34 90.8299 1225.53 90.1099C1233.25 87.5699 1241.26 83.8999 1249.63 79.6499C1249.67 79.6299 1249.71 79.6099 1249.76 79.5899C1249.86 79.5499 1249.95 79.5099 1250.05 79.4699C1250.06 79.4699 1250.06 79.4599 1250.07 79.4599H1250.04C1255 76.9199 1260.09 74.2099 1265.32 71.4099C1281.6 62.7099 1292.45 54.9199 1301.61 48.3399C1303.68 46.8499 1305.67 45.4399 1307.6 44.0699C1318.13 36.7099 1327.38 31.2599 1342.35 28.2099C1350.62 26.5299 1366.32 23.3599 1384.49 27.8799C1388.93 28.9899 1391.52 30.0599 1393.95 31.0599C1394.12 31.1199 1394.28 31.1899 1394.44 31.2599C1397.03 32.3199 1399.56 33.3099 1404.06 34.1499C1413.59 35.9499 1424.13 35.6399 1432.6 33.7599C1433.71 33.5099 1434.79 33.2399 1435.83 32.9399H1435.82Z" fill="#70B3AB"/>
<path d="M1672.78 32.5101V32.9401C1671.74 33.2401 1670.66 33.5101 1669.55 33.7601C1661.08 35.6401 1650.54 35.9501 1641.01 34.1501C1636.51 33.3101 1633.98 32.3201 1631.39 31.2601C1631.23 31.1901 1631.07 31.1201 1630.9 31.0601C1628.47 30.0601 1625.88 28.9901 1621.44 27.8801C1603.27 23.3601 1587.57 26.5301 1579.3 28.2101C1564.33 31.2601 1555.08 36.7101 1544.55 44.0701C1542.62 45.4401 1540.63 46.8501 1538.56 48.3401C1529.4 54.9201 1518.55 62.7101 1502.27 71.4101C1497.04 74.2101 1491.95 76.9201 1486.99 79.4501H1486.97C1486.88 79.5001 1486.79 79.5401 1486.71 79.5901C1486.66 79.6101 1486.62 79.6301 1486.58 79.6501C1478.21 83.9001 1470.2 87.5701 1462.48 90.1101C1460.29 90.8301 1458.13 91.4601 1455.98 91.9901C1448.82 93.7401 1441.88 94.3301 1435.09 93.2901H1435.08C1432.35 93.1601 1430.29 92.7301 1428.58 92.2301C1428.31 92.1501 1428.05 92.0701 1427.79 91.9901C1425.37 91.2201 1423.23 90.2201 1421.89 89.5401C1421.05 89.1101 1420.52 88.8001 1420.43 88.7401C1418.46 87.5501 1412.95 84.2301 1409.1 78.0101C1405.92 72.8801 1407.02 70.6301 1404.77 63.0601C1404.85 63.2701 1404.93 63.4701 1405 63.6601C1405.12 63.9901 1405.23 64.3101 1405.34 64.6101C1405.5 65.0701 1405.64 65.5001 1405.78 65.9101C1405.89 66.2401 1405.99 66.5401 1406.08 66.8401C1406.15 67.0501 1406.21 67.2501 1406.27 67.4401C1406.31 67.5601 1406.34 67.6801 1406.38 67.7901C1406.53 68.3001 1406.67 68.7701 1406.81 69.2101C1406.89 69.4601 1406.96 69.7001 1407.03 69.9301C1407.11 70.1901 1407.19 70.4301 1407.28 70.6701C1407.39 70.9801 1407.49 71.2701 1407.6 71.5501C1407.72 71.8301 1407.83 72.1101 1407.96 72.3801C1408.86 74.3201 1410.15 76.0901 1411.76 77.6901C1412.1 78.0301 1412.46 78.3701 1412.82 78.6901C1413.24 79.0701 1413.69 79.4401 1414.15 79.7901C1414.23 79.8501 1414.31 79.9101 1414.39 79.9701C1414.4 79.9701 1414.4 79.9801 1414.4 79.9801C1414.58 80.1201 1414.76 80.2501 1414.95 80.3801C1414.98 80.4101 1415.02 80.4301 1415.05 80.4501C1415.07 80.4701 1415.08 80.4801 1415.1 80.4901C1415.13 80.5101 1415.16 80.5301 1415.19 80.5501C1415.21 80.5701 1415.23 80.5801 1415.25 80.5901C1415.34 80.6601 1415.43 80.7201 1415.52 80.7701C1415.62 80.8501 1415.73 80.9201 1415.83 80.9901C1415.85 81.0001 1415.87 81.0201 1415.89 81.0301H1415.9C1415.9 81.0301 1415.98 81.0801 1416.02 81.1001C1416.05 81.1201 1416.07 81.1301 1416.1 81.1601C1416.14 81.1901 1416.18 81.2101 1416.22 81.2301C1416.24 81.2501 1416.27 81.2701 1416.3 81.2901C1416.42 81.3701 1416.54 81.4501 1416.67 81.5201C1416.93 81.6901 1417.2 81.8501 1417.48 82.0001C1417.66 82.1101 1417.84 82.2101 1418.03 82.3201C1418.21 82.4201 1418.4 82.5101 1418.58 82.6101C1418.68 82.6701 1418.78 82.7201 1418.88 82.7701C1419.14 82.9201 1419.41 83.0501 1419.69 83.1901H1419.7C1419.99 83.3401 1420.28 83.4801 1420.58 83.6101C1421.07 83.8501 1421.57 84.0601 1422.08 84.2701H1422.09C1422.9 84.6201 1423.74 84.9401 1424.6 85.2301C1424.92 85.3401 1425.24 85.4501 1425.57 85.5501C1426.14 85.7401 1426.71 85.9201 1427.29 86.0701C1427.59 86.1601 1427.9 86.2401 1428.21 86.3301C1428.61 86.4501 1429.02 86.5501 1429.43 86.6501C1429.62 86.7001 1429.81 86.7401 1430 86.7801C1430.15 86.8101 1430.29 86.8501 1430.44 86.8801C1430.48 86.8901 1430.52 86.9001 1430.56 86.9101C1430.59 86.9201 1430.63 86.9301 1430.67 86.9401C1430.68 86.9501 1430.7 86.9501 1430.71 86.9501H1430.74C1432.51 86.9401 1434.5 86.9401 1436.7 86.8901H1436.71C1437.45 86.8801 1438.2 86.8601 1438.98 86.8301C1439.13 86.8301 1439.28 86.8201 1439.43 86.8101C1440.03 86.7901 1440.64 86.7701 1441.27 86.7301C1441.58 86.7201 1441.89 86.7001 1442.21 86.6801C1444.75 86.5401 1447.47 86.3001 1450.34 85.9101C1450.69 85.8701 1451.05 85.8201 1451.42 85.7601C1452.87 85.5501 1454.36 85.3001 1455.88 85.0001C1455.97 84.9901 1456.05 84.9701 1456.14 84.9501C1457.18 84.7501 1458.23 84.5201 1459.29 84.2601C1459.71 84.1701 1460.12 84.0701 1460.53 83.9601C1461.32 83.7701 1462.12 83.5601 1462.92 83.3201C1462.97 83.3101 1463.02 83.3001 1463.08 83.2801C1464.59 82.8501 1466.12 82.3701 1467.67 81.8301C1468.15 81.6701 1468.63 81.5001 1469.12 81.3201C1469.92 81.0301 1470.74 80.7101 1471.56 80.3801C1471.98 80.2101 1472.4 80.0401 1472.83 79.8601C1475.88 78.5801 1478.49 77.3001 1480.99 75.9401C1481.61 75.6001 1482.23 75.2501 1482.85 74.9001C1483.47 74.5501 1484.1 74.1901 1484.72 73.8201C1485.35 73.4501 1485.97 73.0801 1486.61 72.6901C1487.25 72.3101 1487.9 71.9201 1488.57 71.5101H1488.58C1489.68 70.8401 1490.75 70.1901 1491.8 69.5501C1491.8 69.5501 1491.8 69.5401 1491.81 69.5401C1493.39 68.5701 1494.92 67.6301 1496.4 66.7001C1497.89 65.7701 1499.33 64.8601 1500.73 63.9601H1500.74C1501.48 63.4901 1502.22 63.0201 1502.94 62.5401C1504.4 61.6001 1505.81 60.6701 1507.17 59.7801C1507.85 59.3201 1508.52 58.8801 1509.18 58.4401H1509.19C1509.85 57.9901 1510.5 57.5501 1511.14 57.1201C1511.47 56.8901 1511.79 56.6801 1512.11 56.4701C1513.06 55.8201 1513.99 55.1901 1514.9 54.5501C1518.58 52.0101 1521.96 49.6101 1525.18 47.3001C1526.25 46.5401 1527.3 45.7801 1528.34 45.0201H1528.35C1529.38 44.2701 1530.41 43.5301 1531.42 42.7801C1532.95 41.6701 1534.46 40.5801 1535.96 39.5101C1537.45 38.4301 1538.94 37.3601 1540.44 36.3001C1541.44 35.5901 1542.44 34.8901 1543.45 34.1901C1544.46 33.4901 1545.48 32.7901 1546.51 32.0901C1546.51 32.0901 1546.51 32.0901 1546.52 32.0901C1547.7 31.3001 1548.89 30.5001 1550.1 29.7001C1551.32 28.9001 1552.56 28.1001 1553.82 27.3001C1553.82 27.2901 1553.83 27.2901 1553.83 27.2901C1555.6 26.1701 1557.32 25.0701 1559.01 24.0101C1560.16 23.2801 1561.28 22.5701 1562.4 21.8801C1563.09 21.4401 1563.78 21.0101 1564.47 20.5901C1565.91 19.7001 1567.33 18.8201 1568.73 17.9801C1569.2 17.6901 1569.66 17.4201 1570.13 17.1401C1570.75 16.7701 1571.36 16.4101 1571.98 16.0501C1572.8 15.5701 1573.61 15.1001 1574.42 14.6401C1576.36 13.5301 1578.29 12.4701 1580.2 11.4801C1580.84 11.1401 1581.47 10.8201 1582.11 10.5001C1584.97 9.0601 1587.82 7.7501 1590.69 6.5801C1592.85 5.7001 1595.02 4.9001 1597.23 4.1901C1597.69 4.0401 1598.15 3.9001 1598.61 3.7601C1600.46 3.1901 1602.34 2.6901 1604.25 2.2501C1605.2 2.0301 1606.16 1.8201 1607.13 1.6401C1607.62 1.5401 1608.11 1.4601 1608.6 1.3701C1609.39 1.2301 1610.18 1.1001 1610.98 0.990103C1611.58 0.900103 1612.19 0.820103 1612.8 0.750103C1613.26 0.690103 1613.72 0.640103 1614.18 0.590103C1615.57 0.450103 1616.98 0.330103 1618.41 0.250103C1618.89 0.230103 1619.49 0.190103 1620.2 0.150103C1620.43 0.140103 1620.68 0.130103 1620.94 0.120103C1621.08 0.110103 1621.24 0.100103 1621.39 0.100103C1621.88 0.070103 1622.41 0.060103 1622.96 0.050103C1623.47 0.040103 1624 0.030103 1624.55 0.020103C1626.02 0.00010302 1627.66 0.010103 1629.42 0.070103C1629.53 0.070103 1629.65 0.070103 1629.76 0.080103C1631.41 0.140103 1633.16 0.250103 1634.98 0.420103C1635.51 0.470103 1636.04 0.520103 1636.57 0.580103C1637.48 0.680103 1638.4 0.800103 1639.34 0.940103C1639.96 1.0301 1640.59 1.1301 1641.22 1.2401C1641.58 1.3001 1641.95 1.3701 1642.32 1.4401C1643.22 1.6101 1644.11 1.8001 1645.01 2.0101C1648.18 2.7401 1651.34 3.7401 1654.33 5.0701C1655.16 5.4401 1655.98 5.8401 1656.78 6.2601C1657.98 6.8901 1659.15 7.5901 1660.26 8.3601C1661.01 8.8701 1661.73 9.4101 1662.42 9.9901C1663.12 10.5601 1663.79 11.1701 1664.43 11.8101C1665.91 13.2701 1667.22 14.9101 1668.33 16.7401C1668.75 17.4301 1669.15 18.1501 1669.51 18.8901C1669.88 19.6401 1670.23 20.4201 1670.54 21.2101C1670.55 21.2101 1670.55 21.2301 1670.55 21.2401C1670.8 21.8701 1671.03 22.5201 1671.24 23.1701C1671.57 24.1901 1671.85 25.2301 1672.08 26.2801C1672.22 26.9601 1672.35 27.6401 1672.45 28.3201C1672.55 29.0201 1672.63 29.7201 1672.69 30.4201C1672.73 31.0001 1672.76 31.5801 1672.76 32.1601C1672.77 32.2801 1672.77 32.4001 1672.77 32.5201L1672.78 32.5101Z" fill="white"/>
<path d="M1672.78 32.9399C1672.72 37.5799 1671.41 41.9799 1668.34 45.1099C1659.98 53.6099 1643.37 47.8099 1641.59 47.1699C1635.58 44.9799 1631.44 41.5399 1629.06 39.1799C1629.4 39.6499 1629.76 40.1499 1630.11 40.6799C1629.77 40.1999 1629.45 39.7499 1629.14 39.3099C1627 37.4499 1624.21 35.5899 1620.71 34.5099C1606.19 30.0199 1592.08 42.6699 1575.99 53.8299C1554.35 68.8399 1527.48 82.2599 1502.72 91.9899C1500.05 93.0399 1497.41 94.0499 1494.81 94.9999C1494.81 94.9999 1494.78 95.0099 1494.77 95.0199C1490.09 96.7399 1485.52 98.3099 1481.11 99.7299C1470.61 102.33 1459.56 106.42 1444.91 103.02C1435.02 100.72 1426.58 95.7399 1423.31 91.9899C1422.52 91.0799 1422.03 90.2499 1421.9 89.5399C1423.24 90.2199 1425.38 91.2199 1427.8 91.9899C1428.06 92.0699 1428.32 92.1499 1428.59 92.2299C1430.3 92.7299 1432.36 93.1599 1435.09 93.2899H1435.1C1441.89 94.3299 1448.83 93.7399 1455.99 91.9899C1458.14 91.4599 1460.3 90.8299 1462.49 90.1099C1470.21 87.5699 1478.22 83.8999 1486.59 79.6499C1486.63 79.6299 1486.67 79.6099 1486.72 79.5899C1486.82 79.5499 1486.91 79.5099 1487.01 79.4699C1487.02 79.4699 1487.02 79.4599 1487.03 79.4599H1487C1491.96 76.9199 1497.05 74.2099 1502.28 71.4099C1518.56 62.7099 1529.41 54.9199 1538.57 48.3399C1540.64 46.8499 1542.63 45.4399 1544.56 44.0699C1555.09 36.7099 1564.34 31.2599 1579.31 28.2099C1587.58 26.5299 1603.28 23.3599 1621.45 27.8799C1625.89 28.9899 1628.48 30.0599 1630.91 31.0599C1631.08 31.1199 1631.24 31.1899 1631.4 31.2599C1633.99 32.3199 1636.52 33.3099 1641.02 34.1499C1650.55 35.9499 1661.09 35.6399 1669.56 33.7599C1670.67 33.5099 1671.75 33.2399 1672.79 32.9399H1672.78Z" fill="#70B3AB"/>
<path d="M1909.75 32.5101V32.9401C1908.71 33.2401 1907.63 33.5101 1906.52 33.7601C1898.05 35.6401 1887.51 35.9501 1877.98 34.1501C1873.48 33.3101 1870.95 32.3201 1868.36 31.2601C1868.2 31.1901 1868.04 31.1201 1867.87 31.0601C1865.44 30.0601 1862.85 28.9901 1858.41 27.8801C1840.24 23.3601 1824.54 26.5301 1816.27 28.2101C1801.3 31.2601 1792.05 36.7101 1781.52 44.0701C1779.59 45.4401 1777.6 46.8501 1775.53 48.3401C1766.37 54.9201 1755.52 62.7101 1739.24 71.4101C1734.01 74.2101 1728.92 76.9201 1723.96 79.4501H1723.94C1723.85 79.5001 1723.76 79.5401 1723.68 79.5901C1723.63 79.6101 1723.59 79.6301 1723.55 79.6501C1715.18 83.9001 1707.17 87.5701 1699.45 90.1101C1697.26 90.8301 1695.1 91.4601 1692.95 91.9901C1685.79 93.7401 1678.85 94.3301 1672.06 93.2901H1672.05C1669.32 93.1601 1667.26 92.7301 1665.55 92.2301C1665.28 92.1501 1665.02 92.0701 1664.76 91.9901C1662.34 91.2201 1660.2 90.2201 1658.86 89.5401C1658.02 89.1101 1657.49 88.8001 1657.4 88.7401C1655.43 87.5501 1649.92 84.2301 1646.07 78.0101C1642.89 72.8801 1643.99 70.6301 1641.74 63.0601C1641.82 63.2701 1641.9 63.4701 1641.97 63.6601C1642.09 63.9901 1642.2 64.3101 1642.31 64.6101C1642.47 65.0701 1642.61 65.5001 1642.75 65.9101C1642.86 66.2401 1642.96 66.5401 1643.05 66.8401C1643.12 67.0501 1643.18 67.2501 1643.24 67.4401C1643.28 67.5601 1643.31 67.6801 1643.35 67.7901C1643.5 68.3001 1643.64 68.7701 1643.78 69.2101C1643.86 69.4601 1643.93 69.7001 1644 69.9301C1644.08 70.1901 1644.16 70.4301 1644.25 70.6701C1644.36 70.9801 1644.46 71.2701 1644.57 71.5501C1644.69 71.8301 1644.8 72.1101 1644.93 72.3801C1645.83 74.3201 1647.12 76.0901 1648.73 77.6901C1649.07 78.0301 1649.43 78.3701 1649.79 78.6901C1650.21 79.0701 1650.66 79.4401 1651.12 79.7901C1651.2 79.8501 1651.28 79.9101 1651.36 79.9701C1651.37 79.9701 1651.37 79.9801 1651.37 79.9801C1651.55 80.1201 1651.73 80.2501 1651.92 80.3801C1651.95 80.4101 1651.99 80.4301 1652.02 80.4501C1652.04 80.4701 1652.05 80.4801 1652.07 80.4901C1652.1 80.5101 1652.13 80.5301 1652.16 80.5501C1652.18 80.5701 1652.2 80.5801 1652.22 80.5901C1652.31 80.6601 1652.4 80.7201 1652.49 80.7701C1652.59 80.8501 1652.7 80.9201 1652.8 80.9901C1652.82 81.0001 1652.84 81.0201 1652.86 81.0301H1652.87C1652.87 81.0301 1652.95 81.0801 1652.99 81.1001C1653.02 81.1201 1653.04 81.1301 1653.07 81.1601C1653.11 81.1901 1653.15 81.2101 1653.19 81.2301C1653.21 81.2501 1653.24 81.2701 1653.27 81.2901C1653.39 81.3701 1653.51 81.4501 1653.64 81.5201C1653.9 81.6901 1654.17 81.8501 1654.45 82.0001C1654.63 82.1101 1654.81 82.2101 1655 82.3201C1655.18 82.4201 1655.37 82.5101 1655.55 82.6101C1655.65 82.6701 1655.75 82.7201 1655.85 82.7701C1656.11 82.9201 1656.38 83.0501 1656.66 83.1901H1656.67C1656.96 83.3401 1657.25 83.4801 1657.55 83.6101C1658.04 83.8501 1658.54 84.0601 1659.05 84.2701H1659.06C1659.87 84.6201 1660.71 84.9401 1661.57 85.2301C1661.89 85.3401 1662.21 85.4501 1662.54 85.5501C1663.11 85.7401 1663.68 85.9201 1664.26 86.0701C1664.56 86.1601 1664.87 86.2401 1665.18 86.3301C1665.58 86.4501 1665.99 86.5501 1666.4 86.6501C1666.59 86.7001 1666.78 86.7401 1666.97 86.7801C1667.12 86.8101 1667.26 86.8501 1667.41 86.8801C1667.45 86.8901 1667.49 86.9001 1667.53 86.9101C1667.56 86.9201 1667.6 86.9301 1667.64 86.9401C1667.65 86.9501 1667.67 86.9501 1667.68 86.9501H1667.71C1669.48 86.9401 1671.47 86.9401 1673.67 86.8901H1673.68C1674.42 86.8801 1675.17 86.8601 1675.95 86.8301C1676.1 86.8301 1676.25 86.8201 1676.4 86.8101C1677 86.7901 1677.61 86.7701 1678.24 86.7301C1678.55 86.7201 1678.86 86.7001 1679.18 86.6801C1681.72 86.5401 1684.44 86.3001 1687.31 85.9101C1687.66 85.8701 1688.02 85.8201 1688.39 85.7601C1689.84 85.5501 1691.33 85.3001 1692.85 85.0001C1692.94 84.9901 1693.02 84.9701 1693.11 84.9501C1694.15 84.7501 1695.2 84.5201 1696.26 84.2601C1696.68 84.1701 1697.09 84.0701 1697.5 83.9601C1698.29 83.7701 1699.09 83.5601 1699.89 83.3201C1699.94 83.3101 1699.99 83.3001 1700.05 83.2801C1701.56 82.8501 1703.09 82.3701 1704.64 81.8301C1705.12 81.6701 1705.6 81.5001 1706.09 81.3201C1706.89 81.0301 1707.71 80.7101 1708.53 80.3801C1708.95 80.2101 1709.37 80.0401 1709.8 79.8601C1712.85 78.5801 1715.46 77.3001 1717.96 75.9401C1718.58 75.6001 1719.2 75.2501 1719.82 74.9001C1720.44 74.5501 1721.07 74.1901 1721.69 73.8201C1722.32 73.4501 1722.94 73.0801 1723.58 72.6901C1724.22 72.3101 1724.87 71.9201 1725.54 71.5101H1725.55C1726.65 70.8401 1727.72 70.1901 1728.77 69.5501C1728.77 69.5501 1728.77 69.5401 1728.78 69.5401C1730.36 68.5701 1731.89 67.6301 1733.37 66.7001C1734.86 65.7701 1736.3 64.8601 1737.7 63.9601H1737.71C1738.45 63.4901 1739.19 63.0201 1739.91 62.5401C1741.37 61.6001 1742.78 60.6701 1744.14 59.7801C1744.82 59.3201 1745.49 58.8801 1746.15 58.4401H1746.16C1746.82 57.9901 1747.47 57.5501 1748.11 57.1201C1748.44 56.8901 1748.76 56.6801 1749.08 56.4701C1750.03 55.8201 1750.96 55.1901 1751.87 54.5501C1755.55 52.0101 1758.93 49.6101 1762.15 47.3001C1763.22 46.5401 1764.27 45.7801 1765.31 45.0201H1765.32C1766.35 44.2701 1767.38 43.5301 1768.39 42.7801C1769.92 41.6701 1771.43 40.5801 1772.93 39.5101C1774.42 38.4301 1775.91 37.3601 1777.41 36.3001C1778.41 35.5901 1779.41 34.8901 1780.42 34.1901C1781.43 33.4901 1782.45 32.7901 1783.48 32.0901C1783.48 32.0901 1783.48 32.0901 1783.49 32.0901C1784.67 31.3001 1785.86 30.5001 1787.07 29.7001C1788.29 28.9001 1789.53 28.1001 1790.79 27.3001C1790.79 27.2901 1790.8 27.2901 1790.8 27.2901C1792.57 26.1701 1794.29 25.0701 1795.98 24.0101C1797.13 23.2801 1798.25 22.5701 1799.37 21.8801C1800.06 21.4401 1800.75 21.0101 1801.44 20.5901C1802.88 19.7001 1804.3 18.8201 1805.7 17.9801C1806.17 17.6901 1806.63 17.4201 1807.1 17.1401C1807.72 16.7701 1808.33 16.4101 1808.95 16.0501C1809.77 15.5701 1810.58 15.1001 1811.39 14.6401C1813.33 13.5301 1815.26 12.4701 1817.17 11.4801C1817.81 11.1401 1818.44 10.8201 1819.08 10.5001C1821.94 9.0601 1824.79 7.7501 1827.66 6.5801C1829.82 5.7001 1831.99 4.9001 1834.2 4.1901C1834.66 4.0401 1835.12 3.9001 1835.58 3.7601C1837.43 3.1901 1839.31 2.6901 1841.22 2.2501C1842.17 2.0301 1843.13 1.8201 1844.1 1.6401C1844.59 1.5401 1845.08 1.4601 1845.57 1.3701C1846.36 1.2301 1847.15 1.1001 1847.95 0.990103C1848.55 0.900103 1849.16 0.820103 1849.77 0.750103C1850.23 0.690103 1850.69 0.640103 1851.15 0.590103C1852.54 0.450103 1853.95 0.330103 1855.38 0.250103C1855.86 0.230103 1856.46 0.190103 1857.17 0.150103C1857.4 0.140103 1857.65 0.130103 1857.91 0.120103C1858.05 0.110103 1858.21 0.100103 1858.36 0.100103C1858.85 0.070103 1859.38 0.060103 1859.93 0.050103C1860.44 0.040103 1860.97 0.030103 1861.52 0.020103C1862.99 0.00010302 1864.63 0.010103 1866.39 0.070103C1866.5 0.070103 1866.62 0.070103 1866.73 0.080103C1868.38 0.140103 1870.13 0.250103 1871.95 0.420103C1872.48 0.470103 1873.01 0.520103 1873.54 0.580103C1874.45 0.680103 1875.37 0.800103 1876.31 0.940103C1876.93 1.0301 1877.56 1.1301 1878.19 1.2401C1878.55 1.3001 1878.92 1.3701 1879.29 1.4401C1880.19 1.6101 1881.08 1.8001 1881.98 2.0101C1885.15 2.7401 1888.31 3.7401 1891.3 5.0701C1892.13 5.4401 1892.95 5.8401 1893.75 6.2601C1894.95 6.8901 1896.12 7.5901 1897.23 8.3601C1897.98 8.8701 1898.7 9.4101 1899.39 9.9901C1900.09 10.5601 1900.76 11.1701 1901.4 11.8101C1902.88 13.2701 1904.19 14.9101 1905.3 16.7401C1905.72 17.4301 1906.12 18.1501 1906.48 18.8901C1906.85 19.6401 1907.2 20.4201 1907.51 21.2101C1907.52 21.2101 1907.52 21.2301 1907.52 21.2401C1907.77 21.8701 1908 22.5201 1908.21 23.1701C1908.54 24.1901 1908.82 25.2301 1909.05 26.2801C1909.19 26.9601 1909.32 27.6401 1909.42 28.3201C1909.52 29.0201 1909.6 29.7201 1909.66 30.4201C1909.7 31.0001 1909.73 31.5801 1909.73 32.1601C1909.74 32.2801 1909.74 32.4001 1909.74 32.5201L1909.75 32.5101Z" fill="white"/>
<path d="M1909.75 32.9399C1909.69 37.5799 1908.38 41.9799 1905.31 45.1099C1896.95 53.6099 1880.34 47.8099 1878.56 47.1699C1872.55 44.9799 1868.41 41.5399 1866.03 39.1799C1866.37 39.6499 1866.73 40.1499 1867.08 40.6799C1866.74 40.1999 1866.42 39.7499 1866.11 39.3099C1863.97 37.4499 1861.18 35.5899 1857.68 34.5099C1843.16 30.0199 1829.05 42.6699 1812.96 53.8299C1791.32 68.8399 1764.45 82.2599 1739.69 91.9899C1737.02 93.0399 1734.38 94.0499 1731.78 94.9999C1731.78 94.9999 1731.75 95.0099 1731.74 95.0199C1727.06 96.7399 1722.49 98.3099 1718.08 99.7299C1707.58 102.33 1696.53 106.42 1681.88 103.02C1671.99 100.72 1663.55 95.7399 1660.28 91.9899C1659.49 91.0799 1659 90.2499 1658.87 89.5399C1660.21 90.2199 1662.35 91.2199 1664.77 91.9899C1665.03 92.0699 1665.29 92.1499 1665.56 92.2299C1667.27 92.7299 1669.33 93.1599 1672.06 93.2899H1672.07C1678.86 94.3299 1685.8 93.7399 1692.96 91.9899C1695.11 91.4599 1697.27 90.8299 1699.46 90.1099C1707.18 87.5699 1715.19 83.8999 1723.56 79.6499C1723.6 79.6299 1723.64 79.6099 1723.69 79.5899C1723.79 79.5499 1723.88 79.5099 1723.98 79.4699C1723.99 79.4699 1723.99 79.4599 1724 79.4599H1723.97C1728.93 76.9199 1734.02 74.2099 1739.25 71.4099C1755.53 62.7099 1766.38 54.9199 1775.54 48.3399C1777.61 46.8499 1779.6 45.4399 1781.53 44.0699C1792.06 36.7099 1801.31 31.2599 1816.28 28.2099C1824.55 26.5299 1840.25 23.3599 1858.42 27.8799C1862.86 28.9899 1865.45 30.0599 1867.88 31.0599C1868.05 31.1199 1868.21 31.1899 1868.37 31.2599C1870.96 32.3199 1873.49 33.3099 1877.99 34.1499C1887.52 35.9499 1898.06 35.6399 1906.53 33.7599C1907.64 33.5099 1908.72 33.2399 1909.76 32.9399H1909.75Z" fill="#70B3AB"/>
</g>
<defs>
<clipPath id="clip0_233_2500">
<rect width="1969" height="456.99" fill="white"/>
</clipPath>
</defs>
</svg>
