<svg viewBox="0 0 987 148" fill="none" xmlns="http://www.w3.org/2000/svg">
<path d="M78.1851 121.135C67.559 121.135 58.0058 118.733 49.5253 113.931C41.0449 109.027 34.3525 102.283 29.4481 93.7009C24.646 85.0161 22.2449 75.2585 22.2449 64.428C22.2449 53.5976 24.646 43.8911 29.4481 35.3085C34.3525 26.6237 41.0449 19.8802 49.5253 15.078C58.0058 10.1737 67.559 7.72151 78.1851 7.72151C87.8916 7.72151 96.3721 9.56064 103.626 13.2389C110.983 16.9172 116.858 21.7193 121.251 27.6454C125.747 33.4693 129.017 39.8552 131.06 46.803H117.267C114.508 39.5487 109.808 33.4182 103.167 28.4117C96.5253 23.303 88.1981 20.7487 78.1851 20.7487C70.1134 20.7487 62.859 22.5878 56.4221 26.2661C49.9851 29.9443 44.9786 35.1041 41.4025 41.7454C37.8264 48.2846 36.0384 55.8454 36.0384 64.428C36.0384 73.0106 37.8264 80.6226 41.4025 87.2639C44.9786 93.803 49.9851 98.9117 56.4221 102.59C62.859 106.268 70.1134 108.107 78.1851 108.107C88.5047 108.107 97.0362 105.349 103.78 99.8313C110.523 94.3139 115.274 87.6215 118.033 79.7541H131.826C129.579 87.0085 126.105 93.803 121.405 100.138C116.807 106.37 110.83 111.428 103.473 115.311C96.2188 119.193 87.7894 121.135 78.1851 121.135ZM183.905 119.602C176.344 119.602 169.499 117.916 163.368 114.544C157.34 111.07 152.589 106.319 149.115 100.291C145.743 94.1606 144.057 87.315 144.057 79.7541C144.057 72.1933 145.743 65.3987 149.115 59.3704C152.589 53.24 157.34 48.4889 163.368 45.1172C169.499 41.6432 176.344 39.9063 183.905 39.9063C191.466 39.9063 198.261 41.6432 204.289 45.1172C210.419 48.4889 215.17 53.24 218.542 59.3704C222.016 65.3987 223.753 72.1933 223.753 79.7541C223.753 87.315 222.016 94.1606 218.542 100.291C215.17 106.319 210.419 111.07 204.289 114.544C198.261 117.916 191.466 119.602 183.905 119.602ZM183.905 108.107C189.218 108.107 193.969 106.932 198.158 104.582C202.348 102.13 205.617 98.7585 207.967 94.4672C210.317 90.1759 211.492 85.2715 211.492 79.7541C211.492 74.2367 210.317 69.3324 207.967 65.0411C205.617 60.7498 202.348 57.4291 198.158 55.0791C193.969 52.6269 189.218 51.4009 183.905 51.4009C178.592 51.4009 173.841 52.6269 169.652 55.0791C165.463 57.4291 162.193 60.7498 159.843 65.0411C157.493 69.3324 156.318 74.2367 156.318 79.7541C156.318 85.2715 157.493 90.1759 159.843 94.4672C162.193 98.7585 165.463 102.13 169.652 104.582C173.841 106.932 178.592 108.107 183.905 108.107ZM240.552 118.069V41.4389H252.813V52.9335H252.966C255.112 49.2552 258.33 46.19 262.621 43.7378C266.913 41.1835 272.072 39.9063 278.101 39.9063C284.129 39.9063 289.238 41.3878 293.427 44.3509C297.616 47.3139 300.681 50.9411 302.622 55.2324H303.389C305.841 50.9411 309.468 47.3139 314.27 44.3509C319.175 41.3878 324.999 39.9063 331.742 39.9063C337.157 39.9063 342.011 41.2345 346.302 43.8911C350.593 46.5476 353.965 50.3791 356.417 55.3856C358.869 60.29 360.095 66.1139 360.095 72.8574V118.069H347.834V73.6237C347.834 66.5737 346.149 61.1074 342.777 57.2248C339.405 53.3422 334.961 51.4009 329.443 51.4009C325.458 51.4009 321.678 52.4737 318.102 54.6193C314.526 56.765 311.665 59.6769 309.519 63.3552C307.476 66.9313 306.454 70.865 306.454 75.1563V118.069H294.193V73.6237C294.193 66.5737 292.507 61.1074 289.136 57.2248C285.764 53.3422 281.319 51.4009 275.802 51.4009C271.817 51.4009 268.037 52.4737 264.461 54.6193C260.884 56.765 258.024 59.6769 255.878 63.3552C253.834 66.9313 252.813 70.865 252.813 75.1563V118.069H240.552ZM380.791 118.069V41.4389H393.052V118.069H380.791ZM386.922 26.8791C384.674 26.8791 382.682 26.0617 380.945 24.4269C379.31 22.69 378.493 20.6976 378.493 18.4498C378.493 16.0998 379.31 14.1074 380.945 12.4726C382.682 10.8378 384.674 10.0204 386.922 10.0204C389.272 10.0204 391.264 10.8378 392.899 12.4726C394.534 14.1074 395.351 16.0998 395.351 18.4498C395.351 20.6976 394.534 22.69 392.899 24.4269C391.264 26.0617 389.272 26.8791 386.922 26.8791ZM414.467 118.069V41.4389H426.728V52.9335H426.881C429.231 49.2552 432.603 46.19 436.996 43.7378C441.492 41.1835 446.754 39.9063 452.782 39.9063C462.08 39.9063 469.488 42.8693 475.005 48.7954C480.625 54.6193 483.434 62.64 483.434 72.8574V118.069H471.173V73.6237C471.173 66.165 469.334 60.5965 465.656 56.9182C461.978 53.24 456.92 51.4009 450.483 51.4009C445.885 51.4009 441.798 52.4737 438.222 54.6193C434.646 56.6628 431.837 59.6259 429.793 63.5085C427.75 67.2889 426.728 71.6824 426.728 76.6889V118.069H414.467ZM510.249 147.189V135.694H563.89V105.808H563.737C563.737 106.217 562.664 107.597 560.519 109.947C558.373 112.297 555.257 114.493 551.17 116.537C547.185 118.58 542.229 119.602 536.303 119.602C529.662 119.602 523.532 117.865 517.912 114.391C512.293 110.917 507.797 106.166 504.425 100.138C501.156 94.0074 499.521 87.2128 499.521 79.7541C499.521 72.2954 501.156 65.5519 504.425 59.5237C507.797 53.3932 512.293 48.5911 517.912 45.1172C523.532 41.6432 529.662 39.9063 536.303 39.9063C542.229 39.9063 547.185 40.928 551.17 42.9715C555.257 45.015 558.373 47.2117 560.519 49.5617C562.664 51.9117 563.737 53.2911 563.737 53.6998H563.89V41.4389H576.151V147.189H510.249ZM537.836 108.107C542.638 108.107 547.032 106.932 551.016 104.582C555.001 102.13 558.118 98.7585 560.365 94.4672C562.715 90.1759 563.89 85.2715 563.89 79.7541C563.89 74.2367 562.715 69.3324 560.365 65.0411C558.118 60.7498 555.001 57.4291 551.016 55.0791C547.032 52.6269 542.638 51.4009 537.836 51.4009C533.034 51.4009 528.64 52.6269 524.656 55.0791C520.671 57.4291 517.503 60.7498 515.153 65.0411C512.906 69.3324 511.782 74.2367 511.782 79.7541C511.782 85.2715 512.906 90.1759 515.153 94.4672C517.503 98.7585 520.671 102.13 524.656 104.582C528.64 106.932 533.034 108.107 537.836 108.107ZM670.502 119.602C663.861 119.602 658.088 118.427 653.184 116.077C648.28 113.625 644.346 110.508 641.383 106.728C638.522 102.948 636.479 98.8096 635.252 94.3139H648.28C649.812 98.1965 652.469 101.466 656.249 104.123C660.03 106.779 664.781 108.107 670.502 108.107C677.042 108.107 681.844 107.035 684.909 104.889C688.076 102.743 689.66 99.9846 689.66 96.6128C689.66 94.4672 688.792 92.7302 687.055 91.4019C685.42 89.9715 683.274 88.8476 680.618 88.0302C678.063 87.1106 674.487 86.14 669.889 85.1182C663.452 83.6878 658.19 82.2063 654.104 80.6737C650.017 79.1411 646.492 76.8422 643.529 73.7769C640.565 70.7117 639.084 66.5737 639.084 61.3628C639.084 57.4802 640.208 53.9041 642.456 50.6346C644.704 47.365 648.024 44.7596 652.418 42.8182C656.811 40.8769 662.073 39.9063 668.204 39.9063C677.501 39.9063 684.909 42.1541 690.426 46.6498C695.944 51.0432 699.52 56.4585 701.155 62.8954H688.127C686.799 59.728 684.449 57.0204 681.077 54.7726C677.808 52.5248 673.517 51.4009 668.204 51.4009C664.627 51.4009 661.562 51.9117 659.008 52.9335C656.454 53.853 654.512 55.0791 653.184 56.6117C651.958 58.1443 651.345 59.728 651.345 61.3628C651.345 63.5085 652.162 65.2965 653.797 66.7269C655.534 68.0552 657.68 69.1791 660.234 70.0987C662.89 70.9161 666.518 71.8356 671.115 72.8574C677.552 74.2878 682.814 75.7693 686.901 77.3019C690.988 78.8346 694.513 81.1335 697.476 84.1987C700.439 87.2639 701.921 91.4019 701.921 96.6128C701.921 100.802 700.695 104.633 698.243 108.107C695.893 111.581 692.317 114.391 687.514 116.537C682.814 118.58 677.144 119.602 670.502 119.602ZM753.994 119.602C746.433 119.602 739.587 117.916 733.457 114.544C727.428 111.07 722.677 106.319 719.203 100.291C715.832 94.1606 714.146 87.315 714.146 79.7541C714.146 72.1933 715.832 65.3987 719.203 59.3704C722.677 53.24 727.428 48.4889 733.457 45.1172C739.587 41.6432 746.433 39.9063 753.994 39.9063C761.555 39.9063 768.349 41.6432 774.377 45.1172C780.508 48.4889 785.259 53.24 788.631 59.3704C792.105 65.3987 793.842 72.1933 793.842 79.7541C793.842 87.315 792.105 94.1606 788.631 100.291C785.259 106.319 780.508 111.07 774.377 114.544C768.349 117.916 761.555 119.602 753.994 119.602ZM753.994 108.107C759.307 108.107 764.058 106.932 768.247 104.582C772.436 102.13 775.706 98.7585 778.056 94.4672C780.406 90.1759 781.581 85.2715 781.581 79.7541C781.581 74.2367 780.406 69.3324 778.056 65.0411C775.706 60.7498 772.436 57.4291 768.247 55.0791C764.058 52.6269 759.307 51.4009 753.994 51.4009C748.681 51.4009 743.93 52.6269 739.74 55.0791C735.551 57.4291 732.282 60.7498 729.932 65.0411C727.582 69.3324 726.407 74.2367 726.407 79.7541C726.407 85.2715 727.582 90.1759 729.932 94.4672C732.282 98.7585 735.551 102.13 739.74 104.582C743.93 106.932 748.681 108.107 753.994 108.107ZM845.89 119.602C838.329 119.602 831.484 117.916 825.353 114.544C819.325 111.07 814.574 106.319 811.1 100.291C807.728 94.1606 806.042 87.315 806.042 79.7541C806.042 72.1933 807.728 65.3987 811.1 59.3704C814.574 53.24 819.325 48.4889 825.353 45.1172C831.484 41.6432 838.329 39.9063 845.89 39.9063C853.451 39.9063 860.246 41.6432 866.274 45.1172C872.404 48.4889 877.156 53.24 880.527 59.3704C884.001 65.3987 885.738 72.1933 885.738 79.7541C885.738 87.315 884.001 94.1606 880.527 100.291C877.156 106.319 872.404 111.07 866.274 114.544C860.246 117.916 853.451 119.602 845.89 119.602ZM845.89 108.107C851.203 108.107 855.954 106.932 860.144 104.582C864.333 102.13 867.602 98.7585 869.952 94.4672C872.302 90.1759 873.477 85.2715 873.477 79.7541C873.477 74.2367 872.302 69.3324 869.952 65.0411C867.602 60.7498 864.333 57.4291 860.144 55.0791C855.954 52.6269 851.203 51.4009 845.89 51.4009C840.577 51.4009 835.826 52.6269 831.637 55.0791C827.448 57.4291 824.178 60.7498 821.828 65.0411C819.478 69.3324 818.303 74.2367 818.303 79.7541C818.303 85.2715 819.478 90.1759 821.828 94.4672C824.178 98.7585 827.448 102.13 831.637 104.582C835.826 106.932 840.577 108.107 845.89 108.107ZM902.537 118.069V41.4389H914.798V52.9335H914.951C917.301 49.2552 920.673 46.19 925.066 43.7378C929.562 41.1835 934.824 39.9063 940.852 39.9063C950.15 39.9063 957.558 42.8693 963.075 48.7954C968.695 54.6193 971.504 62.64 971.504 72.8574V118.069H959.244V73.6237C959.244 66.165 957.404 60.5965 953.726 56.9182C950.048 53.24 944.99 51.4009 938.553 51.4009C933.955 51.4009 929.868 52.4737 926.292 54.6193C922.716 56.6628 919.907 59.6259 917.863 63.5085C915.82 67.2889 914.798 71.6824 914.798 76.6889V118.069H902.537Z" fill="#FFD900"/>
<path d="M78.1851 121.135C67.559 121.135 58.0058 118.733 49.5253 113.931C41.0449 109.027 34.3525 102.283 29.4481 93.7009C24.646 85.0161 22.2449 75.2585 22.2449 64.428C22.2449 53.5976 24.646 43.8911 29.4481 35.3085C34.3525 26.6237 41.0449 19.8802 49.5253 15.078C58.0058 10.1737 67.559 7.72151 78.1851 7.72151C87.8916 7.72151 96.3721 9.56064 103.626 13.2389C110.983 16.9172 116.858 21.7193 121.251 27.6454C125.747 33.4693 129.017 39.8552 131.06 46.803H117.267C114.508 39.5487 109.808 33.4182 103.167 28.4117C96.5253 23.303 88.1981 20.7487 78.1851 20.7487C70.1134 20.7487 62.859 22.5878 56.4221 26.2661C49.9851 29.9443 44.9786 35.1041 41.4025 41.7454C37.8264 48.2846 36.0384 55.8454 36.0384 64.428C36.0384 73.0106 37.8264 80.6226 41.4025 87.2639C44.9786 93.803 49.9851 98.9117 56.4221 102.59C62.859 106.268 70.1134 108.107 78.1851 108.107C88.5047 108.107 97.0362 105.349 103.78 99.8313C110.523 94.3139 115.274 87.6215 118.033 79.7541H131.826C129.579 87.0085 126.105 93.803 121.405 100.138C116.807 106.37 110.83 111.428 103.473 115.311C96.2188 119.193 87.7894 121.135 78.1851 121.135ZM183.905 119.602C176.344 119.602 169.499 117.916 163.368 114.544C157.34 111.07 152.589 106.319 149.115 100.291C145.743 94.1606 144.057 87.315 144.057 79.7541C144.057 72.1933 145.743 65.3987 149.115 59.3704C152.589 53.24 157.34 48.4889 163.368 45.1172C169.499 41.6432 176.344 39.9063 183.905 39.9063C191.466 39.9063 198.261 41.6432 204.289 45.1172C210.419 48.4889 215.17 53.24 218.542 59.3704C222.016 65.3987 223.753 72.1933 223.753 79.7541C223.753 87.315 222.016 94.1606 218.542 100.291C215.17 106.319 210.419 111.07 204.289 114.544C198.261 117.916 191.466 119.602 183.905 119.602ZM183.905 108.107C189.218 108.107 193.969 106.932 198.158 104.582C202.348 102.13 205.617 98.7585 207.967 94.4672C210.317 90.1759 211.492 85.2715 211.492 79.7541C211.492 74.2367 210.317 69.3324 207.967 65.0411C205.617 60.7498 202.348 57.4291 198.158 55.0791C193.969 52.6269 189.218 51.4009 183.905 51.4009C178.592 51.4009 173.841 52.6269 169.652 55.0791C165.463 57.4291 162.193 60.7498 159.843 65.0411C157.493 69.3324 156.318 74.2367 156.318 79.7541C156.318 85.2715 157.493 90.1759 159.843 94.4672C162.193 98.7585 165.463 102.13 169.652 104.582C173.841 106.932 178.592 108.107 183.905 108.107ZM240.552 118.069V41.4389H252.813V52.9335H252.966C255.112 49.2552 258.33 46.19 262.621 43.7378C266.913 41.1835 272.072 39.9063 278.101 39.9063C284.129 39.9063 289.238 41.3878 293.427 44.3509C297.616 47.3139 300.681 50.9411 302.622 55.2324H303.389C305.841 50.9411 309.468 47.3139 314.27 44.3509C319.175 41.3878 324.999 39.9063 331.742 39.9063C337.157 39.9063 342.011 41.2345 346.302 43.8911C350.593 46.5476 353.965 50.3791 356.417 55.3856C358.869 60.29 360.095 66.1139 360.095 72.8574V118.069H347.834V73.6237C347.834 66.5737 346.149 61.1074 342.777 57.2248C339.405 53.3422 334.961 51.4009 329.443 51.4009C325.458 51.4009 321.678 52.4737 318.102 54.6193C314.526 56.765 311.665 59.6769 309.519 63.3552C307.476 66.9313 306.454 70.865 306.454 75.1563V118.069H294.193V73.6237C294.193 66.5737 292.507 61.1074 289.136 57.2248C285.764 53.3422 281.319 51.4009 275.802 51.4009C271.817 51.4009 268.037 52.4737 264.461 54.6193C260.884 56.765 258.024 59.6769 255.878 63.3552C253.834 66.9313 252.813 70.865 252.813 75.1563V118.069H240.552ZM380.791 118.069V41.4389H393.052V118.069H380.791ZM386.922 26.8791C384.674 26.8791 382.682 26.0617 380.945 24.4269C379.31 22.69 378.493 20.6976 378.493 18.4498C378.493 16.0998 379.31 14.1074 380.945 12.4726C382.682 10.8378 384.674 10.0204 386.922 10.0204C389.272 10.0204 391.264 10.8378 392.899 12.4726C394.534 14.1074 395.351 16.0998 395.351 18.4498C395.351 20.6976 394.534 22.69 392.899 24.4269C391.264 26.0617 389.272 26.8791 386.922 26.8791ZM414.467 118.069V41.4389H426.728V52.9335H426.881C429.231 49.2552 432.603 46.19 436.996 43.7378C441.492 41.1835 446.754 39.9063 452.782 39.9063C462.08 39.9063 469.488 42.8693 475.005 48.7954C480.625 54.6193 483.434 62.64 483.434 72.8574V118.069H471.173V73.6237C471.173 66.165 469.334 60.5965 465.656 56.9182C461.978 53.24 456.92 51.4009 450.483 51.4009C445.885 51.4009 441.798 52.4737 438.222 54.6193C434.646 56.6628 431.837 59.6259 429.793 63.5085C427.75 67.2889 426.728 71.6824 426.728 76.6889V118.069H414.467ZM510.249 147.189V135.694H563.89V105.808H563.737C563.737 106.217 562.664 107.597 560.519 109.947C558.373 112.297 555.257 114.493 551.17 116.537C547.185 118.58 542.229 119.602 536.303 119.602C529.662 119.602 523.532 117.865 517.912 114.391C512.293 110.917 507.797 106.166 504.425 100.138C501.156 94.0074 499.521 87.2128 499.521 79.7541C499.521 72.2954 501.156 65.5519 504.425 59.5237C507.797 53.3932 512.293 48.5911 517.912 45.1172C523.532 41.6432 529.662 39.9063 536.303 39.9063C542.229 39.9063 547.185 40.928 551.17 42.9715C555.257 45.015 558.373 47.2117 560.519 49.5617C562.664 51.9117 563.737 53.2911 563.737 53.6998H563.89V41.4389H576.151V147.189H510.249ZM537.836 108.107C542.638 108.107 547.032 106.932 551.016 104.582C555.001 102.13 558.118 98.7585 560.365 94.4672C562.715 90.1759 563.89 85.2715 563.89 79.7541C563.89 74.2367 562.715 69.3324 560.365 65.0411C558.118 60.7498 555.001 57.4291 551.016 55.0791C547.032 52.6269 542.638 51.4009 537.836 51.4009C533.034 51.4009 528.64 52.6269 524.656 55.0791C520.671 57.4291 517.503 60.7498 515.153 65.0411C512.906 69.3324 511.782 74.2367 511.782 79.7541C511.782 85.2715 512.906 90.1759 515.153 94.4672C517.503 98.7585 520.671 102.13 524.656 104.582C528.64 106.932 533.034 108.107 537.836 108.107ZM670.502 119.602C663.861 119.602 658.088 118.427 653.184 116.077C648.28 113.625 644.346 110.508 641.383 106.728C638.522 102.948 636.479 98.8096 635.252 94.3139H648.28C649.812 98.1965 652.469 101.466 656.249 104.123C660.03 106.779 664.781 108.107 670.502 108.107C677.042 108.107 681.844 107.035 684.909 104.889C688.076 102.743 689.66 99.9846 689.66 96.6128C689.66 94.4672 688.792 92.7302 687.055 91.4019C685.42 89.9715 683.274 88.8476 680.618 88.0302C678.063 87.1106 674.487 86.14 669.889 85.1182C663.452 83.6878 658.19 82.2063 654.104 80.6737C650.017 79.1411 646.492 76.8422 643.529 73.7769C640.565 70.7117 639.084 66.5737 639.084 61.3628C639.084 57.4802 640.208 53.9041 642.456 50.6346C644.704 47.365 648.024 44.7596 652.418 42.8182C656.811 40.8769 662.073 39.9063 668.204 39.9063C677.501 39.9063 684.909 42.1541 690.426 46.6498C695.944 51.0432 699.52 56.4585 701.155 62.8954H688.127C686.799 59.728 684.449 57.0204 681.077 54.7726C677.808 52.5248 673.517 51.4009 668.204 51.4009C664.627 51.4009 661.562 51.9117 659.008 52.9335C656.454 53.853 654.512 55.0791 653.184 56.6117C651.958 58.1443 651.345 59.728 651.345 61.3628C651.345 63.5085 652.162 65.2965 653.797 66.7269C655.534 68.0552 657.68 69.1791 660.234 70.0987C662.89 70.9161 666.518 71.8356 671.115 72.8574C677.552 74.2878 682.814 75.7693 686.901 77.3019C690.988 78.8346 694.513 81.1335 697.476 84.1987C700.439 87.2639 701.921 91.4019 701.921 96.6128C701.921 100.802 700.695 104.633 698.243 108.107C695.893 111.581 692.317 114.391 687.514 116.537C682.814 118.58 677.144 119.602 670.502 119.602ZM753.994 119.602C746.433 119.602 739.587 117.916 733.457 114.544C727.428 111.07 722.677 106.319 719.203 100.291C715.832 94.1606 714.146 87.315 714.146 79.7541C714.146 72.1933 715.832 65.3987 719.203 59.3704C722.677 53.24 727.428 48.4889 733.457 45.1172C739.587 41.6432 746.433 39.9063 753.994 39.9063C761.555 39.9063 768.349 41.6432 774.377 45.1172C780.508 48.4889 785.259 53.24 788.631 59.3704C792.105 65.3987 793.842 72.1933 793.842 79.7541C793.842 87.315 792.105 94.1606 788.631 100.291C785.259 106.319 780.508 111.07 774.377 114.544C768.349 117.916 761.555 119.602 753.994 119.602ZM753.994 108.107C759.307 108.107 764.058 106.932 768.247 104.582C772.436 102.13 775.706 98.7585 778.056 94.4672C780.406 90.1759 781.581 85.2715 781.581 79.7541C781.581 74.2367 780.406 69.3324 778.056 65.0411C775.706 60.7498 772.436 57.4291 768.247 55.0791C764.058 52.6269 759.307 51.4009 753.994 51.4009C748.681 51.4009 743.93 52.6269 739.74 55.0791C735.551 57.4291 732.282 60.7498 729.932 65.0411C727.582 69.3324 726.407 74.2367 726.407 79.7541C726.407 85.2715 727.582 90.1759 729.932 94.4672C732.282 98.7585 735.551 102.13 739.74 104.582C743.93 106.932 748.681 108.107 753.994 108.107ZM845.89 119.602C838.329 119.602 831.484 117.916 825.353 114.544C819.325 111.07 814.574 106.319 811.1 100.291C807.728 94.1606 806.042 87.315 806.042 79.7541C806.042 72.1933 807.728 65.3987 811.1 59.3704C814.574 53.24 819.325 48.4889 825.353 45.1172C831.484 41.6432 838.329 39.9063 845.89 39.9063C853.451 39.9063 860.246 41.6432 866.274 45.1172C872.404 48.4889 877.156 53.24 880.527 59.3704C884.001 65.3987 885.738 72.1933 885.738 79.7541C885.738 87.315 884.001 94.1606 880.527 100.291C877.156 106.319 872.404 111.07 866.274 114.544C860.246 117.916 853.451 119.602 845.89 119.602ZM845.89 108.107C851.203 108.107 855.954 106.932 860.144 104.582C864.333 102.13 867.602 98.7585 869.952 94.4672C872.302 90.1759 873.477 85.2715 873.477 79.7541C873.477 74.2367 872.302 69.3324 869.952 65.0411C867.602 60.7498 864.333 57.4291 860.144 55.0791C855.954 52.6269 851.203 51.4009 845.89 51.4009C840.577 51.4009 835.826 52.6269 831.637 55.0791C827.448 57.4291 824.178 60.7498 821.828 65.0411C819.478 69.3324 818.303 74.2367 818.303 79.7541C818.303 85.2715 819.478 90.1759 821.828 94.4672C824.178 98.7585 827.448 102.13 831.637 104.582C835.826 106.932 840.577 108.107 845.89 108.107ZM902.537 118.069V41.4389H914.798V52.9335H914.951C917.301 49.2552 920.673 46.19 925.066 43.7378C929.562 41.1835 934.824 39.9063 940.852 39.9063C950.15 39.9063 957.558 42.8693 963.075 48.7954C968.695 54.6193 971.504 62.64 971.504 72.8574V118.069H959.244V73.6237C959.244 66.165 957.404 60.5965 953.726 56.9182C950.048 53.24 944.99 51.4009 938.553 51.4009C933.955 51.4009 929.868 52.4737 926.292 54.6193C922.716 56.6628 919.907 59.6259 917.863 63.5085C915.82 67.2889 914.798 71.6824 914.798 76.6889V118.069H902.537Z" fill="url(#paint0_radial_230_1198)"/>
<mask id="path-2-outside-1_230_1198" maskUnits="userSpaceOnUse" x="11" y="-1.28711" width="952" height="143" fill="black">
<rect fill="white" x="11" y="-1.28711" width="952" height="143"/>
<path d="M68.3765 113.778C57.7504 113.778 48.1972 111.377 39.7167 106.575C31.2363 101.67 24.5439 94.927 19.6396 86.3444C14.8374 77.6596 12.4363 67.902 12.4363 57.0716C12.4363 46.2411 14.8374 36.5346 19.6396 27.952C24.5439 19.2672 31.2363 12.5238 39.7167 7.72158C48.1972 2.81724 57.7504 0.365064 68.3765 0.365064C78.083 0.365064 86.5635 2.2042 93.8178 5.88246C101.174 9.56072 107.049 14.3629 111.443 20.289C115.938 26.1129 119.208 32.4988 121.252 39.4466H107.458C104.699 32.1922 99.9993 26.0618 93.358 21.0553C86.7167 15.9466 78.3896 13.3922 68.3765 13.3922C60.3048 13.3922 53.0504 15.2314 46.6135 18.9096C40.1765 22.5879 35.17 27.7477 31.5939 34.389C28.0178 40.9281 26.2298 48.489 26.2298 57.0716C26.2298 65.6542 28.0178 73.2662 31.5939 79.9075C35.17 86.4466 40.1765 91.5553 46.6135 95.2335C53.0504 98.9118 60.3048 100.751 68.3765 100.751C78.6961 100.751 87.2276 97.9922 93.9711 92.4748C100.715 86.9575 105.466 80.2651 108.224 72.3977H122.018C119.77 79.652 116.296 86.4466 111.596 92.7814C106.998 99.014 101.021 104.072 93.6646 107.954C86.4102 111.837 77.9809 113.778 68.3765 113.778ZM174.097 112.245C166.536 112.245 159.69 110.56 153.56 107.188C147.531 103.714 142.78 98.9629 139.306 92.9346C135.935 86.8042 134.249 79.9585 134.249 72.3977C134.249 64.8368 135.935 58.0422 139.306 52.014C142.78 45.8835 147.531 41.1325 153.56 37.7607C159.69 34.2868 166.536 32.5498 174.097 32.5498C181.657 32.5498 188.452 34.2868 194.48 37.7607C200.611 41.1325 205.362 45.8835 208.734 52.014C212.207 58.0422 213.944 64.8368 213.944 72.3977C213.944 79.9585 212.207 86.8042 208.734 92.9346C205.362 98.9629 200.611 103.714 194.48 107.188C188.452 110.56 181.657 112.245 174.097 112.245ZM174.097 100.751C179.41 100.751 184.161 99.5759 188.35 97.2259C192.539 94.7738 195.809 91.402 198.159 87.1107C200.509 82.8194 201.684 77.9151 201.684 72.3977C201.684 66.8803 200.509 61.9759 198.159 57.6846C195.809 53.3933 192.539 50.0727 188.35 47.7227C184.161 45.2705 179.41 44.0444 174.097 44.0444C168.784 44.0444 164.032 45.2705 159.843 47.7227C155.654 50.0727 152.385 53.3933 150.035 57.6846C147.685 61.9759 146.51 66.8803 146.51 72.3977C146.51 77.9151 147.685 82.8194 150.035 87.1107C152.385 91.402 155.654 94.7738 159.843 97.2259C164.032 99.5759 168.784 100.751 174.097 100.751ZM230.743 110.713V34.0825H243.004V45.577H243.157C245.303 41.8988 248.521 38.8335 252.813 36.3814C257.104 33.827 262.264 32.5498 268.292 32.5498C274.32 32.5498 279.429 34.0314 283.618 36.9944C287.807 39.9575 290.873 43.5846 292.814 47.8759H293.58C296.032 43.5846 299.66 39.9575 304.462 36.9944C309.366 34.0314 315.19 32.5498 321.933 32.5498C327.349 32.5498 332.202 33.8781 336.493 36.5346C340.785 39.1911 344.156 43.0227 346.608 48.0292C349.061 52.9335 350.287 58.7575 350.287 65.5009V110.713H338.026V66.2672C338.026 59.2172 336.34 53.7509 332.968 49.8683C329.596 45.9857 325.152 44.0444 319.635 44.0444C315.65 44.0444 311.869 45.1172 308.293 47.2629C304.717 49.4085 301.856 52.3205 299.711 55.9988C297.667 59.5748 296.645 63.5085 296.645 67.7998V110.713H284.385V66.2672C284.385 59.2172 282.699 53.7509 279.327 49.8683C275.955 45.9857 271.511 44.0444 265.993 44.0444C262.008 44.0444 258.228 45.1172 254.652 47.2629C251.076 49.4085 248.215 52.3205 246.069 55.9988C244.026 59.5748 243.004 63.5085 243.004 67.7998V110.713H230.743ZM370.983 110.713V34.0825H383.244V110.713H370.983ZM377.113 19.5227C374.866 19.5227 372.873 18.7053 371.136 17.0705C369.501 15.3335 368.684 13.3412 368.684 11.0933C368.684 8.74332 369.501 6.75093 371.136 5.11615C372.873 3.48137 374.866 2.66397 377.113 2.66397C379.463 2.66397 381.456 3.48137 383.091 5.11615C384.725 6.75093 385.543 8.74332 385.543 11.0933C385.543 13.3412 384.725 15.3335 383.091 17.0705C381.456 18.7053 379.463 19.5227 377.113 19.5227ZM404.658 110.713V34.0825H416.919V45.577H417.073C419.423 41.8988 422.794 38.8335 427.188 36.3814C431.683 33.827 436.945 32.5498 442.974 32.5498C452.271 32.5498 459.679 35.5129 465.196 41.439C470.816 47.2629 473.626 55.2835 473.626 65.5009V110.713H461.365V66.2672C461.365 58.8085 459.526 53.2401 455.848 49.5618C452.169 45.8835 447.112 44.0444 440.675 44.0444C436.077 44.0444 431.99 45.1172 428.414 47.2629C424.838 49.3064 422.028 52.2694 419.984 56.152C417.941 59.9325 416.919 64.3259 416.919 69.3325V110.713H404.658ZM500.44 139.832V128.338H554.082V98.452H553.928C553.928 98.8607 552.856 100.24 550.71 102.59C548.564 104.94 545.448 107.137 541.361 109.18C537.376 111.224 532.421 112.245 526.495 112.245C519.853 112.245 513.723 110.509 508.103 107.035C502.484 103.561 497.988 98.8096 494.617 92.7814C491.347 86.6509 489.712 79.8564 489.712 72.3977C489.712 64.939 491.347 58.1955 494.617 52.1672C497.988 46.0368 502.484 41.2346 508.103 37.7607C513.723 34.2868 519.853 32.5498 526.495 32.5498C532.421 32.5498 537.376 33.5716 541.361 35.6151C545.448 37.6585 548.564 39.8553 550.71 42.2053C552.856 44.5553 553.928 45.9346 553.928 46.3433H554.082V34.0825H566.343V139.832H500.44ZM528.027 100.751C532.83 100.751 537.223 99.5759 541.208 97.2259C545.193 94.7738 548.309 91.402 550.557 87.1107C552.907 82.8194 554.082 77.9151 554.082 72.3977C554.082 66.8803 552.907 61.9759 550.557 57.6846C548.309 53.3933 545.193 50.0727 541.208 47.7227C537.223 45.2705 532.83 44.0444 528.027 44.0444C523.225 44.0444 518.832 45.2705 514.847 47.7227C510.862 50.0727 507.695 53.3933 505.345 57.6846C503.097 61.9759 501.973 66.8803 501.973 72.3977C501.973 77.9151 503.097 82.8194 505.345 87.1107C507.695 91.402 510.862 94.7738 514.847 97.2259C518.832 99.5759 523.225 100.751 528.027 100.751ZM660.694 112.245C654.053 112.245 648.28 111.07 643.375 108.72C638.471 106.268 634.537 103.152 631.574 99.3716C628.713 95.5912 626.67 91.4531 625.444 86.9575H638.471C640.004 90.8401 642.66 94.1096 646.441 96.7662C650.221 99.4227 654.972 100.751 660.694 100.751C667.233 100.751 672.035 99.6781 675.1 97.5325C678.268 95.3868 679.851 92.6281 679.851 89.2564C679.851 87.1107 678.983 85.3738 677.246 84.0455C675.611 82.6151 673.466 81.4912 670.809 80.6738C668.255 79.7542 664.679 78.7835 660.081 77.7618C653.644 76.3314 648.382 74.8498 644.295 73.3172C640.208 71.7846 636.683 69.4857 633.72 66.4205C630.757 63.3553 629.275 59.2172 629.275 54.0064C629.275 50.1238 630.399 46.5477 632.647 43.2781C634.895 40.0085 638.216 37.4031 642.609 35.4618C647.003 33.5205 652.264 32.5498 658.395 32.5498C667.693 32.5498 675.1 34.7977 680.618 39.2933C686.135 43.6868 689.711 49.102 691.346 55.539H678.319C676.991 52.3716 674.641 49.664 671.269 47.4162C667.999 45.1683 663.708 44.0444 658.395 44.0444C654.819 44.0444 651.754 44.5553 649.199 45.577C646.645 46.4966 644.704 47.7227 643.375 49.2553C642.149 50.7879 641.536 52.3716 641.536 54.0064C641.536 56.152 642.354 57.9401 643.988 59.3705C645.725 60.6988 647.871 61.8227 650.425 62.7422C653.082 63.5596 656.709 64.4792 661.307 65.5009C667.744 66.9314 673.006 68.4129 677.093 69.9455C681.18 71.4781 684.705 73.777 687.668 76.8422C690.631 79.9075 692.112 84.0455 692.112 89.2564C692.112 93.4455 690.886 97.277 688.434 100.751C686.084 104.225 682.508 107.035 677.706 109.18C673.006 111.224 667.335 112.245 660.694 112.245ZM744.185 112.245C736.624 112.245 729.779 110.56 723.648 107.188C717.62 103.714 712.869 98.9629 709.395 92.9346C706.023 86.8042 704.337 79.9585 704.337 72.3977C704.337 64.8368 706.023 58.0422 709.395 52.014C712.869 45.8835 717.62 41.1325 723.648 37.7607C729.779 34.2868 736.624 32.5498 744.185 32.5498C751.746 32.5498 758.541 34.2868 764.569 37.7607C770.699 41.1325 775.45 45.8835 778.822 52.014C782.296 58.0422 784.033 64.8368 784.033 72.3977C784.033 79.9585 782.296 86.8042 778.822 92.9346C775.45 98.9629 770.699 103.714 764.569 107.188C758.541 110.56 751.746 112.245 744.185 112.245ZM744.185 100.751C749.498 100.751 754.249 99.5759 758.438 97.2259C762.627 94.7738 765.897 91.402 768.247 87.1107C770.597 82.8194 771.772 77.9151 771.772 72.3977C771.772 66.8803 770.597 61.9759 768.247 57.6846C765.897 53.3933 762.627 50.0727 758.438 47.7227C754.249 45.2705 749.498 44.0444 744.185 44.0444C738.872 44.0444 734.121 45.2705 729.932 47.7227C725.743 50.0727 722.473 53.3933 720.123 57.6846C717.773 61.9759 716.598 66.8803 716.598 72.3977C716.598 77.9151 717.773 82.8194 720.123 87.1107C722.473 91.402 725.743 94.7738 729.932 97.2259C734.121 99.5759 738.872 100.751 744.185 100.751ZM836.082 112.245C828.521 112.245 821.675 110.56 815.545 107.188C809.516 103.714 804.765 98.9629 801.291 92.9346C797.92 86.8042 796.234 79.9585 796.234 72.3977C796.234 64.8368 797.92 58.0422 801.291 52.014C804.765 45.8835 809.516 41.1325 815.545 37.7607C821.675 34.2868 828.521 32.5498 836.082 32.5498C843.643 32.5498 850.437 34.2868 856.465 37.7607C862.596 41.1325 867.347 45.8835 870.719 52.014C874.193 58.0422 875.93 64.8368 875.93 72.3977C875.93 79.9585 874.193 86.8042 870.719 92.9346C867.347 98.9629 862.596 103.714 856.465 107.188C850.437 110.56 843.643 112.245 836.082 112.245ZM836.082 100.751C841.395 100.751 846.146 99.5759 850.335 97.2259C854.524 94.7738 857.794 91.402 860.144 87.1107C862.494 82.8194 863.669 77.9151 863.669 72.3977C863.669 66.8803 862.494 61.9759 860.144 57.6846C857.794 53.3933 854.524 50.0727 850.335 47.7227C846.146 45.2705 841.395 44.0444 836.082 44.0444C830.769 44.0444 826.018 45.2705 821.828 47.7227C817.639 50.0727 814.37 53.3933 812.02 57.6846C809.67 61.9759 808.495 66.8803 808.495 72.3977C808.495 77.9151 809.67 82.8194 812.02 87.1107C814.37 91.402 817.639 94.7738 821.828 97.2259C826.018 99.5759 830.769 100.751 836.082 100.751ZM892.728 110.713V34.0825H904.989V45.577H905.143C907.493 41.8988 910.864 38.8335 915.258 36.3814C919.753 33.827 925.015 32.5498 931.044 32.5498C940.341 32.5498 947.749 35.5129 953.266 41.439C958.886 47.2629 961.696 55.2835 961.696 65.5009V110.713H949.435V66.2672C949.435 58.8085 947.596 53.2401 943.918 49.5618C940.239 45.8835 935.182 44.0444 928.745 44.0444C924.147 44.0444 920.06 45.1172 916.484 47.2629C912.908 49.3064 910.098 52.2694 908.054 56.152C906.011 59.9325 904.989 64.3259 904.989 69.3325V110.713H892.728Z"/>
</mask>
<path d="M68.3765 113.778C57.7504 113.778 48.1972 111.377 39.7167 106.575C31.2363 101.67 24.5439 94.927 19.6396 86.3444C14.8374 77.6596 12.4363 67.902 12.4363 57.0716C12.4363 46.2411 14.8374 36.5346 19.6396 27.952C24.5439 19.2672 31.2363 12.5238 39.7167 7.72158C48.1972 2.81724 57.7504 0.365064 68.3765 0.365064C78.083 0.365064 86.5635 2.2042 93.8178 5.88246C101.174 9.56072 107.049 14.3629 111.443 20.289C115.938 26.1129 119.208 32.4988 121.252 39.4466H107.458C104.699 32.1922 99.9993 26.0618 93.358 21.0553C86.7167 15.9466 78.3896 13.3922 68.3765 13.3922C60.3048 13.3922 53.0504 15.2314 46.6135 18.9096C40.1765 22.5879 35.17 27.7477 31.5939 34.389C28.0178 40.9281 26.2298 48.489 26.2298 57.0716C26.2298 65.6542 28.0178 73.2662 31.5939 79.9075C35.17 86.4466 40.1765 91.5553 46.6135 95.2335C53.0504 98.9118 60.3048 100.751 68.3765 100.751C78.6961 100.751 87.2276 97.9922 93.9711 92.4748C100.715 86.9575 105.466 80.2651 108.224 72.3977H122.018C119.77 79.652 116.296 86.4466 111.596 92.7814C106.998 99.014 101.021 104.072 93.6646 107.954C86.4102 111.837 77.9809 113.778 68.3765 113.778ZM174.097 112.245C166.536 112.245 159.69 110.56 153.56 107.188C147.531 103.714 142.78 98.9629 139.306 92.9346C135.935 86.8042 134.249 79.9585 134.249 72.3977C134.249 64.8368 135.935 58.0422 139.306 52.014C142.78 45.8835 147.531 41.1325 153.56 37.7607C159.69 34.2868 166.536 32.5498 174.097 32.5498C181.657 32.5498 188.452 34.2868 194.48 37.7607C200.611 41.1325 205.362 45.8835 208.734 52.014C212.207 58.0422 213.944 64.8368 213.944 72.3977C213.944 79.9585 212.207 86.8042 208.734 92.9346C205.362 98.9629 200.611 103.714 194.48 107.188C188.452 110.56 181.657 112.245 174.097 112.245ZM174.097 100.751C179.41 100.751 184.161 99.5759 188.35 97.2259C192.539 94.7738 195.809 91.402 198.159 87.1107C200.509 82.8194 201.684 77.9151 201.684 72.3977C201.684 66.8803 200.509 61.9759 198.159 57.6846C195.809 53.3933 192.539 50.0727 188.35 47.7227C184.161 45.2705 179.41 44.0444 174.097 44.0444C168.784 44.0444 164.032 45.2705 159.843 47.7227C155.654 50.0727 152.385 53.3933 150.035 57.6846C147.685 61.9759 146.51 66.8803 146.51 72.3977C146.51 77.9151 147.685 82.8194 150.035 87.1107C152.385 91.402 155.654 94.7738 159.843 97.2259C164.032 99.5759 168.784 100.751 174.097 100.751ZM230.743 110.713V34.0825H243.004V45.577H243.157C245.303 41.8988 248.521 38.8335 252.813 36.3814C257.104 33.827 262.264 32.5498 268.292 32.5498C274.32 32.5498 279.429 34.0314 283.618 36.9944C287.807 39.9575 290.873 43.5846 292.814 47.8759H293.58C296.032 43.5846 299.66 39.9575 304.462 36.9944C309.366 34.0314 315.19 32.5498 321.933 32.5498C327.349 32.5498 332.202 33.8781 336.493 36.5346C340.785 39.1911 344.156 43.0227 346.608 48.0292C349.061 52.9335 350.287 58.7575 350.287 65.5009V110.713H338.026V66.2672C338.026 59.2172 336.34 53.7509 332.968 49.8683C329.596 45.9857 325.152 44.0444 319.635 44.0444C315.65 44.0444 311.869 45.1172 308.293 47.2629C304.717 49.4085 301.856 52.3205 299.711 55.9988C297.667 59.5748 296.645 63.5085 296.645 67.7998V110.713H284.385V66.2672C284.385 59.2172 282.699 53.7509 279.327 49.8683C275.955 45.9857 271.511 44.0444 265.993 44.0444C262.008 44.0444 258.228 45.1172 254.652 47.2629C251.076 49.4085 248.215 52.3205 246.069 55.9988C244.026 59.5748 243.004 63.5085 243.004 67.7998V110.713H230.743ZM370.983 110.713V34.0825H383.244V110.713H370.983ZM377.113 19.5227C374.866 19.5227 372.873 18.7053 371.136 17.0705C369.501 15.3335 368.684 13.3412 368.684 11.0933C368.684 8.74332 369.501 6.75093 371.136 5.11615C372.873 3.48137 374.866 2.66397 377.113 2.66397C379.463 2.66397 381.456 3.48137 383.091 5.11615C384.725 6.75093 385.543 8.74332 385.543 11.0933C385.543 13.3412 384.725 15.3335 383.091 17.0705C381.456 18.7053 379.463 19.5227 377.113 19.5227ZM404.658 110.713V34.0825H416.919V45.577H417.073C419.423 41.8988 422.794 38.8335 427.188 36.3814C431.683 33.827 436.945 32.5498 442.974 32.5498C452.271 32.5498 459.679 35.5129 465.196 41.439C470.816 47.2629 473.626 55.2835 473.626 65.5009V110.713H461.365V66.2672C461.365 58.8085 459.526 53.2401 455.848 49.5618C452.169 45.8835 447.112 44.0444 440.675 44.0444C436.077 44.0444 431.99 45.1172 428.414 47.2629C424.838 49.3064 422.028 52.2694 419.984 56.152C417.941 59.9325 416.919 64.3259 416.919 69.3325V110.713H404.658ZM500.44 139.832V128.338H554.082V98.452H553.928C553.928 98.8607 552.856 100.24 550.71 102.59C548.564 104.94 545.448 107.137 541.361 109.18C537.376 111.224 532.421 112.245 526.495 112.245C519.853 112.245 513.723 110.509 508.103 107.035C502.484 103.561 497.988 98.8096 494.617 92.7814C491.347 86.6509 489.712 79.8564 489.712 72.3977C489.712 64.939 491.347 58.1955 494.617 52.1672C497.988 46.0368 502.484 41.2346 508.103 37.7607C513.723 34.2868 519.853 32.5498 526.495 32.5498C532.421 32.5498 537.376 33.5716 541.361 35.6151C545.448 37.6585 548.564 39.8553 550.71 42.2053C552.856 44.5553 553.928 45.9346 553.928 46.3433H554.082V34.0825H566.343V139.832H500.44ZM528.027 100.751C532.83 100.751 537.223 99.5759 541.208 97.2259C545.193 94.7738 548.309 91.402 550.557 87.1107C552.907 82.8194 554.082 77.9151 554.082 72.3977C554.082 66.8803 552.907 61.9759 550.557 57.6846C548.309 53.3933 545.193 50.0727 541.208 47.7227C537.223 45.2705 532.83 44.0444 528.027 44.0444C523.225 44.0444 518.832 45.2705 514.847 47.7227C510.862 50.0727 507.695 53.3933 505.345 57.6846C503.097 61.9759 501.973 66.8803 501.973 72.3977C501.973 77.9151 503.097 82.8194 505.345 87.1107C507.695 91.402 510.862 94.7738 514.847 97.2259C518.832 99.5759 523.225 100.751 528.027 100.751ZM660.694 112.245C654.053 112.245 648.28 111.07 643.375 108.72C638.471 106.268 634.537 103.152 631.574 99.3716C628.713 95.5912 626.67 91.4531 625.444 86.9575H638.471C640.004 90.8401 642.66 94.1096 646.441 96.7662C650.221 99.4227 654.972 100.751 660.694 100.751C667.233 100.751 672.035 99.6781 675.1 97.5325C678.268 95.3868 679.851 92.6281 679.851 89.2564C679.851 87.1107 678.983 85.3738 677.246 84.0455C675.611 82.6151 673.466 81.4912 670.809 80.6738C668.255 79.7542 664.679 78.7835 660.081 77.7618C653.644 76.3314 648.382 74.8498 644.295 73.3172C640.208 71.7846 636.683 69.4857 633.72 66.4205C630.757 63.3553 629.275 59.2172 629.275 54.0064C629.275 50.1238 630.399 46.5477 632.647 43.2781C634.895 40.0085 638.216 37.4031 642.609 35.4618C647.003 33.5205 652.264 32.5498 658.395 32.5498C667.693 32.5498 675.1 34.7977 680.618 39.2933C686.135 43.6868 689.711 49.102 691.346 55.539H678.319C676.991 52.3716 674.641 49.664 671.269 47.4162C667.999 45.1683 663.708 44.0444 658.395 44.0444C654.819 44.0444 651.754 44.5553 649.199 45.577C646.645 46.4966 644.704 47.7227 643.375 49.2553C642.149 50.7879 641.536 52.3716 641.536 54.0064C641.536 56.152 642.354 57.9401 643.988 59.3705C645.725 60.6988 647.871 61.8227 650.425 62.7422C653.082 63.5596 656.709 64.4792 661.307 65.5009C667.744 66.9314 673.006 68.4129 677.093 69.9455C681.18 71.4781 684.705 73.777 687.668 76.8422C690.631 79.9075 692.112 84.0455 692.112 89.2564C692.112 93.4455 690.886 97.277 688.434 100.751C686.084 104.225 682.508 107.035 677.706 109.18C673.006 111.224 667.335 112.245 660.694 112.245ZM744.185 112.245C736.624 112.245 729.779 110.56 723.648 107.188C717.62 103.714 712.869 98.9629 709.395 92.9346C706.023 86.8042 704.337 79.9585 704.337 72.3977C704.337 64.8368 706.023 58.0422 709.395 52.014C712.869 45.8835 717.62 41.1325 723.648 37.7607C729.779 34.2868 736.624 32.5498 744.185 32.5498C751.746 32.5498 758.541 34.2868 764.569 37.7607C770.699 41.1325 775.45 45.8835 778.822 52.014C782.296 58.0422 784.033 64.8368 784.033 72.3977C784.033 79.9585 782.296 86.8042 778.822 92.9346C775.45 98.9629 770.699 103.714 764.569 107.188C758.541 110.56 751.746 112.245 744.185 112.245ZM744.185 100.751C749.498 100.751 754.249 99.5759 758.438 97.2259C762.627 94.7738 765.897 91.402 768.247 87.1107C770.597 82.8194 771.772 77.9151 771.772 72.3977C771.772 66.8803 770.597 61.9759 768.247 57.6846C765.897 53.3933 762.627 50.0727 758.438 47.7227C754.249 45.2705 749.498 44.0444 744.185 44.0444C738.872 44.0444 734.121 45.2705 729.932 47.7227C725.743 50.0727 722.473 53.3933 720.123 57.6846C717.773 61.9759 716.598 66.8803 716.598 72.3977C716.598 77.9151 717.773 82.8194 720.123 87.1107C722.473 91.402 725.743 94.7738 729.932 97.2259C734.121 99.5759 738.872 100.751 744.185 100.751ZM836.082 112.245C828.521 112.245 821.675 110.56 815.545 107.188C809.516 103.714 804.765 98.9629 801.291 92.9346C797.92 86.8042 796.234 79.9585 796.234 72.3977C796.234 64.8368 797.92 58.0422 801.291 52.014C804.765 45.8835 809.516 41.1325 815.545 37.7607C821.675 34.2868 828.521 32.5498 836.082 32.5498C843.643 32.5498 850.437 34.2868 856.465 37.7607C862.596 41.1325 867.347 45.8835 870.719 52.014C874.193 58.0422 875.93 64.8368 875.93 72.3977C875.93 79.9585 874.193 86.8042 870.719 92.9346C867.347 98.9629 862.596 103.714 856.465 107.188C850.437 110.56 843.643 112.245 836.082 112.245ZM836.082 100.751C841.395 100.751 846.146 99.5759 850.335 97.2259C854.524 94.7738 857.794 91.402 860.144 87.1107C862.494 82.8194 863.669 77.9151 863.669 72.3977C863.669 66.8803 862.494 61.9759 860.144 57.6846C857.794 53.3933 854.524 50.0727 850.335 47.7227C846.146 45.2705 841.395 44.0444 836.082 44.0444C830.769 44.0444 826.018 45.2705 821.828 47.7227C817.639 50.0727 814.37 53.3933 812.02 57.6846C809.67 61.9759 808.495 66.8803 808.495 72.3977C808.495 77.9151 809.67 82.8194 812.02 87.1107C814.37 91.402 817.639 94.7738 821.828 97.2259C826.018 99.5759 830.769 100.751 836.082 100.751ZM892.728 110.713V34.0825H904.989V45.577H905.143C907.493 41.8988 910.864 38.8335 915.258 36.3814C919.753 33.827 925.015 32.5498 931.044 32.5498C940.341 32.5498 947.749 35.5129 953.266 41.439C958.886 47.2629 961.696 55.2835 961.696 65.5009V110.713H949.435V66.2672C949.435 58.8085 947.596 53.2401 943.918 49.5618C940.239 45.8835 935.182 44.0444 928.745 44.0444C924.147 44.0444 920.06 45.1172 916.484 47.2629C912.908 49.3064 910.098 52.2694 908.054 56.152C906.011 59.9325 904.989 64.3259 904.989 69.3325V110.713H892.728Z" fill="white"/>
<path d="M39.7167 106.575L39.2161 107.441L39.224 107.445L39.7167 106.575ZM19.6396 86.3444L18.7643 86.8284L18.7713 86.8406L19.6396 86.3444ZM19.6396 27.952L18.7688 27.4603L18.7669 27.4637L19.6396 27.952ZM39.7167 7.72158L40.2095 8.59179L40.2174 8.58725L39.7167 7.72158ZM93.8178 5.88246L93.3656 6.77437L93.3706 6.77688L93.8178 5.88246ZM111.443 20.289L110.64 20.8845L110.645 20.8923L110.651 20.9L111.443 20.289ZM121.252 39.4466V40.4466H122.588L122.211 39.1644L121.252 39.4466ZM107.458 39.4466L106.523 39.802L106.768 40.4466H107.458V39.4466ZM93.358 21.0553L92.7483 21.8479L92.7561 21.8538L93.358 21.0553ZM46.6135 18.9096L46.1173 18.0414V18.0414L46.6135 18.9096ZM31.5939 34.389L32.4713 34.8688L32.4744 34.8631L31.5939 34.389ZM31.5939 79.9075L30.7134 80.3816L30.7165 80.3873L31.5939 79.9075ZM46.6135 95.2335L46.1173 96.1018L46.6135 95.2335ZM93.9711 92.4748L94.6043 93.2488L93.9711 92.4748ZM108.224 72.3977V71.3977H107.515L107.281 72.0668L108.224 72.3977ZM122.018 72.3977L122.973 72.6936L123.375 71.3977H122.018V72.3977ZM111.596 92.7814L110.793 92.1855L110.791 92.1877L111.596 92.7814ZM93.6646 107.954L93.1978 107.07L93.1927 107.073L93.6646 107.954ZM68.3765 112.778C57.9071 112.778 48.5263 110.414 40.2095 105.705L39.224 107.445C47.8681 112.34 57.5938 114.778 68.3765 114.778V112.778ZM40.2174 105.709C31.8914 100.894 25.3253 94.2788 20.5078 85.8483L18.7713 86.8406C23.7625 95.5752 30.5812 102.447 39.2161 107.441L40.2174 105.709ZM20.5147 85.8605C15.8018 77.3372 13.4363 67.7486 13.4363 57.0716H11.4363C11.4363 68.0554 13.873 77.9821 18.7644 86.8283L20.5147 85.8605ZM13.4363 57.0716C13.4363 46.3944 15.8018 36.859 20.5122 28.4403L18.7669 27.4637C13.873 36.2103 11.4363 46.0879 11.4363 57.0716H13.4363ZM20.5103 28.4437C25.3276 19.9132 31.8909 13.3023 40.2095 8.59175L39.224 6.85141C30.5817 11.7453 23.7602 18.6213 18.7688 27.4603L20.5103 28.4437ZM40.2174 8.58725C48.5329 3.77828 57.9109 1.36506 68.3765 1.36506V-0.634936C57.59 -0.634936 47.8615 1.85619 39.2161 6.85592L40.2174 8.58725ZM68.3765 1.36506C77.956 1.36506 86.276 3.17965 93.3656 6.77436L94.27 4.99056C86.8509 1.22874 78.21 -0.634936 68.3765 -0.634936V1.36506ZM93.3706 6.77688C100.603 10.3931 106.35 15.0986 110.64 20.8845L112.246 19.6934C107.749 13.6272 101.746 8.72838 94.265 4.98803L93.3706 6.77688ZM110.651 20.9C115.072 26.6273 118.284 32.9019 120.292 39.7288L122.211 39.1644C120.132 32.0956 116.805 25.5985 112.234 19.6779L110.651 20.9ZM121.252 38.4466H107.458V40.4466H121.252V38.4466ZM108.393 39.0911C105.562 31.648 100.74 25.3682 93.96 20.2568L92.7561 21.8538C99.2582 26.7554 103.836 32.7365 106.523 39.802L108.393 39.0911ZM93.9677 20.2627C87.1194 14.9947 78.5657 12.3922 68.3765 12.3922V14.3922C78.2134 14.3922 86.314 16.8985 92.7483 21.8479L93.9677 20.2627ZM68.3765 12.3922C60.1466 12.3922 52.7186 14.2692 46.1173 18.0414L47.1096 19.7779C53.3822 16.1935 60.4629 14.3922 68.3765 14.3922V12.3922ZM46.1173 18.0414C39.5149 21.8142 34.3766 27.1119 30.7134 33.9149L32.4744 34.8631C35.9634 28.3835 40.8381 23.3616 47.1096 19.7779L46.1173 18.0414ZM30.7165 33.9092C27.0485 40.6164 25.2298 48.3469 25.2298 57.0716H27.2298C27.2298 48.631 28.9871 41.2398 32.4713 34.8688L30.7165 33.9092ZM25.2298 57.0716C25.2298 65.7966 27.0486 73.5755 30.7134 80.3816L32.4744 79.4334C28.987 72.9568 27.2298 65.5118 27.2298 57.0716H25.2298ZM30.7165 80.3873C34.3808 87.0877 39.5189 92.3313 46.1173 96.1018L47.1096 94.3653C40.8341 90.7793 35.9591 85.8055 32.4713 79.4276L30.7165 80.3873ZM46.1173 96.1018C52.7186 99.8739 60.1466 101.751 68.3765 101.751V99.7509C60.4629 99.7509 53.3822 97.9497 47.1096 94.3653L46.1173 96.1018ZM68.3765 101.751C78.8825 101.751 87.6506 98.9382 94.6043 93.2488L93.3378 91.7009C86.8046 97.0462 78.5097 99.7509 68.3765 99.7509V101.751ZM94.6043 93.2488C101.483 87.6205 106.346 80.7774 109.168 72.7286L107.281 72.0668C104.586 79.7528 99.9458 86.2944 93.3378 91.7009L94.6043 93.2488ZM108.224 73.3977H122.018V71.3977H108.224V73.3977ZM121.063 72.1017C118.849 79.2441 115.428 85.9379 110.793 92.1855L112.399 93.3772C117.164 86.9553 120.69 80.06 122.973 72.6936L121.063 72.1017ZM110.791 92.1877C106.289 98.2904 100.431 103.252 93.1978 107.07L94.1313 108.839C101.611 104.891 107.707 99.7376 112.401 93.375L110.791 92.1877ZM93.1927 107.073C86.106 110.865 77.8438 112.778 68.3765 112.778V114.778C78.1179 114.778 86.7144 112.808 94.1364 108.836L93.1927 107.073ZM153.56 107.188L153.06 108.054L153.069 108.059L153.078 108.064L153.56 107.188ZM139.306 92.9346L138.43 93.4165L138.435 93.4253L138.44 93.4339L139.306 92.9346ZM139.306 52.014L138.436 51.521L138.434 51.5258L139.306 52.014ZM153.56 37.7607L154.048 38.6335L154.053 38.6307L153.56 37.7607ZM194.48 37.7607L193.981 38.6271L193.99 38.6321L193.998 38.6369L194.48 37.7607ZM208.734 52.014L207.857 52.4959L207.862 52.5046L207.867 52.5133L208.734 52.014ZM208.734 92.9346L207.863 92.4416L207.861 92.4465L208.734 92.9346ZM194.48 107.188L194.968 108.061L194.973 108.058L194.48 107.188ZM188.35 97.2259L188.839 98.0981L188.847 98.0936L188.855 98.089L188.35 97.2259ZM198.159 87.1107L197.281 86.6304L198.159 87.1107ZM188.35 47.7227L187.845 48.5857L187.853 48.5903L187.861 48.5948L188.35 47.7227ZM159.843 47.7227L160.333 48.5948L160.341 48.5903L160.348 48.5857L159.843 47.7227ZM150.035 87.1107L150.912 86.6304L150.035 87.1107ZM159.843 97.2259L159.338 98.089L159.346 98.0936L159.354 98.0981L159.843 97.2259ZM174.097 111.245C166.69 111.245 160.013 109.596 154.042 106.312L153.078 108.064C159.368 111.524 166.381 113.245 174.097 113.245V111.245ZM154.059 106.321C148.183 102.935 143.559 98.311 140.173 92.4353L138.44 93.4339C142.002 99.6148 146.88 104.492 153.06 108.054L154.059 106.321ZM140.183 92.4527C136.899 86.4817 135.249 79.804 135.249 72.3977H133.249C133.249 80.1131 134.971 87.1267 138.43 93.4165L140.183 92.4527ZM135.249 72.3977C135.249 64.9911 136.899 58.3674 140.179 52.5021L138.434 51.5258C134.971 57.7171 133.249 64.6825 133.249 72.3977H135.249ZM140.176 52.507C143.562 46.5323 148.182 41.9141 154.048 38.6335L153.071 36.888C146.88 40.3509 141.999 45.2348 138.436 51.521L140.176 52.507ZM154.053 38.6307C160.022 35.2482 166.695 33.5498 174.097 33.5498V31.5498C166.376 31.5498 159.358 33.3254 153.067 36.8907L154.053 38.6307ZM174.097 33.5498C181.498 33.5498 188.118 35.2482 193.981 38.6271L194.98 36.8943C188.786 33.3254 181.817 31.5498 174.097 31.5498V33.5498ZM193.998 38.6369C199.963 41.9173 204.577 46.5316 207.857 52.4959L209.61 51.5321C206.147 45.2355 201.259 40.3476 194.962 36.8845L193.998 38.6369ZM207.867 52.5133C211.246 58.3767 212.944 64.9964 212.944 72.3977H214.944C214.944 64.6772 213.169 57.7078 209.6 51.5147L207.867 52.5133ZM212.944 72.3977C212.944 79.7988 211.246 86.4725 207.864 92.4416L209.604 93.4276C213.169 87.1359 214.944 80.1183 214.944 72.3977H212.944ZM207.861 92.4465C204.58 98.3118 199.962 102.932 193.987 106.318L194.973 108.058C201.259 104.496 206.143 99.614 209.606 93.4228L207.861 92.4465ZM193.992 106.315C188.127 109.596 181.503 111.245 174.097 111.245V113.245C181.812 113.245 188.777 111.524 194.968 108.061L193.992 106.315ZM174.097 101.751C179.562 101.751 184.485 100.541 188.839 98.0981L187.861 96.3538C183.836 98.6113 179.257 99.7509 174.097 99.7509V101.751ZM188.855 98.089C193.202 95.5445 196.599 92.0399 199.036 87.591L197.281 86.6304C195.018 90.7641 191.876 94.003 187.845 96.3629L188.855 98.089ZM199.036 87.591C201.476 83.1345 202.684 78.0612 202.684 72.3977H200.684C200.684 77.769 199.541 82.5043 197.281 86.6304L199.036 87.591ZM202.684 72.3977C202.684 66.7342 201.476 61.6608 199.036 57.2043L197.281 58.1649C199.541 62.291 200.684 67.0264 200.684 72.3977H202.684ZM199.036 57.2043C196.597 52.7519 193.195 49.294 188.839 46.8505L187.861 48.5948C191.883 50.8513 195.02 54.0348 197.281 58.1649L199.036 57.2043ZM188.855 46.8597C184.498 44.3094 179.57 43.0444 174.097 43.0444V45.0444C179.249 45.0444 183.823 46.2316 187.845 48.5857L188.855 46.8597ZM174.097 43.0444C168.623 43.0444 163.695 44.3094 159.338 46.8597L160.348 48.5857C164.37 46.2316 168.944 45.0444 174.097 45.0444V43.0444ZM159.354 46.8505C154.998 49.294 151.596 52.7519 149.158 57.2043L150.912 58.1649C153.173 54.0348 156.31 50.8513 160.333 48.5948L159.354 46.8505ZM149.158 57.2043C146.717 61.6608 145.51 66.7342 145.51 72.3977H147.51C147.51 67.0264 148.652 62.291 150.912 58.1649L149.158 57.2043ZM145.51 72.3977C145.51 78.0612 146.717 83.1345 149.158 87.591L150.912 86.6304C148.652 82.5043 147.51 77.769 147.51 72.3977H145.51ZM149.158 87.591C151.594 92.0399 154.991 95.5445 159.338 98.089L160.348 96.3629C156.317 94.003 153.175 90.7641 150.912 86.6304L149.158 87.591ZM159.354 98.0981C163.708 100.541 168.631 101.751 174.097 101.751V99.7509C168.936 99.7509 164.357 98.6113 160.333 96.3538L159.354 98.0981ZM230.743 110.713H229.743V111.713H230.743V110.713ZM230.743 34.0825V33.0825H229.743V34.0825H230.743ZM243.004 34.0825H244.004V33.0825H243.004V34.0825ZM243.004 45.577H242.004V46.577H243.004V45.577ZM243.157 45.577V46.577H243.732L244.021 46.0809L243.157 45.577ZM252.813 36.3814L253.309 37.2496L253.317 37.2452L253.324 37.2407L252.813 36.3814ZM283.618 36.9944L284.196 36.178L283.618 36.9944ZM292.814 47.8759L291.903 48.2881L292.169 48.8759H292.814V47.8759ZM293.58 47.8759V48.8759H294.16L294.448 48.3721L293.58 47.8759ZM304.462 36.9944L303.945 36.1385L303.937 36.1434L304.462 36.9944ZM336.493 36.5346L335.967 37.3849L336.493 36.5346ZM346.608 48.0292L345.71 48.4691L345.714 48.4764L346.608 48.0292ZM350.287 110.713V111.713H351.287V110.713H350.287ZM338.026 110.713H337.026V111.713H338.026V110.713ZM332.968 49.8683L332.213 50.524L332.968 49.8683ZM308.293 47.2629L308.808 48.1204L308.293 47.2629ZM299.711 55.9988L298.847 55.4949L298.842 55.5026L299.711 55.9988ZM296.645 110.713V111.713H297.645V110.713H296.645ZM284.385 110.713H283.385V111.713H284.385V110.713ZM279.327 49.8683L280.082 49.2126L279.327 49.8683ZM254.652 47.2629L254.137 46.4054L254.652 47.2629ZM246.069 55.9988L245.205 55.4949L245.201 55.5026L246.069 55.9988ZM243.004 110.713V111.713H244.004V110.713H243.004ZM231.743 110.713V34.0825H229.743V110.713H231.743ZM230.743 35.0825H243.004V33.0825H230.743V35.0825ZM242.004 34.0825V45.577H244.004V34.0825H242.004ZM243.004 46.577H243.157V44.577H243.004V46.577ZM244.021 46.0809C246.065 42.5771 249.145 39.6288 253.309 37.2496L252.317 35.5131C247.898 38.0382 244.541 41.2204 242.294 45.0732L244.021 46.0809ZM253.324 37.2407C257.432 34.7958 262.407 33.5498 268.292 33.5498V31.5498C262.121 31.5498 256.777 32.8582 252.301 35.5221L253.324 37.2407ZM268.292 33.5498C274.151 33.5498 279.048 34.987 283.041 37.8108L284.196 36.178C279.81 33.0757 274.49 31.5498 268.292 31.5498V33.5498ZM283.041 37.8108C287.098 40.6807 290.041 44.1731 291.903 48.2881L293.725 47.4638C291.704 42.9961 288.517 39.2343 284.196 36.178L283.041 37.8108ZM292.814 48.8759H293.58V46.8759H292.814V48.8759ZM294.448 48.3721C296.807 44.2453 300.306 40.7333 304.987 37.8454L303.937 36.1434C299.013 39.1816 295.258 42.9239 292.712 47.3798L294.448 48.3721ZM304.979 37.8503C309.701 34.9971 315.34 33.5498 321.933 33.5498V31.5498C315.04 31.5498 309.031 33.0656 303.945 36.1385L304.979 37.8503ZM321.933 33.5498C327.177 33.5498 331.845 34.8334 335.967 37.3849L337.02 35.6844C332.559 32.9228 327.52 31.5498 321.933 31.5498V33.5498ZM335.967 37.3849C340.082 39.9321 343.332 43.6133 345.71 48.4691L347.507 47.5893C344.98 42.432 341.487 38.4502 337.02 35.6844L335.967 37.3849ZM345.714 48.4764C348.083 53.2136 349.287 58.8777 349.287 65.5009H351.287C351.287 58.6372 350.039 52.6535 347.503 47.582L345.714 48.4764ZM349.287 65.5009V110.713H351.287V65.5009H349.287ZM350.287 109.713H338.026V111.713H350.287V109.713ZM339.026 110.713V66.2672H337.026V110.713H339.026ZM339.026 66.2672C339.026 59.0659 337.303 53.335 333.723 49.2126L332.213 50.524C335.377 54.1669 337.026 59.3686 337.026 66.2672H339.026ZM333.723 49.2126C330.146 45.0939 325.418 43.0444 319.635 43.0444V45.0444C324.886 45.0444 329.047 46.8775 332.213 50.524L333.723 49.2126ZM319.635 43.0444C315.46 43.0444 311.503 44.171 307.779 46.4054L308.808 48.1204C312.236 46.0634 315.84 45.0444 319.635 45.0444V43.0444ZM307.779 46.4054C304.055 48.6395 301.075 51.6744 298.847 55.4949L300.574 56.5026C302.637 52.9666 305.379 50.1776 308.808 48.1204L307.779 46.4054ZM298.842 55.5026C296.709 59.2363 295.645 63.3421 295.645 67.7999H297.645C297.645 63.675 298.625 59.9134 300.579 56.4949L298.842 55.5026ZM295.645 67.7999V110.713H297.645V67.7999H295.645ZM296.645 109.713H284.385V111.713H296.645V109.713ZM285.385 110.713V66.2672H283.385V110.713H285.385ZM285.385 66.2672C285.385 59.0659 283.662 53.335 280.082 49.2126L278.572 50.524C281.735 54.1669 283.385 59.3686 283.385 66.2672H285.385ZM280.082 49.2126C276.505 45.0939 271.776 43.0444 265.993 43.0444V45.0444C271.245 45.0444 275.405 46.8775 278.572 50.524L280.082 49.2126ZM265.993 43.0444C261.819 43.0444 257.861 44.171 254.137 46.4054L255.166 48.1204C258.595 46.0634 262.198 45.0444 265.993 45.0444V43.0444ZM254.137 46.4054C250.414 48.6395 247.434 51.6744 245.206 55.4949L246.933 56.5026C248.996 52.9666 251.738 50.1776 255.166 48.1204L254.137 46.4054ZM245.201 55.5026C243.068 59.2363 242.004 63.3421 242.004 67.7999H244.004C244.004 63.675 244.984 59.9134 246.938 56.4949L245.201 55.5026ZM242.004 67.7999V110.713H244.004V67.7999H242.004ZM243.004 109.713H230.743V111.713H243.004V109.713ZM370.983 110.713H369.983V111.713H370.983V110.713ZM370.983 34.0825V33.0825H369.983V34.0825H370.983ZM383.244 34.0825H384.244V33.0825H383.244V34.0825ZM383.244 110.713V111.713H384.244V110.713H383.244ZM371.136 17.0705L370.408 17.7559L370.429 17.7779L370.451 17.7987L371.136 17.0705ZM371.136 5.11615L370.451 4.38795L370.44 4.39834L370.429 4.40905L371.136 5.11615ZM383.091 5.11615L382.383 5.82326V5.82326L383.091 5.11615ZM383.091 17.0705L383.798 17.7776L383.808 17.7669L383.819 17.7559L383.091 17.0705ZM371.983 110.713V34.0825H369.983V110.713H371.983ZM370.983 35.0825H383.244V33.0825H370.983V35.0825ZM382.244 34.0825V110.713H384.244V34.0825H382.244ZM383.244 109.713H370.983V111.713H383.244V109.713ZM377.113 18.5227C375.137 18.5227 373.385 17.8142 371.822 16.3423L370.451 17.7987C372.361 19.5963 374.594 20.5227 377.113 20.5227V18.5227ZM371.864 16.3851C370.392 14.8212 369.684 13.0698 369.684 11.0933H367.684C367.684 13.6125 368.61 15.8459 370.408 17.7559L371.864 16.3851ZM369.684 11.0933C369.684 9.00364 370.399 7.26707 371.843 5.82326L370.429 4.40905C368.603 6.2348 367.684 8.48301 367.684 11.0933H369.684ZM371.822 5.84435C373.385 4.37242 375.137 3.66397 377.113 3.66397V1.66397C374.594 1.66397 372.361 2.59032 370.451 4.38795L371.822 5.84435ZM377.113 3.66397C379.203 3.66397 380.94 4.37945 382.383 5.82326L383.798 4.40905C381.972 2.58329 379.724 1.66397 377.113 1.66397V3.66397ZM382.383 5.82326C383.827 7.26707 384.543 9.00364 384.543 11.0933H386.543C386.543 8.48301 385.623 6.2348 383.798 4.40905L382.383 5.82326ZM384.543 11.0933C384.543 13.0698 383.834 14.8212 382.362 16.3851L383.819 17.7559C385.616 15.8459 386.543 13.6125 386.543 11.0933H384.543ZM382.383 16.3634C380.94 17.8072 379.203 18.5227 377.113 18.5227V20.5227C379.724 20.5227 381.972 19.6034 383.798 17.7776L382.383 16.3634ZM404.658 110.713H403.658V111.713H404.658V110.713ZM404.658 34.0825V33.0825H403.658V34.0825H404.658ZM416.919 34.0825H417.919V33.0825H416.919V34.0825ZM416.919 45.577H415.919V46.577H416.919V45.577ZM417.073 45.577V46.577H417.62L417.915 46.1154L417.073 45.577ZM427.188 36.3814L427.675 37.2546L427.682 37.2508L427.188 36.3814ZM465.196 41.439L464.465 42.1204L464.471 42.1269L464.477 42.1333L465.196 41.439ZM473.626 110.713V111.713H474.626V110.713H473.626ZM461.365 110.713H460.365V111.713H461.365V110.713ZM455.848 49.5618L455.14 50.2689L455.848 49.5618ZM428.414 47.2629L428.91 48.1311L428.919 48.1259L428.928 48.1204L428.414 47.2629ZM419.984 56.152L420.864 56.6276L420.869 56.6178L419.984 56.152ZM416.919 110.713V111.713H417.919V110.713H416.919ZM405.658 110.713V34.0825H403.658V110.713H405.658ZM404.658 35.0825H416.919V33.0825H404.658V35.0825ZM415.919 34.0825V45.577H417.919V34.0825H415.919ZM416.919 46.577H417.073V44.577H416.919V46.577ZM417.915 46.1154C420.163 42.5963 423.404 39.6386 427.675 37.2546L426.7 35.5082C422.185 38.0285 418.682 41.2012 416.23 45.0386L417.915 46.1154ZM427.682 37.2508C432.003 34.7953 437.09 33.5498 442.974 33.5498V31.5498C436.801 31.5498 431.363 32.8587 426.694 35.5119L427.682 37.2508ZM442.974 33.5498C452.039 33.5498 459.165 36.4284 464.465 42.1204L465.928 40.7576C460.193 34.5974 452.504 31.5498 442.974 31.5498V33.5498ZM464.477 42.1333C469.872 47.7252 472.626 55.4714 472.626 65.5009H474.626C474.626 55.0957 471.759 46.8005 465.916 40.7446L464.477 42.1333ZM472.626 65.5009V110.713H474.626V65.5009H472.626ZM473.626 109.713H461.365V111.713H473.626V109.713ZM462.365 110.713V66.2672H460.365V110.713H462.365ZM462.365 66.2672C462.365 58.6591 460.489 52.789 456.555 48.8547L455.14 50.2689C458.563 53.6912 460.365 58.958 460.365 66.2672H462.365ZM456.555 48.8547C452.646 44.9465 447.31 43.0444 440.675 43.0444V45.0444C446.913 45.0444 451.692 46.8206 455.14 50.2689L456.555 48.8547ZM440.675 43.0444C435.915 43.0444 431.646 44.1571 427.899 46.4054L428.928 48.1204C432.333 46.0774 436.239 45.0444 440.675 45.0444V43.0444ZM427.918 46.3946C424.165 48.5388 421.226 51.6467 419.1 55.6863L420.869 56.6178C422.83 52.8921 425.51 50.0739 428.91 48.1311L427.918 46.3946ZM419.105 55.6765C416.97 59.6254 415.919 64.1874 415.919 69.3325H417.919C417.919 64.4644 418.912 60.2395 420.864 56.6275L419.105 55.6765ZM415.919 69.3325V110.713H417.919V69.3325H415.919ZM416.919 109.713H404.658V111.713H416.919V109.713ZM500.44 139.832H499.44V140.832H500.44V139.832ZM500.44 128.338V127.338H499.44V128.338H500.44ZM554.082 128.338V129.338H555.082V128.338H554.082ZM554.082 98.452H555.082V97.452H554.082V98.452ZM553.928 98.452V97.452H552.928V98.452H553.928ZM541.361 109.18L540.914 108.286L540.905 108.29L541.361 109.18ZM508.103 107.035L508.629 106.184L508.103 107.035ZM494.617 92.7814L493.734 93.252L493.739 93.2608L493.744 93.2695L494.617 92.7814ZM494.617 52.1672L493.74 51.6853L493.738 51.6905L494.617 52.1672ZM508.103 37.7607L508.629 38.6113L508.103 37.7607ZM541.361 35.6151L540.905 36.5049L540.914 36.5095L541.361 35.6151ZM553.928 46.3433H552.928V47.3433H553.928V46.3433ZM554.082 46.3433V47.3433H555.082V46.3433H554.082ZM554.082 34.0825V33.0825H553.082V34.0825H554.082ZM566.343 34.0825H567.343V33.0825H566.343V34.0825ZM566.343 139.832V140.832H567.343V139.832H566.343ZM541.208 97.2259L541.716 98.0873L541.724 98.0825L541.732 98.0776L541.208 97.2259ZM550.557 87.1107L549.68 86.6304L549.675 86.6385L549.671 86.6467L550.557 87.1107ZM550.557 57.6846L549.671 58.1486L549.675 58.1568L549.68 58.1649L550.557 57.6846ZM541.208 47.7227L540.684 48.5743L540.692 48.5793L540.7 48.584L541.208 47.7227ZM514.847 47.7227L515.355 48.584L515.363 48.5793L515.371 48.5743L514.847 47.7227ZM505.345 57.6846L504.468 57.2043L504.463 57.2124L504.459 57.2206L505.345 57.6846ZM505.345 87.1107L504.459 87.5747L504.463 87.5829L504.468 87.591L505.345 87.1107ZM514.847 97.2259L514.323 98.0776L514.331 98.0825L514.339 98.0873L514.847 97.2259ZM501.44 139.832V128.338H499.44V139.832H501.44ZM500.44 129.338H554.082V127.338H500.44V129.338ZM555.082 128.338V98.452H553.082V128.338H555.082ZM554.082 97.452H553.928V99.452H554.082V97.452ZM552.928 98.452C552.928 98.3106 552.968 98.2347 552.954 98.27C552.946 98.289 552.922 98.3389 552.87 98.426C552.766 98.5998 552.592 98.8479 552.335 99.1791C551.822 99.8377 551.038 100.747 549.972 101.916L551.448 103.264C552.527 102.083 553.353 101.128 553.913 100.407C554.192 100.049 554.421 99.7283 554.585 99.455C554.667 99.3187 554.744 99.1754 554.803 99.0315C554.855 98.904 554.928 98.6956 554.928 98.452H552.928ZM549.972 101.916C547.936 104.145 544.935 106.275 540.914 108.286L541.808 110.075C545.961 107.998 549.192 105.735 551.448 103.264L549.972 101.916ZM540.905 108.29C537.099 110.242 532.311 111.245 526.495 111.245V113.245C532.53 113.245 537.653 112.206 541.817 110.07L540.905 108.29ZM526.495 111.245C520.038 111.245 514.09 109.56 508.629 106.184L507.578 107.885C513.356 111.457 519.669 113.245 526.495 113.245V111.245ZM508.629 106.184C503.161 102.804 498.782 98.1801 495.489 92.2932L493.744 93.2695C497.195 99.4391 501.807 104.318 507.578 107.885L508.629 106.184ZM495.499 92.3108C492.312 86.3357 490.712 79.7046 490.712 72.3977H488.712C488.712 80.0081 490.382 86.9661 493.734 93.252L495.499 92.3108ZM490.712 72.3977C490.712 65.0905 492.312 58.5133 495.496 52.644L493.738 51.6905C490.382 57.8777 488.712 64.7874 488.712 72.3977H490.712ZM495.493 52.6492C498.786 46.6605 503.165 41.9892 508.629 38.6113L507.578 36.9101C501.803 40.4801 497.19 45.4131 493.74 51.6853L495.493 52.6492ZM508.629 38.6113C514.09 35.2356 520.038 33.5498 526.495 33.5498V31.5498C519.669 31.5498 513.356 33.338 507.578 36.9101L508.629 38.6113ZM526.495 33.5498C532.311 33.5498 537.099 34.5534 540.905 36.5049L541.817 34.7253C537.653 32.5898 532.53 31.5498 526.495 31.5498V33.5498ZM540.914 36.5095C544.935 38.52 547.936 40.6505 549.972 42.8796L551.448 41.531C549.192 39.0601 545.961 36.7971 541.808 34.7206L540.914 36.5095ZM549.972 42.8796C551.038 44.0481 551.822 44.9577 552.335 45.6162C552.592 45.9474 552.766 46.1955 552.87 46.3693C552.922 46.4565 552.946 46.5063 552.954 46.5253C552.968 46.5607 552.928 46.4847 552.928 46.3433H554.928C554.928 46.0998 554.855 45.8913 554.803 45.7638C554.744 45.62 554.667 45.4766 554.585 45.3403C554.421 45.0671 554.192 44.7468 553.913 44.3884C553.353 43.6676 552.527 42.7125 551.448 41.531L549.972 42.8796ZM553.928 47.3433H554.082V45.3433H553.928V47.3433ZM555.082 46.3433V34.0825H553.082V46.3433H555.082ZM554.082 35.0825H566.343V33.0825H554.082V35.0825ZM565.343 34.0825V139.832H567.343V34.0825H565.343ZM566.343 138.832H500.44V140.832H566.343V138.832ZM528.027 101.751C533.001 101.751 537.571 100.532 541.716 98.0873L540.7 96.3646C536.875 98.6203 532.658 99.7509 528.027 99.7509V101.751ZM541.732 98.0776C545.876 95.5277 549.114 92.0195 551.443 87.5747L549.671 86.6467C547.503 90.7845 544.51 94.0199 540.684 96.3743L541.732 98.0776ZM551.434 87.591C553.874 83.1345 555.082 78.0612 555.082 72.3977H553.082C553.082 77.769 551.939 82.5043 549.68 86.6304L551.434 87.591ZM555.082 72.3977C555.082 66.7342 553.874 61.6608 551.434 57.2043L549.68 58.1649C551.939 62.291 553.082 67.0264 553.082 72.3977H555.082ZM551.443 57.2206C549.113 52.7724 545.869 49.3105 541.716 46.8613L540.7 48.584C544.516 50.8348 547.505 54.0142 549.671 58.1486L551.443 57.2206ZM541.732 46.871C537.585 44.3192 533.01 43.0444 528.027 43.0444V45.0444C532.65 45.0444 536.861 46.2218 540.684 48.5743L541.732 46.871ZM528.027 43.0444C523.045 43.0444 518.47 44.3192 514.323 46.871L515.371 48.5743C519.194 46.2218 523.405 45.0444 528.027 45.0444V43.0444ZM514.339 46.8613C510.19 49.3081 506.899 52.7646 504.468 57.2043L506.222 58.1649C508.491 54.0221 511.534 50.8372 515.355 48.584L514.339 46.8613ZM504.459 57.2206C502.126 61.6739 500.973 66.7413 500.973 72.3977H502.973C502.973 67.0192 504.068 62.278 506.231 58.1486L504.459 57.2206ZM500.973 72.3977C500.973 78.054 502.126 83.1214 504.459 87.5747L506.231 86.6467C504.068 82.5174 502.973 77.7761 502.973 72.3977H500.973ZM504.468 87.591C506.897 92.0274 510.183 95.5302 514.323 98.0776L515.371 96.3743C511.541 94.0174 508.492 90.7766 506.222 86.6304L504.468 87.591ZM514.339 98.0873C518.484 100.532 523.054 101.751 528.027 101.751V99.7509C523.397 99.7509 519.18 98.6203 515.355 96.3646L514.339 98.0873ZM643.375 108.72L642.928 109.615L642.936 109.619L642.943 109.622L643.375 108.72ZM631.574 99.3716L630.777 99.975L630.782 99.9818L630.787 99.9885L631.574 99.3716ZM625.444 86.9575V85.9575H624.135L624.479 87.2206L625.444 86.9575ZM638.471 86.9575L639.401 86.5903L639.151 85.9575H638.471V86.9575ZM675.1 97.5325L674.539 96.7045L674.533 96.7088L674.527 96.7132L675.1 97.5325ZM677.246 84.0455L676.588 84.7981L676.612 84.8198L676.639 84.8399L677.246 84.0455ZM670.809 80.6738L670.47 81.6146L670.492 81.6226L670.515 81.6295L670.809 80.6738ZM660.081 77.7618L659.864 78.738L660.081 77.7618ZM644.295 73.3172L644.646 72.3809L644.295 73.3172ZM633.72 66.4205L633.001 67.1155L633.72 66.4205ZM642.609 35.4618L643.013 36.3765L642.609 35.4618ZM680.618 39.2933L679.986 40.0686L679.995 40.0756L680.618 39.2933ZM691.346 55.539V56.539H692.632L692.315 55.2928L691.346 55.539ZM678.319 55.539L677.397 55.9257L677.654 56.539H678.319V55.539ZM671.269 47.4161L670.702 48.2402L670.708 48.2442L670.714 48.2482L671.269 47.4161ZM649.199 45.577L649.538 46.5179L649.554 46.512L649.571 46.5055L649.199 45.577ZM643.375 49.2553L642.62 48.6003L642.607 48.6152L642.594 48.6306L643.375 49.2553ZM643.988 59.3705L643.33 60.1231L643.355 60.1448L643.381 60.1649L643.988 59.3705ZM650.425 62.7422L650.087 63.6831L650.109 63.6911L650.131 63.698L650.425 62.7422ZM661.307 65.5009L661.524 64.5247L661.307 65.5009ZM677.093 69.9455L676.742 70.8818L677.093 69.9455ZM687.668 76.8422L686.949 77.5373L687.668 76.8422ZM688.434 100.751L687.617 100.174L687.611 100.182L687.606 100.191L688.434 100.751ZM677.706 109.18L678.105 110.097L678.114 110.093L677.706 109.18ZM660.694 111.245C654.17 111.245 648.55 110.091 643.807 107.819L642.943 109.622C648.009 112.05 653.935 113.245 660.694 113.245V111.245ZM643.823 107.826C639.032 105.431 635.221 102.403 632.361 98.7547L630.787 99.9885C633.854 103.901 637.91 107.106 642.928 109.615L643.823 107.826ZM632.372 98.7681C629.586 95.0876 627.601 91.0647 626.409 86.6943L624.479 87.2206C625.739 91.8415 627.84 96.0947 630.777 99.975L632.372 98.7681ZM625.444 87.9575H638.471V85.9575H625.444V87.9575ZM637.541 87.3246C639.153 91.4082 641.943 94.8279 645.866 97.5843L647.016 95.948C643.377 93.3913 640.854 90.2719 639.401 86.5903L637.541 87.3246ZM645.866 97.5843C649.851 100.385 654.816 101.751 660.694 101.751V99.7509C655.128 99.7509 650.591 98.4605 647.016 95.948L645.866 97.5843ZM660.694 101.751C667.302 101.751 672.356 100.674 675.674 98.3517L674.527 96.7132C671.714 98.682 667.164 99.7509 660.694 99.7509V101.751ZM675.661 98.3604C679.06 96.0579 680.851 93.0087 680.851 89.2564H678.851C678.851 92.2475 677.475 94.7157 674.539 96.7045L675.661 98.3604ZM680.851 89.2564C680.851 86.7923 679.832 84.7644 677.853 83.2511L676.639 84.8399C678.134 85.9832 678.851 87.4291 678.851 89.2564H680.851ZM677.905 83.2929C676.139 81.7478 673.858 80.5656 671.103 79.718L670.515 81.6295C673.073 82.4167 675.084 83.4823 676.588 84.7981L677.905 83.2929ZM671.148 79.7329C668.535 78.7923 664.912 77.8109 660.298 76.7856L659.864 78.738C664.446 79.7562 667.974 80.7161 670.47 81.6146L671.148 79.7329ZM660.298 76.7856C653.886 75.3608 648.673 73.8911 644.646 72.3809L643.944 74.2536C648.091 75.8086 653.402 77.302 659.864 78.738L660.298 76.7856ZM644.646 72.3809C640.695 70.8991 637.296 68.6814 634.439 65.7255L633.001 67.1155C636.07 70.2901 639.721 72.6701 643.944 74.2536L644.646 72.3809ZM634.439 65.7255C631.695 62.8864 630.275 59.0189 630.275 54.0064H628.275C628.275 59.4156 629.819 63.8241 633.001 67.1155L634.439 65.7255ZM630.275 54.0064C630.275 50.3307 631.335 46.9514 633.471 43.8446L631.823 42.7116C629.463 46.1439 628.275 49.9168 628.275 54.0064H630.275ZM633.471 43.8446C635.594 40.7571 638.753 38.2587 643.013 36.3765L642.205 34.5471C637.678 36.5475 634.196 39.2599 631.823 42.7116L633.471 43.8446ZM643.013 36.3765C647.249 34.5047 652.367 33.5498 658.395 33.5498V31.5498C652.162 31.5498 646.756 32.5363 642.205 34.5471L643.013 36.3765ZM658.395 33.5498C667.534 33.5498 674.695 35.7577 679.986 40.0686L681.249 38.5181C675.505 33.8376 667.852 31.5498 658.395 31.5498V33.5498ZM679.995 40.0756C685.353 44.342 688.799 49.5735 690.377 55.7851L692.315 55.2928C690.623 48.6305 686.918 43.0316 681.241 38.511L679.995 40.0756ZM691.346 54.539H678.319V56.539H691.346V54.539ZM679.241 55.1523C677.824 51.7729 675.329 48.921 671.824 46.5841L670.714 48.2482C673.952 50.407 676.157 52.9703 677.397 55.9257L679.241 55.1523ZM671.835 46.5921C668.351 44.1967 663.843 43.0444 658.395 43.0444V45.0444C663.573 45.0444 667.647 46.14 670.702 48.2402L671.835 46.5921ZM658.395 43.0444C654.728 43.0444 651.53 43.5677 648.828 44.6485L649.571 46.5055C651.977 45.5428 654.91 45.0444 658.395 45.0444V43.0444ZM648.861 44.6361C646.198 45.5948 644.092 46.9018 642.62 48.6003L644.131 49.9102C645.315 48.5436 647.092 47.3984 649.538 46.5179L648.861 44.6361ZM642.594 48.6306C641.256 50.3036 640.536 52.1014 640.536 54.0064H642.536C642.536 52.6418 643.042 51.2721 644.156 49.88L642.594 48.6306ZM640.536 54.0064C640.536 56.4445 641.481 58.5055 643.33 60.1231L644.647 58.6179C643.226 57.3747 642.536 55.8596 642.536 54.0064H640.536ZM643.381 60.1649C645.216 61.5684 647.458 62.7368 650.087 63.6831L650.764 61.8013C648.284 60.9085 646.234 59.8291 644.596 58.5761L643.381 60.1649ZM650.131 63.698C652.825 64.5268 656.481 65.453 661.09 66.4771L661.524 64.5247C656.937 63.5054 653.339 62.5925 650.719 61.7865L650.131 63.698ZM661.09 66.4771C667.502 67.902 672.714 69.3716 676.742 70.8818L677.444 69.0092C673.297 67.4541 667.986 65.9608 661.524 64.5247L661.09 66.4771ZM676.742 70.8818C680.693 72.3636 684.091 74.5814 686.949 77.5373L688.387 76.1472C685.318 72.9727 681.666 70.5926 677.444 69.0092L676.742 70.8818ZM686.949 77.5373C689.693 80.3763 691.112 84.2438 691.112 89.2564H693.112C693.112 83.8472 691.568 79.4386 688.387 76.1472L686.949 77.5373ZM691.112 89.2564C691.112 93.2357 689.952 96.8663 687.617 100.174L689.251 101.328C691.82 97.6877 693.112 93.6553 693.112 89.2564H691.112ZM687.606 100.191C685.384 103.475 681.973 106.178 677.298 108.267L678.114 110.093C683.043 107.891 686.784 104.974 689.262 101.311L687.606 100.191ZM677.307 108.263C672.764 110.238 667.237 111.245 660.694 111.245V113.245C667.433 113.245 673.247 112.209 678.105 110.097L677.307 108.263ZM723.648 107.188L723.149 108.054L723.157 108.059L723.166 108.064L723.648 107.188ZM709.395 92.9346L708.519 93.4165L708.523 93.4253L708.528 93.4339L709.395 92.9346ZM709.395 52.014L708.525 51.521L708.522 51.5258L709.395 52.014ZM723.648 37.7607L724.136 38.6335L724.141 38.6307L723.648 37.7607ZM764.569 37.7607L764.07 38.6271L764.078 38.6321L764.087 38.6369L764.569 37.7607ZM778.822 52.014L777.946 52.4959L777.951 52.5046L777.956 52.5133L778.822 52.014ZM778.822 92.9346L777.952 92.4416L777.949 92.4465L778.822 92.9346ZM764.569 107.188L765.057 108.061L765.062 108.058L764.569 107.188ZM758.438 97.2259L758.928 98.0981L758.936 98.0936L758.944 98.089L758.438 97.2259ZM768.247 87.1107L767.37 86.6304L768.247 87.1107ZM758.438 47.7227L757.933 48.5857L757.941 48.5903L757.949 48.5948L758.438 47.7227ZM729.932 47.7227L730.421 48.5948L730.429 48.5903L730.437 48.5857L729.932 47.7227ZM720.123 87.1107L721 86.6304L720.123 87.1107ZM729.932 97.2259L729.427 98.089L729.435 98.0936L729.443 98.0981L729.932 97.2259ZM744.185 111.245C736.779 111.245 730.101 109.596 724.13 106.312L723.166 108.064C729.456 111.524 736.47 113.245 744.185 113.245V111.245ZM724.147 106.321C718.272 102.935 713.647 98.311 710.261 92.4353L708.528 93.4339C712.09 99.6148 716.968 104.492 723.149 108.054L724.147 106.321ZM710.271 92.4527C706.987 86.4817 705.337 79.804 705.337 72.3977H703.337C703.337 80.1131 705.059 87.1267 708.519 93.4165L710.271 92.4527ZM705.337 72.3977C705.337 64.9911 706.987 58.3674 710.268 52.5021L708.522 51.5258C705.059 57.7171 703.337 64.6825 703.337 72.3977H705.337ZM710.265 52.507C713.651 46.5323 718.271 41.9141 724.136 38.6335L723.16 36.888C716.969 40.3509 712.087 45.2348 708.525 51.521L710.265 52.507ZM724.141 38.6307C730.11 35.2482 736.784 33.5498 744.185 33.5498V31.5498C736.464 31.5498 729.447 33.3254 723.155 36.8907L724.141 38.6307ZM744.185 33.5498C751.586 33.5498 758.206 35.2482 764.07 38.6271L765.068 36.8943C758.875 33.3254 751.906 31.5498 744.185 31.5498V33.5498ZM764.087 38.6369C770.051 41.9173 774.666 46.5316 777.946 52.4959L779.698 51.5321C776.235 45.2355 771.347 40.3476 765.051 36.8845L764.087 38.6369ZM777.956 52.5133C781.335 58.3767 783.033 64.9964 783.033 72.3977H785.033C785.033 64.6772 783.257 57.7078 779.688 51.5147L777.956 52.5133ZM783.033 72.3977C783.033 79.7988 781.335 86.4725 777.952 92.4416L779.692 93.4276C783.257 87.1359 785.033 80.1183 785.033 72.3977H783.033ZM777.949 92.4465C774.669 98.3118 770.05 102.932 764.076 106.318L765.062 108.058C771.348 104.496 776.232 99.614 779.695 93.4228L777.949 92.4465ZM764.081 106.315C758.215 109.596 751.592 111.245 744.185 111.245V113.245C751.9 113.245 758.866 111.524 765.057 108.061L764.081 106.315ZM744.185 101.751C749.651 101.751 754.574 100.541 758.928 98.0981L757.949 96.3538C753.925 98.6113 749.345 99.7509 744.185 99.7509V101.751ZM758.944 98.089C763.29 95.5445 766.688 92.0399 769.124 87.591L767.37 86.6304C765.106 90.7641 761.965 94.003 757.933 96.3629L758.944 98.089ZM769.124 87.591C771.565 83.1345 772.772 78.0612 772.772 72.3977H770.772C770.772 77.769 769.63 82.5043 767.37 86.6304L769.124 87.591ZM772.772 72.3977C772.772 66.7342 771.565 61.6608 769.124 57.2043L767.37 58.1649C769.63 62.291 770.772 67.0264 770.772 72.3977H772.772ZM769.124 57.2043C766.686 52.7519 763.283 49.294 758.928 46.8505L757.949 48.5948C761.972 50.8513 765.108 54.0348 767.37 58.1649L769.124 57.2043ZM758.944 46.8597C754.587 44.3094 749.658 43.0444 744.185 43.0444V45.0444C749.338 45.0444 753.912 46.2316 757.933 48.5857L758.944 46.8597ZM744.185 43.0444C738.712 43.0444 733.783 44.3094 729.427 46.8597L730.437 48.5857C734.459 46.2316 739.032 45.0444 744.185 45.0444V43.0444ZM729.443 46.8505C725.087 49.294 721.684 52.7519 719.246 57.2043L721 58.1649C723.262 54.0348 726.399 50.8513 730.421 48.5948L729.443 46.8505ZM719.246 57.2043C716.806 61.6608 715.598 66.7342 715.598 72.3977H717.598C717.598 67.0264 718.741 62.291 721 58.1649L719.246 57.2043ZM715.598 72.3977C715.598 78.0612 716.806 83.1345 719.246 87.591L721 86.6304C718.741 82.5043 717.598 77.769 717.598 72.3977H715.598ZM719.246 87.591C721.682 92.0399 725.08 95.5445 729.427 98.089L730.437 96.3629C726.406 94.003 723.264 90.7641 721 86.6304L719.246 87.591ZM729.443 98.0981C733.797 100.541 738.719 101.751 744.185 101.751V99.7509C739.025 99.7509 734.445 98.6113 730.421 96.3538L729.443 98.0981ZM815.545 107.188L815.045 108.054L815.054 108.059L815.063 108.064L815.545 107.188ZM801.292 92.9346L800.415 93.4165L800.42 93.4253L800.425 93.4339L801.292 92.9346ZM801.292 52.014L800.421 51.521L800.419 51.5258L801.292 52.014ZM815.545 37.7607L816.033 38.6335L816.038 38.6307L815.545 37.7607ZM856.465 37.7607L855.966 38.6271L855.975 38.6321L855.984 38.6369L856.465 37.7607ZM870.719 52.014L869.842 52.4959L869.847 52.5046L869.852 52.5133L870.719 52.014ZM870.719 92.9346L869.849 92.4416L869.846 92.4465L870.719 92.9346ZM856.465 107.188L856.954 108.061L856.958 108.058L856.465 107.188ZM850.335 97.2259L850.824 98.0981L850.832 98.0936L850.84 98.089L850.335 97.2259ZM860.144 87.1107L859.267 86.6304L860.144 87.1107ZM850.335 47.7227L849.83 48.5857L849.838 48.5903L849.846 48.5948L850.335 47.7227ZM821.828 47.7227L822.318 48.5948L822.326 48.5903L822.334 48.5857L821.828 47.7227ZM812.02 87.1107L812.897 86.6304L812.02 87.1107ZM821.828 97.2259L821.323 98.089L821.331 98.0936L821.339 98.0981L821.828 97.2259ZM836.082 111.245C828.675 111.245 821.998 109.596 816.027 106.312L815.063 108.064C821.353 111.524 828.366 113.245 836.082 113.245V111.245ZM816.044 106.321C810.168 102.935 805.544 98.311 802.158 92.4353L800.425 93.4339C803.987 99.6148 808.865 104.492 815.045 108.054L816.044 106.321ZM802.168 92.4527C798.884 86.4817 797.234 79.804 797.234 72.3977H795.234C795.234 80.1131 796.956 87.1267 800.415 93.4165L802.168 92.4527ZM797.234 72.3977C797.234 64.9911 798.884 58.3674 802.164 52.5021L800.419 51.5258C796.956 57.7171 795.234 64.6825 795.234 72.3977H797.234ZM802.161 52.507C805.547 46.5323 810.168 41.9141 816.033 38.6335L815.057 36.888C808.865 40.3509 803.984 45.2348 800.421 51.521L802.161 52.507ZM816.038 38.6307C822.007 35.2482 828.681 33.5498 836.082 33.5498V31.5498C828.361 31.5498 821.343 33.3254 815.052 36.8907L816.038 38.6307ZM836.082 33.5498C843.483 33.5498 850.103 35.2482 855.966 38.6271L856.965 36.8943C850.772 33.3254 843.802 31.5498 836.082 31.5498V33.5498ZM855.984 38.6369C861.948 41.9173 866.562 46.5316 869.842 52.4959L871.595 51.5321C868.132 45.2355 863.244 40.3476 856.947 36.8845L855.984 38.6369ZM869.852 52.5133C873.231 58.3767 874.93 64.9964 874.93 72.3977H876.93C876.93 64.6772 875.154 57.7078 871.585 51.5147L869.852 52.5133ZM874.93 72.3977C874.93 79.7988 873.231 86.4725 869.849 92.4416L871.589 93.4276C875.154 87.1359 876.93 80.1183 876.93 72.3977H874.93ZM869.846 92.4465C866.565 98.3118 861.947 102.932 855.972 106.318L856.958 108.058C863.245 104.496 868.129 99.614 871.591 93.4228L869.846 92.4465ZM855.977 106.315C850.112 109.596 843.488 111.245 836.082 111.245V113.245C843.797 113.245 850.762 111.524 856.954 108.061L855.977 106.315ZM836.082 101.751C841.547 101.751 846.47 100.541 850.824 98.0981L849.846 96.3538C845.821 98.6113 841.242 99.7509 836.082 99.7509V101.751ZM850.84 98.089C855.187 95.5445 858.584 92.0399 861.021 87.591L859.267 86.6304C857.003 90.7641 853.861 94.003 849.83 96.3629L850.84 98.089ZM861.021 87.591C863.461 83.1345 864.669 78.0612 864.669 72.3977H862.669C862.669 77.769 861.526 82.5043 859.267 86.6304L861.021 87.591ZM864.669 72.3977C864.669 66.7342 863.461 61.6608 861.021 57.2043L859.267 58.1649C861.526 62.291 862.669 67.0264 862.669 72.3977H864.669ZM861.021 57.2043C858.583 52.7519 855.18 49.294 850.824 46.8505L849.846 48.5948C853.868 50.8513 857.005 54.0348 859.267 58.1649L861.021 57.2043ZM850.84 46.8597C846.484 44.3094 841.555 43.0444 836.082 43.0444V45.0444C841.234 45.0444 845.808 46.2316 849.83 48.5857L850.84 46.8597ZM836.082 43.0444C830.608 43.0444 825.68 44.3094 821.323 46.8597L822.334 48.5857C826.355 46.2316 830.929 45.0444 836.082 45.0444V43.0444ZM821.339 46.8505C816.983 49.294 813.581 52.7519 811.143 57.2043L812.897 58.1649C815.159 54.0348 818.295 50.8513 822.318 48.5948L821.339 46.8505ZM811.143 57.2043C808.702 61.6608 807.495 66.7342 807.495 72.3977H809.495C809.495 67.0264 810.637 62.291 812.897 58.1649L811.143 57.2043ZM807.495 72.3977C807.495 78.0612 808.702 83.1345 811.143 87.591L812.897 86.6304C810.637 82.5043 809.495 77.769 809.495 72.3977H807.495ZM811.143 87.591C813.579 92.0399 816.977 95.5445 821.323 98.089L822.334 96.3629C818.302 94.003 815.161 90.7641 812.897 86.6304L811.143 87.591ZM821.339 98.0981C825.693 100.541 830.616 101.751 836.082 101.751V99.7509C830.921 99.7509 826.342 98.6113 822.318 96.3538L821.339 98.0981ZM892.728 110.713H891.728V111.713H892.728V110.713ZM892.728 34.0825V33.0825H891.728V34.0825H892.728ZM904.989 34.0825H905.989V33.0825H904.989V34.0825ZM904.989 45.577H903.989V46.577H904.989V45.577ZM905.143 45.577V46.577H905.69L905.985 46.1154L905.143 45.577ZM915.258 36.3814L915.745 37.2546L915.752 37.2508L915.258 36.3814ZM953.266 41.439L952.535 42.1204L952.541 42.1269L952.547 42.1333L953.266 41.439ZM961.696 110.713V111.713H962.696V110.713H961.696ZM949.435 110.713H948.435V111.713H949.435V110.713ZM943.918 49.5618L943.21 50.2689L943.918 49.5618ZM916.484 47.2629L916.98 48.1311L916.989 48.1259L916.998 48.1204L916.484 47.2629ZM908.054 56.152L908.934 56.6276L908.939 56.6178L908.054 56.152ZM904.989 110.713V111.713H905.989V110.713H904.989ZM893.728 110.713V34.0825H891.728V110.713H893.728ZM892.728 35.0825H904.989V33.0825H892.728V35.0825ZM903.989 34.0825V45.577H905.989V34.0825H903.989ZM904.989 46.577H905.143V44.577H904.989V46.577ZM905.985 46.1154C908.234 42.5963 911.474 39.6386 915.745 37.2546L914.77 35.5082C910.255 38.0285 906.752 41.2012 904.3 45.0386L905.985 46.1154ZM915.752 37.2508C920.073 34.7953 925.16 33.5498 931.044 33.5498V31.5498C924.871 31.5498 919.433 32.8587 914.764 35.5119L915.752 37.2508ZM931.044 33.5498C940.109 33.5498 947.235 36.4284 952.535 42.1204L953.998 40.7576C948.263 34.5974 940.574 31.5498 931.044 31.5498V33.5498ZM952.547 42.1333C957.943 47.7252 960.696 55.4714 960.696 65.5009H962.696C962.696 55.0957 959.829 46.8005 953.986 40.7446L952.547 42.1333ZM960.696 65.5009V110.713H962.696V65.5009H960.696ZM961.696 109.713H949.435V111.713H961.696V109.713ZM950.435 110.713V66.2672H948.435V110.713H950.435ZM950.435 66.2672C950.435 58.6591 948.559 52.789 944.625 48.8547L943.21 50.2689C946.633 53.6912 948.435 58.958 948.435 66.2672H950.435ZM944.625 48.8547C940.716 44.9465 935.38 43.0444 928.745 43.0444V45.0444C934.983 45.0444 939.762 46.8206 943.21 50.2689L944.625 48.8547ZM928.745 43.0444C923.985 43.0444 919.716 44.1571 915.969 46.4054L916.998 48.1204C920.403 46.0774 924.309 45.0444 928.745 45.0444V43.0444ZM915.988 46.3946C912.235 48.5388 909.296 51.6467 907.17 55.6863L908.939 56.6178C910.9 52.8921 913.58 50.0739 916.98 48.1311L915.988 46.3946ZM907.175 55.6765C905.04 59.6254 903.989 64.1874 903.989 69.3325H905.989C905.989 64.4644 906.982 60.2395 908.934 56.6275L907.175 55.6765ZM903.989 69.3325V110.713H905.989V69.3325H903.989ZM904.989 109.713H892.728V111.713H904.989V109.713Z" fill="black" mask="url(#path-2-outside-1_230_1198)"/>
<defs>
<radialGradient id="paint0_radial_230_1198" cx="0" cy="0" r="1" gradientUnits="userSpaceOnUse" gradientTransform="translate(301.401 -59.4029) rotate(45.1984) scale(364.354 305.612)">
<stop stop-color="#3CFFF2"/>
<stop offset="1" stop-color="#FFD900"/>
</radialGradient>
</defs>
</svg>
