<svg width="459" height="519" viewBox="0 0 459 519" fill="none" xmlns="http://www.w3.org/2000/svg">
<path d="M148.971 167.938C143.496 169.013 132.772 171.948 123.112 180.843C108.565 194.242 106.823 211.606 106.438 216.2C105.759 224.333 107.026 231.032 108.158 235.245C109.9 229.105 113.112 222.272 119.492 217.88C127.591 212.323 133.677 215.572 141.301 209.411C144.446 206.879 143.518 206.229 151.98 191.419C159.083 179.006 161.934 175.623 160.328 172.374C159.694 171.074 157.613 168.318 148.993 167.938H148.971Z" fill="#DF0022" stroke="black" stroke-width="3.05673" stroke-linecap="round" stroke-linejoin="round"/>
<path d="M151.754 147.614C143.791 151.065 141.211 158.974 140.646 160.744C140.307 161.797 136.868 172.978 144.492 182.343C149.039 187.922 156.844 191.978 165.012 190.611C176.55 188.662 184.31 176.697 182.975 166.054C181.821 156.913 174.355 151.782 172.93 150.818C170.871 149.407 161.482 143.425 151.777 147.637L151.754 147.614Z" fill="#DF0022" stroke="black" stroke-width="3.05673" stroke-linecap="round" stroke-linejoin="round"/>
<path d="M405.328 347.764C414.219 366.159 418.789 388.005 416.142 408.461C361.868 589.5 61.064 503.417 39.7072 446.73C-35.2902 351.282 10.2739 222.919 96.832 281.599C91.2213 283.571 73.8464 289.554 77.4662 288.344C102.895 279.941 145.337 261.188 188.752 268.895C199.611 281.577 202.032 283.437 201.964 283.504C167.78 256.393 158.708 192.671 169.047 156.933C175.653 134.079 189.091 108.447 212.62 99.0143C220.832 95.7207 230.221 95.0709 238.818 93.2336C230.289 94.8468 221.036 92.2253 214.679 86.3774C211.489 83.4423 208.864 79.0059 210.29 74.928C211.557 71.2983 215.538 69.3042 219.316 68.4975C229.497 66.3018 239.949 69.8643 249.745 73.3596C246.307 72.9115 242.777 72.441 239.723 70.8278C236.669 69.2145 234.135 66.145 234.18 62.7169C234.226 59.8489 236.058 57.205 238.479 55.6142C240.899 54.0234 243.818 53.3512 246.691 53.0599C254.904 52.2309 263.365 54.2699 270.265 58.751C274.812 61.7086 278.636 65.6968 281.441 70.29C282.663 72.3065 284.156 74.704 284.36 77.1014C284.54 79.3644 283.975 81.717 284.111 84.0024C290.015 83.9128 295.852 83.1062 301.825 83.375C307.798 83.6439 313.816 84.4505 319.675 85.7052C331.462 88.2147 342.842 92.5838 353.226 98.6782C373.067 110.329 389.265 128.747 394.356 151.399C399.491 181.916 401.256 258.678 369.244 277.342C367.388 278.821 363.678 279.336 362.864 281.487C362.864 281.936 394.039 324.417 405.351 347.764H405.328Z" fill="#FBDF46"/>
<mask id="mask0_233_2814" style="mask-type:luminance" maskUnits="userSpaceOnUse" x="1" y="52" width="416" height="466">
<path d="M405.32 347.755C414.211 366.15 418.781 387.996 416.134 408.453C361.86 589.492 61.0558 503.408 39.6991 446.722C-35.2983 351.273 10.2657 222.91 96.8239 281.591C91.2132 283.562 73.8382 289.545 77.458 288.335C102.887 279.933 145.329 261.179 188.744 268.887C199.603 281.568 202.024 283.428 201.956 283.495C167.772 256.384 158.7 192.662 169.039 156.925C175.645 134.071 189.083 108.438 212.612 99.0055C220.824 95.7119 230.213 95.0621 238.81 93.2248C230.281 94.838 221.028 92.2166 214.671 86.3686C211.481 83.4335 208.856 78.9971 210.282 74.9193C211.548 71.2895 215.53 69.2954 219.308 68.4888C229.489 66.293 239.941 69.8555 249.737 73.3508C246.298 72.9027 242.769 72.4322 239.715 70.819C236.661 69.2058 234.127 66.1362 234.172 62.7081C234.217 59.8401 236.05 57.1962 238.471 55.6054C240.891 54.0146 243.81 53.3424 246.683 53.0512C254.895 52.2221 263.357 54.2611 270.257 58.7422C274.804 61.6998 278.628 65.688 281.433 70.2812C282.655 72.2978 284.148 74.6952 284.351 77.0926C284.532 79.3556 283.967 81.7082 284.103 83.9936C290.007 83.904 295.844 83.0974 301.817 83.3663C307.789 83.6351 313.807 84.4417 319.667 85.6965C331.454 88.2059 342.834 92.575 353.218 98.6694C373.059 110.32 389.257 128.738 394.348 151.39C399.483 181.907 401.248 258.669 369.235 277.334C367.38 278.812 363.67 279.328 362.855 281.479C362.855 281.927 394.031 324.408 405.343 347.755H405.32Z" fill="white"/>
</mask>
<g mask="url(#mask0_233_2814)">
<path d="M395.605 303.816C382.302 309.037 379.813 312.017 379.791 314.392C379.745 317.439 383.682 318.559 383.637 321.584C383.591 325.46 377.121 328.507 371.669 330.479C377.189 333.997 385.582 340.293 393.048 350.375C397.188 355.977 414.722 379.727 407.595 401.192C403.432 413.694 394.247 415.397 393.048 428.706C392.845 430.88 392.166 441.41 398.614 449.028C408.161 460.321 430.06 461.307 443.069 453.689C471.982 436.75 460.919 375.022 453.34 349.098C451.259 341.973 437.798 297.811 417.436 297.027C413.319 296.87 407.414 299.178 395.627 303.794L395.605 303.816Z" fill="white"/>
<path d="M199.806 284.742C198.629 286.512 192.25 282.905 191.005 282.435C184.648 279.948 177.838 277.909 171.006 277.595C158.427 277.035 145.894 278.917 133.722 281.942C121.732 284.944 109.967 288.305 98.1125 291.845L74.0184 299.037C72.5931 299.463 71.1225 299.889 69.6294 299.732C68.1362 299.575 66.6431 298.656 66.2811 297.222C65.7608 295.228 67.5707 293.413 69.2448 292.181C71.6882 290.389 74.2672 288.775 76.9594 287.364C78.3847 286.624 83.5203 285.437 83.5203 283.465C82.8643 278.021 26.5766 272.576 15.3326 293.413C13.0928 297.581 14.4729 299.396 11.6902 304.213C3.7267 318.015 -19.8472 324.244 -26.7926 318.194C-37.109 309.165 -15.5714 238.945 38.1824 223.776C58.77 217.973 85.5791 224.336 103.588 232.246C112.999 236.391 117.999 240.289 133.089 245.801C152.545 252.904 156.866 251.044 169.422 257.228C187.906 266.325 201.729 281.762 199.783 284.742H199.806Z" fill="white"/>
<path d="M297.49 75.7924C295.816 90.1322 346.176 90.3338 370.587 129.768C385.767 154.258 386.876 187.351 387.26 199.002C388.211 227.458 381.831 245.382 392.464 253.448C399.681 258.915 412.803 258.4 421.083 252.485C447.598 233.597 429.046 156.117 394.975 104.987C368.845 65.7994 345.814 61.8784 340.475 61.1614C321.199 58.5848 298.621 66.3596 297.512 75.77L297.49 75.7924Z" fill="white"/>
<path d="M18.535 266.987C26.8152 270.616 4.41788 313.68 19.3042 363.982C25.933 386.365 37.8329 403.057 47.5159 414.148C43.4436 394.588 39.8918 370.748 46.8825 367.791C52.1312 365.572 60.2757 376.394 67.4021 383.027C113.962 426.382 206.334 374.199 233.505 410.339C244.274 424.657 238.052 443.881 237.351 445.897C230.224 466.847 204.253 481.03 171.29 482.105C188.031 489.521 219.116 500.455 258.504 497.991C326.42 493.711 369.971 452.597 381.645 440.834C362.301 444.755 346.759 440.139 343.162 431.311C342.438 429.519 341.737 426.449 343.162 421.789C351.306 425.978 362.143 429.743 374.134 427.995C391.757 425.418 400.128 409.958 401.644 411.706C403.069 413.386 394.042 425.463 396.395 433.216C398.771 441.125 415.376 438.302 419.471 444.217C428.227 456.831 380.219 523.802 311.738 558.957C227.826 602.044 78.2389 615.285 2.63062 522.122C-42.5262 466.466 -50.5351 386.365 -28.5901 328.625C-14.7218 292.171 11.3406 263.828 18.535 266.987Z" fill="#E4A02B"/>
<path d="M394.344 293.016C381.109 318.268 343.576 315.243 288.533 310.807C283.103 310.359 272.583 309.171 269.303 302.539C266.656 297.206 270.932 292.77 268.67 288.558C264.62 281.052 246.046 285.712 231.476 285.376C206.5 284.816 188.129 269.49 174.397 258.063C170.981 255.218 118.969 210.72 131.435 164.071C138.38 138.08 163.198 119.282 169.261 122.777C175.189 126.205 158.176 148.051 161.569 178.03C166.863 225.037 218.083 254.949 232.11 263.127C263.489 281.455 294.619 286.317 316.111 287.258C302.967 288.894 291.225 284.345 286.61 275.831C280.072 263.732 290.818 248.989 293.013 245.987C309.686 223.11 355.952 209.331 382.15 233.91C398.077 248.855 403.642 275.204 394.344 292.972V293.016Z" fill="#E4A02B"/>
</g>
<path d="M405.328 347.764C414.219 366.159 418.789 388.005 416.142 408.461C361.868 589.5 61.064 503.417 39.7073 446.73C-35.2902 351.282 10.2739 222.919 96.832 281.599C91.2213 283.571 73.8464 289.554 77.4662 288.344C102.895 279.941 145.337 261.188 188.752 268.895C199.611 281.577 202.032 283.437 201.964 283.504C167.78 256.393 158.708 192.671 169.047 156.933C175.653 134.079 189.091 108.447 212.62 99.0143C220.832 95.7207 230.221 95.0709 238.818 93.2336C230.289 94.8468 221.036 92.2253 214.679 86.3774C211.489 83.4423 208.864 79.0059 210.29 74.928C211.557 71.2983 215.538 69.3042 219.316 68.4975C229.497 66.3018 239.949 69.8643 249.745 73.3596C246.307 72.9115 242.777 72.441 239.723 70.8278C236.669 69.2145 234.135 66.145 234.18 62.7169C234.226 59.8489 236.058 57.205 238.479 55.6142C240.899 54.0234 243.818 53.3512 246.691 53.0599C254.904 52.2309 263.365 54.2699 270.265 58.751C274.812 61.7086 278.636 65.6968 281.441 70.29C282.663 72.3065 284.156 74.704 284.36 77.1014C284.541 79.3644 283.975 81.717 284.111 84.0024C290.015 83.9128 295.852 83.1062 301.825 83.375C307.798 83.6439 313.816 84.4505 319.675 85.7052C331.462 88.2147 342.842 92.5838 353.226 98.6782C373.067 110.329 389.265 128.747 394.356 151.399C399.491 181.916 401.256 258.678 369.244 277.342C367.388 278.821 363.678 279.336 362.864 281.487C362.864 281.936 394.039 324.417 405.351 347.764H405.328Z" stroke="black" stroke-width="2.44539" stroke-linecap="round" stroke-linejoin="round"/>
<path d="M420.389 245.606C421.43 252.328 412.539 258.691 407.132 262.545C401.001 266.936 394.259 270.32 378.49 275.451C363.694 280.268 356.274 282.688 350.278 283.293C333.22 284.995 320.573 280.626 310.529 277.153C296.751 272.403 293.335 268.258 291.728 265.726C291.479 265.323 285.552 255.801 288.946 249.213C294.059 239.288 314.216 247.959 347.722 243.926C378.332 240.229 397.675 228.645 413.353 237.585C415.231 238.66 419.733 241.304 420.412 245.628L420.389 245.606Z" fill="#FF1A46" stroke="black" stroke-width="2.44539" stroke-miterlimit="22.93"/>
<path d="M434.079 255.348C441.069 251.158 441.929 238.589 433.445 232.27C429.554 228.551 419.531 226.915 409.826 225.817C407.971 225.616 402.994 225.549 396.274 224.361C392.813 223.734 390.008 223.039 388.13 222.546C380.551 216.295 358.674 201.126 344.557 205.338C339.172 206.952 334.059 211.388 329.557 220.216C319.218 237.603 313.381 232.427 296.21 238.409C286.708 241.322 283.382 253.645 294.287 256.401C304.535 260.972 338.629 272.13 341.095 271.637C369.103 275.872 387.27 247.148 408.423 245.378C413.084 246.027 425.21 258.328 434.079 255.326V255.348Z" fill="#FF1A46"/>
<mask id="mask1_233_2814" style="mask-type:luminance" maskUnits="userSpaceOnUse" x="287" y="204" width="153" height="69">
<path d="M434.077 255.35C441.067 251.16 441.927 238.591 433.443 232.272C429.552 228.553 419.53 226.917 409.824 225.819C407.969 225.618 402.992 225.55 396.272 224.363C392.811 223.736 390.006 223.041 388.128 222.548C380.549 216.297 358.672 201.128 344.555 205.34C339.17 206.954 334.057 211.39 329.555 220.218C319.216 237.605 313.379 232.429 296.208 238.411C286.706 241.324 283.38 253.647 294.285 256.403C304.533 260.974 338.627 272.132 341.093 271.639C369.101 275.874 387.268 247.15 408.421 245.38C413.082 246.029 425.208 258.33 434.077 255.328V255.35Z" fill="white"/>
</mask>
<g mask="url(#mask1_233_2814)">
<path d="M432.288 260.859C430.614 258.462 434.324 251.651 433.351 244.346C432.424 237.378 424.686 235.877 419.03 234.712C412.447 233.367 399.687 232.628 387.244 235.787C366.046 241.187 361.928 244.302 361.159 243.181C359.711 241.03 370.276 235.317 380.05 232.113C385.932 230.186 390.547 225.324 397.877 221.582C417.379 211.656 427.152 206.705 435.704 210.155C445.523 214.121 452.016 227.004 450.455 238.745C449.278 247.618 443.532 255.437 436.338 259.067C432.65 260.927 433.374 262.45 432.265 260.859H432.288Z" fill="white"/>
<path d="M388.319 227.593C383.839 227.952 376.509 222.978 368.523 218.721C361.216 214.822 355.311 211.663 348.637 212.537C344.248 213.119 330.629 216.704 327.144 214.912C320.742 211.663 309.204 203.149 317.235 193.626C327.846 181.056 351.148 187.285 359.406 189.503C361.08 189.952 375.129 193.895 386.351 205.86C393.319 213.276 392.776 216.951 392.436 218.25C391.418 222.216 392.482 227.257 388.341 227.593H388.319Z" fill="white"/>
</g>
<path d="M437.028 254.306C444.019 250.116 441.929 238.589 433.445 232.27C429.554 228.551 419.532 226.915 409.826 225.817C407.971 225.616 402.994 225.549 396.274 224.361C392.813 223.734 390.008 223.039 388.13 222.546C380.551 216.295 358.674 201.126 344.557 205.338C339.172 206.952 334.059 211.388 329.557 220.216C319.218 237.603 313.381 232.427 296.21 238.409C286.708 241.322 283.382 253.645 294.287 256.401C304.535 260.972 338.629 272.13 341.095 271.637C369.103 275.872 387.27 247.148 408.423 245.378C413.084 246.027 425.21 258.328 434.079 255.326L437.028 254.306Z" stroke="black" stroke-width="2.44539" stroke-miterlimit="22.93"/>
<path d="M239.144 388.931C237.99 381.38 234.28 364.307 220.231 349.228C218.466 347.323 209.869 338.339 195.209 331.751C182.042 325.836 169.034 325.298 143.582 324.447C138.13 324.268 123.379 324.537 93.8777 325.074C86.3892 325.209 48.8793 322.632 45.4631 337.778C43.7437 345.396 60.4625 361.842 69.7156 361.17C69.2179 360.812 60.6663 358.952 55.3949 359.691C54.9877 359.759 50.2366 361.775 48.653 366.368C45.8929 374.367 55.1913 383.621 59.8744 388.281C62.9512 391.351 67.9284 396.19 76.2312 398.767C81.1858 400.291 85.0544 401.097 87.9276 400.985C82.1586 397.96 75.3715 397.602 67.5663 399.081C66.2542 399.327 65.0552 400.649 64.3538 402.262C61.5711 408.693 73.2223 419.291 77.1814 422.898C82.9278 428.119 102.316 444.453 140.03 451.802C153.695 454.468 163.626 456.395 177.223 454.334C185.458 453.101 205.412 449.785 221.158 433.048C225.004 428.97 235.004 417.252 238.149 399.708C238.941 395.317 239.099 391.575 239.122 388.908L239.144 388.931Z" fill="#FBDF46"/>
<mask id="mask2_233_2814" style="mask-type:luminance" maskUnits="userSpaceOnUse" x="45" y="324" width="195" height="132">
<path d="M239.155 388.924C238.001 381.373 234.291 364.3 220.241 349.221C218.477 347.316 209.88 338.332 195.219 331.744C182.053 325.829 169.044 325.291 143.592 324.44C138.14 324.261 123.389 324.53 93.888 325.067C86.3996 325.202 48.8897 322.625 45.4735 337.772C43.7541 345.39 60.4729 361.835 69.726 361.163C69.2283 360.805 60.6766 358.945 55.4053 359.684C54.9981 359.752 50.247 361.768 48.6634 366.361C45.9033 374.36 55.2017 383.614 59.8848 388.274C62.9616 391.344 67.9387 396.184 76.2416 398.76C81.1962 400.284 85.0648 401.09 87.938 400.978C82.169 397.954 75.3819 397.595 67.5767 399.074C66.2645 399.32 65.0655 400.642 64.3642 402.256C61.5815 408.686 73.2326 419.284 77.1918 422.891C82.9382 428.112 102.327 444.446 140.04 451.795C153.705 454.461 163.637 456.388 177.234 454.327C185.469 453.094 205.423 449.778 221.169 433.041C225.015 428.963 235.014 417.245 238.159 399.701C238.951 395.31 239.109 391.568 239.132 388.902L239.155 388.924Z" fill="white"/>
</mask>
<g mask="url(#mask2_233_2814)">
<path d="M32.8738 357.804C21.7429 369.231 38.394 404.453 55.9499 425.761C59.0946 429.57 99.7719 477.25 161.761 472.769C190.176 470.707 237.64 456.614 241.645 427.554C242.346 422.4 242.708 409.293 226.962 391.973C224.722 401.742 220.763 408.733 216.917 413.685C192.642 444.918 136.875 441.154 102.758 427.016C86.9896 420.474 71.9674 410.1 73.2569 406.694C74.6596 402.997 95.3377 407.299 95.6997 405.417C96.0391 403.669 77.646 402.616 66.8319 389.531C61.3796 382.944 57.3074 372.637 61.0629 367.304C65.0899 361.569 76.266 364.257 76.447 362.868C76.7637 360.426 43.4616 346.87 32.8285 357.782L32.8738 357.804Z" fill="#E4A02B"/>
<path d="M226.988 391.97C222.034 367.996 202.51 355.56 196.401 351.662C182.442 342.767 167.579 339.719 130.137 339.809C106.518 339.876 74.7539 341.176 37.0402 346.374C36.7914 338.846 37.9679 330.242 43.3523 323.296C58.8495 303.265 98.5767 310.569 154.661 320.921C201.152 329.48 213.799 337.456 219.749 341.198C239.115 353.409 254.657 372.678 258.82 395.039C260.404 403.598 260.245 412.83 256.105 420.492C251.965 428.178 243.164 433.779 234.5 432.278C234.409 430.239 234.319 428.222 234.228 426.184C234.047 422.083 224.093 426.116 222.962 427.214C225.541 421.277 230.292 407.923 226.988 391.97Z" fill="white"/>
</g>
<path d="M239.144 388.931C237.99 381.38 234.28 364.307 220.231 349.228C218.466 347.323 209.869 338.339 195.209 331.751C182.042 325.836 169.034 325.298 143.582 324.447C138.13 324.268 123.379 324.537 93.8777 325.074C86.3892 325.209 48.8793 322.632 45.4631 337.778C43.7437 345.396 60.4625 361.842 69.7156 361.17C69.2179 360.812 60.6663 358.952 55.3949 359.691C54.9877 359.759 50.2367 361.775 48.653 366.368C45.8929 374.367 55.1913 383.621 59.8744 388.281C62.9512 391.351 67.9284 396.19 76.2312 398.767C81.1858 400.291 85.0544 401.097 87.9276 400.985C82.1586 397.96 75.3715 397.602 67.5663 399.081C66.2542 399.327 65.0552 400.649 64.3538 402.262C61.5711 408.693 73.2223 419.291 77.1814 422.898C82.9278 428.119 102.316 444.453 140.03 451.802C153.695 454.468 163.626 456.395 177.223 454.334C185.458 453.101 205.412 449.785 221.158 433.048C225.004 428.97 235.004 417.252 238.149 399.708C238.941 395.317 239.099 391.575 239.122 388.908L239.144 388.931Z" stroke="black" stroke-width="2.44539" stroke-miterlimit="22.93"/>
<path d="M374.133 234.263C382.232 231.776 389.336 228.885 397.616 228.46C405.897 228.527 414.584 228.84 422.978 228.37C414.607 225.972 406.44 224.583 397.73 223.597C388.657 222.679 379.359 226.981 374.133 234.24V234.263Z" fill="black"/>
<path d="M178.429 152.353C174.062 152.779 156.054 154.549 140.602 143.772C133.815 139.044 129.471 133.263 127.141 130.126C120.286 120.895 117.141 111.866 115.603 105.995C122.209 106.309 131.666 105.995 142.548 103.127C151.959 100.64 159.402 97.0106 164.674 93.9186C166.981 86.9952 171.008 77.0246 178.135 66.2922C191.166 46.6647 206.912 36.0667 220.78 26.9252C239.015 14.8932 249.942 7.70095 267.272 4.38489C276.254 2.65964 304.714 -2.78498 325.641 12.3166C332.428 17.2234 340.346 25.6704 351.613 37.7248C360.481 47.2024 363.739 51.594 370.843 53.2744C378.965 55.2013 388.286 52.7143 394.575 51.0562C398.919 49.8911 402.426 48.5692 404.846 47.5609C405.027 51.594 405.005 57.4419 403.874 64.3877C402.652 72.0505 400.231 87.1745 390.096 97.1002C381.951 105.077 371.658 106.936 365.73 107.9C304.465 117.803 267.792 102.186 231.368 120.604C207.138 132.86 203.292 149.933 178.451 152.353H178.429Z" fill="black"/>
<mask id="mask3_233_2814" style="mask-type:luminance" maskUnits="userSpaceOnUse" x="115" y="2" width="290" height="151">
<path d="M178.432 152.348C174.065 152.774 156.057 154.544 140.605 143.767C133.818 139.039 129.474 133.258 127.144 130.122C120.289 120.89 117.144 111.861 115.606 105.99C122.212 106.304 131.669 105.99 142.551 103.123C151.962 100.635 159.405 97.0057 164.677 93.9137C166.984 86.9903 171.011 77.0197 178.138 66.2873C191.169 46.6598 206.915 36.0619 220.783 26.9203C239.018 14.8884 249.945 7.69607 267.275 4.38001C276.256 2.65476 304.717 -2.78986 325.644 12.3117C332.431 17.2186 340.349 25.6656 351.616 37.7199C360.484 47.1976 363.742 51.5891 370.846 53.2695C378.968 55.1964 388.289 52.7094 394.578 51.0514C398.922 49.8863 402.428 48.5643 404.849 47.5561C405.03 51.5891 405.008 57.437 403.876 64.3828C402.655 72.0456 400.234 87.1696 390.099 97.0954C381.954 105.072 371.66 106.932 365.733 107.895C304.468 117.798 267.795 102.181 231.371 120.599C207.141 132.855 203.295 149.928 178.454 152.348H178.432Z" fill="white"/>
</mask>
<g mask="url(#mask3_233_2814)">
<path d="M404.487 72.8987C397.926 75.4081 386.479 78.657 372.43 77.0213C351.933 74.6239 339.444 63.3762 331.164 55.9151C319.626 45.5188 320.554 40.7015 320.938 39.3571C321.775 36.534 324.422 34.7416 326.617 33.6885L327.024 33.8005C327.476 34.2262 328.155 34.8536 328.992 35.6378C338.856 45.0482 343.675 51.5011 346.887 54.9292C356.797 65.5496 370.959 68.3951 373.267 68.8432C390.099 72.0249 403.922 64.9894 407.677 62.9057C418.808 56.7441 422.926 48.8572 424.668 50.0223C426.658 51.3667 423.536 63.0849 414.736 69.0673C411.003 71.5991 407.157 72.5178 404.465 72.8763L404.487 72.8987Z" fill="#332121"/>
</g>
<path d="M178.429 152.353C174.062 152.779 156.054 154.549 140.602 143.772C133.815 139.044 129.471 133.263 127.141 130.126C120.286 120.895 117.141 111.866 115.603 105.995C122.209 106.309 131.666 105.995 142.548 103.127C151.959 100.64 159.402 97.0106 164.674 93.9186C166.981 86.9952 171.008 77.0246 178.135 66.2922C191.166 46.6647 206.912 36.0667 220.78 26.9252C239.015 14.8932 249.942 7.70095 267.272 4.38489C276.254 2.65964 304.714 -2.78498 325.641 12.3166C332.428 17.2234 340.346 25.6704 351.613 37.7248C360.481 47.2024 363.739 51.594 370.843 53.2744C378.965 55.2013 388.286 52.7143 394.575 51.0562C398.919 49.8911 402.426 48.5692 404.846 47.5609C405.027 51.594 405.005 57.4419 403.874 64.3877C402.652 72.0505 400.231 87.1745 390.096 97.1002C381.951 105.077 371.658 106.936 365.73 107.9C304.465 117.803 267.792 102.186 231.368 120.604C207.138 132.86 203.292 149.933 178.451 152.353H178.429Z" stroke="black" stroke-width="3.05673" stroke-linecap="round" stroke-linejoin="round"/>
<path d="M388.453 127.691C382.639 123.345 372.888 117.362 359.812 115.413C353.568 114.472 348.749 114.808 346.125 114.987C305.402 117.922 285.018 119.401 263.186 125.16C235.879 132.352 216.265 141.628 197.351 150.568C184.682 156.55 174.343 162.107 166.99 166.229C166.696 158.88 166.425 151.554 166.131 144.204C173.597 138.536 179.818 134.458 183.438 132.128C261.15 82.7005 344.677 89.1309 370.92 92.335C375.241 92.8727 378.68 93.3881 380.105 93.6121C382.3 99.0343 384.449 105.487 386.101 112.881C387.3 118.236 388.024 123.21 388.453 127.691Z" fill="#DF0022" stroke="black" stroke-width="3.05673" stroke-linecap="round" stroke-linejoin="round"/>
<path d="M399.565 56.3529C345.472 80.9097 353.504 8.94213 282.624 9.34544C257.127 9.50228 239.684 23.3267 234.956 26.9116C227.264 32.7595 219.866 42.1028 205.025 60.7892C190.794 78.7139 190.613 80.8201 185.568 86.1975C175.637 96.7506 157.606 108.469 122.086 110.978" stroke="white" stroke-width="3.05673" stroke-linecap="round" stroke-linejoin="round"/>
<path d="M285.422 164.171C281.417 167.173 278.16 171.072 275.241 175.127C273.273 170.377 274.404 164.507 278.001 160.81C279.54 159.219 281.463 158.032 283.431 157.023C293.408 151.96 305.58 151.332 316.009 155.388C316.869 155.724 317.751 156.105 318.407 156.755C319.199 157.561 319.674 159.085 318.679 159.936C317.819 160.676 317.163 160.16 316.235 159.824C313.747 158.928 311.213 158.278 308.566 158.009C303.317 157.449 297.933 158.144 293.001 160.003C290.286 161.034 287.707 162.423 285.399 164.171H285.422Z" fill="black"/>
<path d="M392.825 148.138C397.485 149.192 401.851 151.298 405.969 153.695C405.788 148.811 402.508 144.173 397.938 142.358C395.969 141.574 393.843 141.282 391.739 141.193C381.106 140.655 370.314 144.845 362.848 152.396C362.237 153.023 361.627 153.695 361.31 154.502C360.948 155.488 361.129 157.011 362.328 157.37C363.369 157.683 363.731 156.966 364.409 156.317C366.219 154.569 368.142 153.045 370.337 151.768C374.658 149.236 379.59 147.758 384.612 147.466C387.372 147.309 390.155 147.511 392.847 148.138H392.825Z" fill="black"/>
<path d="M268.728 44.0251C268.728 44.0251 261.828 56.7488 284.054 70.9356C306.28 85.1223 323.309 72.4515 323.309 72.4515C323.309 72.4515 328.118 67.6682 325.431 64.841C324.706 64.0785 323.659 63.7229 322.623 63.8456C317.931 64.4026 296.575 66.6407 279.003 48.0038C279.003 48.0038 276.762 44.7095 271.321 42.9633C271.321 42.9633 270.588 37.6962 269.148 39.156C267.707 40.6159 267.809 41.2684 268.728 44.0251L268.728 44.0251Z" fill="#FFD32C"/>
<path d="M281.139 53.8082C281.139 53.8082 283.035 61.2642 296.958 66.2098C310.88 71.1555 319.784 68.7471 320.956 66.5137C320.956 66.5137 306.12 67.5537 296.638 63.4093C287.155 59.2648 281.139 53.8076 281.139 53.8076L281.139 53.8082Z" fill="black"/>
<path d="M289.977 54.8307C289.977 54.8307 295.015 49.1711 297.893 44.2705C298.105 43.9104 300.735 41.3932 302.873 40.4129C302.873 40.4129 303.301 40.061 303.609 36.4492C303.609 36.4492 303.463 35.3335 304.807 36.1027C306.151 36.8718 306.076 37.6971 306.076 37.6971L306.017 39.8838C306.017 39.8838 305.772 40.4135 306.412 41.132C307.053 41.8506 311.174 51.0919 303.795 60.8374C303.795 60.8374 296.434 58.7416 294.023 57.2934C294.023 57.2934 295.973 53.9423 295.713 52.4347L292.409 56.511L289.976 54.8319L289.977 54.8307Z" fill="#FFD32C"/>
<path d="M277.119 67.6923L274.669 65.4302C274.669 65.4302 265.946 69.9907 257.773 69.8648C257.773 69.8648 252.032 70.2106 254.273 75.102C256.513 79.9935 267.521 81.1767 267.521 81.1767C267.521 81.1767 280.08 82.4867 289.084 75.6404C289.084 75.6404 281.718 71.8944 279.117 69.2568C279.117 69.2568 263.099 77.2308 258.674 72.4283C258.674 72.4283 268.163 72.2354 277.119 67.6923Z" fill="#FFD32C"/>
<path d="M222.615 189.359L223.562 199.387L233.665 198.465L234.612 208.493L244.716 207.572L245.662 217.6L255.766 216.678L256.712 226.706L317.338 221.177L316.391 211.149L326.495 210.228L325.549 200.2L335.652 199.278L334.706 189.25L354.913 187.407L355.86 197.435L365.964 196.514L366.91 206.542L437.642 200.09L436.696 190.063L446.8 189.141L445.853 179.113L455.957 178.192L454.064 158.136L221.669 179.331L222.615 189.359Z" fill="black"/>
<path d="M242.817 187.587L243.763 197.597L253.864 196.677L252.918 186.667L242.817 187.587ZM253.864 196.677L254.81 206.687L264.91 205.767L263.964 195.757L253.864 196.677ZM263.964 195.757L274.064 194.837L273.118 184.827L263.018 185.747L263.964 195.757ZM274.064 194.837L275.01 204.847L285.11 203.928L284.164 193.918L274.064 194.837ZM285.11 203.928L286.056 213.938L296.156 213.018L295.21 203.008L285.11 203.928ZM275.01 204.847L264.91 205.767L265.856 215.777L275.956 214.857L275.01 204.847Z" fill="white"/>
<path d="M364.1 176.452L374.201 175.532L375.147 185.545L385.248 184.624L384.302 174.612L394.403 173.692L395.349 183.704L405.45 182.784L406.396 192.797L396.295 193.717L395.349 183.704L385.248 184.624L386.194 194.637L376.093 195.557L375.147 185.545L365.046 186.465L364.1 176.452Z" fill="white"/>
</svg>
