<svg width="196" height="162" viewBox="0 0 196 162" fill="none" xmlns="http://www.w3.org/2000/svg">
<path fill-rule="evenodd" clip-rule="evenodd" d="M194.115 73.383C190.412 -6.6517 147.82 -3.39359 50.598 5.91211C-14.7285 12.1649 10.8704 29.9734 22.4084 36.0444C27.1093 38.518 29.4762 39.0431 22.4084 36.0444C21.0064 35.4496 19.2332 34.7161 17.0334 33.8317C-23.476 17.5455 27.45 105.956 27.45 124.569C27.45 139.459 7.7745 132.711 4.3021 139.692C0.829703 146.673 6.15393 131.083 27.45 147.835C54.0702 168.774 198.745 173.426 194.115 73.383ZM22.4084 36.0444C27.1093 38.518 29.4762 39.0431 22.4084 36.0444V36.0444Z" fill="#97ECFF"/>
<path d="M50.598 5.9121C147.82 -3.39359 190.412 -6.6517 194.115 73.383C198.745 173.426 54.0702 168.774 27.45 147.835C6.15393 131.083 0.829703 146.673 4.3021 139.692C7.7745 132.711 27.45 139.459 27.45 124.569C27.45 105.956 -23.476 17.5455 17.0334 33.8317C19.2332 34.7161 21.0064 35.4496 22.4084 36.0444M50.598 5.9121C-14.7285 12.1649 10.8704 29.9734 22.4084 36.0444M50.598 5.9121C-41.3445 14.7125 46.8234 46.403 22.4084 36.0444M22.4084 36.0444C27.1093 38.518 29.4762 39.0431 22.4084 36.0444Z" stroke="black" stroke-width="2"/>
<mask id="path-3-inside-1_230_1718" fill="white">
<path d="M126.636 59.7196C128.343 59.7196 129.011 58.8258 128.64 57.0381L127.156 50.1854C127.082 49.664 126.785 49.4405 126.414 49.4405C126.042 49.4405 125.82 49.664 125.671 50.1854L124.261 57.0381C123.89 58.8258 124.484 59.7196 126.191 59.7196H126.636ZM110.828 75.3616C109.492 75.3616 108.675 75.1382 108.304 74.6913C107.933 74.2444 107.933 73.4251 108.23 72.0843L115.132 40.0554C115.355 39.087 115.8 38.2676 116.542 37.6717C117.285 37.0759 118.101 36.778 119.14 36.778H133.687C134.652 36.778 135.542 37.0759 136.285 37.6717C137.027 38.2676 137.472 39.0125 137.695 40.0554L144.597 72.0843C144.894 73.3506 144.894 74.2444 144.523 74.6913C144.152 75.1382 143.335 75.3616 141.999 75.3616H135.171C134.132 75.3616 133.39 75.2127 132.945 74.8403C132.499 74.4679 132.128 73.7975 131.98 72.8291C131.757 71.7863 131.46 71.0415 131.015 70.7435C130.57 70.4456 129.828 70.2222 128.789 70.2222H124.113C123.074 70.2222 122.331 70.3711 121.886 70.7435C121.441 71.0415 121.144 71.7863 120.921 72.8291C120.699 73.7975 120.328 74.4679 119.957 74.8403C119.585 75.2127 118.843 75.3616 117.656 75.3616H110.828ZM88.0427 55.9208C89.6013 55.9208 90.7887 55.6229 91.6051 55.027C92.4957 54.4311 92.8669 53.3139 92.8669 51.6007C92.8669 49.8875 92.4215 48.7702 91.6051 48.1743C90.7145 47.5784 89.5271 47.3549 88.0427 47.3549H87.0778C86.5583 47.3549 86.1873 47.5039 85.8904 47.8018C85.5935 48.0998 85.4451 48.4722 85.4451 48.9936V54.2822C85.4451 54.8036 85.5935 55.1759 85.8904 55.4739C86.1873 55.7718 86.5583 55.9208 87.0778 55.9208H88.0427ZM76.0194 75.7341C75.0545 75.7341 74.2381 75.4362 73.6443 74.8403C73.0506 74.2444 72.7537 73.425 72.7537 72.4567V40.2042C72.7537 39.2359 73.0506 38.4166 73.6443 37.8208C74.2381 37.2249 75.0545 36.9269 76.0194 36.9269H90.4177C92.4958 36.9269 94.4997 37.1504 96.2809 37.5973C98.1364 38.0442 99.7692 38.8635 101.105 39.9063C102.515 41.0236 103.554 42.4389 104.371 44.2265C105.187 46.0142 105.558 48.2487 105.558 50.9302C105.558 53.3883 105.261 55.3994 104.593 56.8891C104 58.4533 103.257 59.6451 102.367 60.4644C101.402 61.3583 101.105 62.3266 101.55 63.2949L104.964 71.265C105.484 72.5313 105.558 73.4995 105.039 74.2444C104.593 74.9892 103.629 75.3616 102.293 75.3616H96.2809C95.4645 75.3616 94.6481 75.1382 93.9802 74.6913C93.3122 74.2444 92.7926 73.6485 92.4215 72.8291L88.9333 64.7102C88.6364 63.9653 88.0427 63.5929 87.2263 63.5929H86.9295C86.4099 63.5929 86.0388 63.7419 85.7419 64.0398C85.4451 64.3378 85.2966 64.7101 85.2966 65.2315V72.4567C85.2966 73.425 84.9998 74.2444 84.4061 74.8403C83.8123 75.4362 82.9959 75.7341 82.031 75.7341H75.8709H76.0194ZM70.2303 56.5167C70.8983 63.3694 69.8592 68.2855 67.0389 71.3394C64.2928 74.3934 59.914 75.8831 53.9023 75.8831C47.8907 75.8831 43.2891 74.2444 40.3946 71.0415C37.5001 67.8386 36.0157 62.848 36.0157 56.0698C36.0157 52.4945 36.3125 49.4406 36.9805 46.908C37.6484 44.3755 38.7618 42.3643 40.3204 40.8001C41.879 39.2359 43.9571 38.0442 46.4805 37.3739C49.0782 36.629 52.2695 36.3311 56.1288 36.3311H57.4648C58.207 36.3311 59.0976 36.3311 60.1367 36.3311C61.1757 36.3311 62.1405 36.3311 63.2538 36.3311C64.2929 36.3311 65.1835 36.331 65.8515 36.48C67.039 36.48 67.8554 36.8524 68.3749 37.4483C68.8944 38.0442 69.117 38.938 69.117 40.2042V44.0775C69.117 45.2693 68.8944 46.0142 68.3749 46.3866C67.8554 46.759 67.039 46.908 65.8515 46.908H56.3514C55.0897 46.908 53.9766 46.9825 53.0859 47.2059C52.1953 47.4294 51.5273 47.8763 50.9335 48.4722C50.414 49.1426 49.9687 50.0364 49.746 51.3027C49.5234 52.4945 49.375 54.1332 49.375 56.0698C49.375 58.0064 49.375 59.4962 49.5977 60.7624C49.7461 61.9542 49.9687 62.9226 50.3398 63.5929C50.7109 64.2633 51.1562 64.7846 51.8241 65.0081C52.4179 65.2315 53.1602 65.3805 54.125 65.3805C54.9414 65.3805 55.6836 65.2315 56.2031 65.0081C56.7226 64.7846 57.1679 64.1887 57.4648 63.3694C57.6132 62.7735 57.6132 62.3266 57.2421 61.8797C56.9453 61.5073 56.4258 61.2838 55.7578 61.2838C55.1641 61.2838 54.6444 61.0603 54.2733 60.6879C53.9023 60.3155 53.6797 59.7941 53.7539 59.1982V54.1332C53.7539 53.1649 53.9765 52.3455 54.6445 51.7496C55.2382 51.1537 56.0547 50.8558 57.0195 50.8558H66.4451C67.41 50.8558 68.2264 51.1537 68.8944 51.7496C69.5623 52.3455 69.9335 53.0904 70.0077 54.1332L70.2303 56.5167Z"/>
</mask>
<path d="M126.636 59.7196C128.343 59.7196 129.011 58.8258 128.64 57.0381L127.156 50.1854C127.082 49.664 126.785 49.4405 126.414 49.4405C126.042 49.4405 125.82 49.664 125.671 50.1854L124.261 57.0381C123.89 58.8258 124.484 59.7196 126.191 59.7196H126.636ZM110.828 75.3616C109.492 75.3616 108.675 75.1382 108.304 74.6913C107.933 74.2444 107.933 73.4251 108.23 72.0843L115.132 40.0554C115.355 39.087 115.8 38.2676 116.542 37.6717C117.285 37.0759 118.101 36.778 119.14 36.778H133.687C134.652 36.778 135.542 37.0759 136.285 37.6717C137.027 38.2676 137.472 39.0125 137.695 40.0554L144.597 72.0843C144.894 73.3506 144.894 74.2444 144.523 74.6913C144.152 75.1382 143.335 75.3616 141.999 75.3616H135.171C134.132 75.3616 133.39 75.2127 132.945 74.8403C132.499 74.4679 132.128 73.7975 131.98 72.8291C131.757 71.7863 131.46 71.0415 131.015 70.7435C130.57 70.4456 129.828 70.2222 128.789 70.2222H124.113C123.074 70.2222 122.331 70.3711 121.886 70.7435C121.441 71.0415 121.144 71.7863 120.921 72.8291C120.699 73.7975 120.328 74.4679 119.957 74.8403C119.585 75.2127 118.843 75.3616 117.656 75.3616H110.828ZM88.0427 55.9208C89.6013 55.9208 90.7887 55.6229 91.6051 55.027C92.4957 54.4311 92.8669 53.3139 92.8669 51.6007C92.8669 49.8875 92.4215 48.7702 91.6051 48.1743C90.7145 47.5784 89.5271 47.3549 88.0427 47.3549H87.0778C86.5583 47.3549 86.1873 47.5039 85.8904 47.8018C85.5935 48.0998 85.4451 48.4722 85.4451 48.9936V54.2822C85.4451 54.8036 85.5935 55.1759 85.8904 55.4739C86.1873 55.7718 86.5583 55.9208 87.0778 55.9208H88.0427ZM76.0194 75.7341C75.0545 75.7341 74.2381 75.4362 73.6443 74.8403C73.0506 74.2444 72.7537 73.425 72.7537 72.4567V40.2042C72.7537 39.2359 73.0506 38.4166 73.6443 37.8208C74.2381 37.2249 75.0545 36.9269 76.0194 36.9269H90.4177C92.4958 36.9269 94.4997 37.1504 96.2809 37.5973C98.1364 38.0442 99.7692 38.8635 101.105 39.9063C102.515 41.0236 103.554 42.4389 104.371 44.2265C105.187 46.0142 105.558 48.2487 105.558 50.9302C105.558 53.3883 105.261 55.3994 104.593 56.8891C104 58.4533 103.257 59.6451 102.367 60.4644C101.402 61.3583 101.105 62.3266 101.55 63.2949L104.964 71.265C105.484 72.5313 105.558 73.4995 105.039 74.2444C104.593 74.9892 103.629 75.3616 102.293 75.3616H96.2809C95.4645 75.3616 94.6481 75.1382 93.9802 74.6913C93.3122 74.2444 92.7926 73.6485 92.4215 72.8291L88.9333 64.7102C88.6364 63.9653 88.0427 63.5929 87.2263 63.5929H86.9295C86.4099 63.5929 86.0388 63.7419 85.7419 64.0398C85.4451 64.3378 85.2966 64.7101 85.2966 65.2315V72.4567C85.2966 73.425 84.9998 74.2444 84.4061 74.8403C83.8123 75.4362 82.9959 75.7341 82.031 75.7341H75.8709H76.0194ZM70.2303 56.5167C70.8983 63.3694 69.8592 68.2855 67.0389 71.3394C64.2928 74.3934 59.914 75.8831 53.9023 75.8831C47.8907 75.8831 43.2891 74.2444 40.3946 71.0415C37.5001 67.8386 36.0157 62.848 36.0157 56.0698C36.0157 52.4945 36.3125 49.4406 36.9805 46.908C37.6484 44.3755 38.7618 42.3643 40.3204 40.8001C41.879 39.2359 43.9571 38.0442 46.4805 37.3739C49.0782 36.629 52.2695 36.3311 56.1288 36.3311H57.4648C58.207 36.3311 59.0976 36.3311 60.1367 36.3311C61.1757 36.3311 62.1405 36.3311 63.2538 36.3311C64.2929 36.3311 65.1835 36.331 65.8515 36.48C67.039 36.48 67.8554 36.8524 68.3749 37.4483C68.8944 38.0442 69.117 38.938 69.117 40.2042V44.0775C69.117 45.2693 68.8944 46.0142 68.3749 46.3866C67.8554 46.759 67.039 46.908 65.8515 46.908H56.3514C55.0897 46.908 53.9766 46.9825 53.0859 47.2059C52.1953 47.4294 51.5273 47.8763 50.9335 48.4722C50.414 49.1426 49.9687 50.0364 49.746 51.3027C49.5234 52.4945 49.375 54.1332 49.375 56.0698C49.375 58.0064 49.375 59.4962 49.5977 60.7624C49.7461 61.9542 49.9687 62.9226 50.3398 63.5929C50.7109 64.2633 51.1562 64.7846 51.8241 65.0081C52.4179 65.2315 53.1602 65.3805 54.125 65.3805C54.9414 65.3805 55.6836 65.2315 56.2031 65.0081C56.7226 64.7846 57.1679 64.1887 57.4648 63.3694C57.6132 62.7735 57.6132 62.3266 57.2421 61.8797C56.9453 61.5073 56.4258 61.2838 55.7578 61.2838C55.1641 61.2838 54.6444 61.0603 54.2733 60.6879C53.9023 60.3155 53.6797 59.7941 53.7539 59.1982V54.1332C53.7539 53.1649 53.9765 52.3455 54.6445 51.7496C55.2382 51.1537 56.0547 50.8558 57.0195 50.8558H66.4451C67.41 50.8558 68.2264 51.1537 68.8944 51.7496C69.5623 52.3455 69.9335 53.0904 70.0077 54.1332L70.2303 56.5167Z" fill="black" stroke="black" stroke-width="2" mask="url(#path-3-inside-1_230_1718)"/>
<mask id="path-4-inside-2_230_1718" fill="white">
<path d="M126.636 103.925C128.343 103.925 129.011 103.031 128.64 101.243L127.156 94.3905C127.082 93.8691 126.785 93.6456 126.414 93.6456C126.042 93.6456 125.82 93.8691 125.671 94.3905L124.261 101.243C123.89 103.031 124.484 103.925 126.191 103.925H126.636ZM110.828 119.567C109.492 119.567 108.675 119.343 108.304 118.896C107.933 118.449 107.933 117.63 108.23 116.289L115.132 84.2604C115.355 83.2921 115.8 82.4727 116.542 81.8768C117.285 81.2809 118.101 80.983 119.14 80.983H133.687C134.652 80.983 135.542 81.2809 136.285 81.8768C137.027 82.4727 137.472 83.2176 137.695 84.2604L144.597 116.289C144.894 117.556 144.894 118.449 144.523 118.896C144.152 119.343 143.335 119.567 141.999 119.567H135.171C134.132 119.567 133.39 119.418 132.945 119.045C132.499 118.673 132.128 118.003 131.98 117.034C131.757 115.991 131.46 115.247 131.015 114.949C130.57 114.651 129.828 114.427 128.789 114.427H124.113C123.074 114.427 122.331 114.576 121.886 114.949C121.441 115.247 121.144 115.991 120.921 117.034C120.699 118.003 120.328 118.673 119.957 119.045C119.585 119.418 118.843 119.567 117.656 119.567H110.828ZM88.0427 100.126C89.6013 100.126 90.7887 99.828 91.6051 99.2321C92.4957 98.6362 92.8669 97.519 92.8669 95.8058C92.8669 94.0926 92.4215 92.9753 91.6051 92.3794C90.7145 91.7835 89.5271 91.56 88.0427 91.56H87.0778C86.5583 91.56 86.1873 91.709 85.8904 92.0069C85.5935 92.3049 85.4451 92.6773 85.4451 93.1987V98.4873C85.4451 99.0087 85.5935 99.381 85.8904 99.679C86.1873 99.9769 86.5583 100.126 87.0778 100.126H88.0427ZM76.0194 119.939C75.0545 119.939 74.2381 119.641 73.6443 119.045C73.0506 118.449 72.7537 117.63 72.7537 116.662V84.4093C72.7537 83.441 73.0506 82.6217 73.6443 82.0258C74.2381 81.4299 75.0545 81.132 76.0194 81.132H90.4177C92.4958 81.132 94.4997 81.3555 96.2809 81.8024C98.1364 82.2493 99.7692 83.0686 101.105 84.1114C102.515 85.2287 103.554 86.644 104.371 88.4316C105.187 90.2193 105.558 92.4538 105.558 95.1353C105.558 97.5934 105.261 99.6045 104.593 101.094C104 102.658 103.257 103.85 102.367 104.67C101.402 105.563 101.105 106.532 101.55 107.5L104.964 115.47C105.484 116.736 105.558 117.705 105.039 118.449C104.593 119.194 103.629 119.567 102.293 119.567H96.2809C95.4645 119.567 94.6481 119.343 93.9802 118.896C93.3122 118.449 92.7926 117.854 92.4215 117.034L88.9333 108.915C88.6364 108.17 88.0427 107.798 87.2263 107.798H86.9295C86.4099 107.798 86.0388 107.947 85.7419 108.245C85.4451 108.543 85.2966 108.915 85.2966 109.437V116.662C85.2966 117.63 84.9998 118.449 84.4061 119.045C83.8123 119.641 82.9959 119.939 82.031 119.939H75.8709H76.0194ZM70.2303 100.722C70.8983 107.574 69.8592 112.491 67.0389 115.545C64.2928 118.598 59.914 120.088 53.9023 120.088C47.8907 120.088 43.2891 118.45 40.3946 115.247C37.5001 112.044 36.0157 107.053 36.0157 100.275C36.0157 96.6995 36.3125 93.6457 36.9805 91.1131C37.6484 88.5806 38.7618 86.5694 40.3204 85.0052C41.879 83.441 43.9571 82.2493 46.4805 81.5789C49.0782 80.8341 52.2695 80.5361 56.1288 80.5361H57.4648C58.207 80.5361 59.0976 80.5361 60.1367 80.5361C61.1757 80.5361 62.1405 80.5361 63.2538 80.5361C64.2929 80.5361 65.1835 80.5361 65.8515 80.6851C67.039 80.6851 67.8554 81.0575 68.3749 81.6534C68.8944 82.2493 69.117 83.1431 69.117 84.4093V88.2826C69.117 89.4744 68.8944 90.2192 68.3749 90.5917C67.8554 90.9641 67.039 91.1131 65.8515 91.1131H56.3514C55.0897 91.1131 53.9766 91.1876 53.0859 91.411C52.1953 91.6345 51.5273 92.0814 50.9335 92.6773C50.414 93.3476 49.9687 94.2415 49.746 95.5078C49.5234 96.6995 49.375 98.3382 49.375 100.275C49.375 102.212 49.375 103.701 49.5977 104.968C49.7461 106.159 49.9687 107.128 50.3398 107.798C50.7109 108.468 51.1562 108.99 51.8241 109.213C52.4179 109.437 53.1602 109.586 54.125 109.586C54.9414 109.586 55.6836 109.437 56.2031 109.213C56.7226 108.99 57.1679 108.394 57.4648 107.574C57.6132 106.979 57.6132 106.532 57.2421 106.085C56.9453 105.712 56.4258 105.489 55.7578 105.489C55.1641 105.489 54.6444 105.265 54.2733 104.893C53.9023 104.521 53.6797 103.999 53.7539 103.403V98.3383C53.7539 97.37 53.9765 96.5506 54.6445 95.9547C55.2382 95.3588 56.0547 95.0609 57.0195 95.0609H66.4451C67.41 95.0609 68.2264 95.3588 68.8944 95.9547C69.5623 96.5506 69.9335 97.2955 70.0077 98.3383L70.2303 100.722Z"/>
</mask>
<path d="M126.636 103.925C128.343 103.925 129.011 103.031 128.64 101.243L127.156 94.3905C127.082 93.8691 126.785 93.6456 126.414 93.6456C126.042 93.6456 125.82 93.8691 125.671 94.3905L124.261 101.243C123.89 103.031 124.484 103.925 126.191 103.925H126.636ZM110.828 119.567C109.492 119.567 108.675 119.343 108.304 118.896C107.933 118.449 107.933 117.63 108.23 116.289L115.132 84.2604C115.355 83.2921 115.8 82.4727 116.542 81.8768C117.285 81.2809 118.101 80.983 119.14 80.983H133.687C134.652 80.983 135.542 81.2809 136.285 81.8768C137.027 82.4727 137.472 83.2176 137.695 84.2604L144.597 116.289C144.894 117.556 144.894 118.449 144.523 118.896C144.152 119.343 143.335 119.567 141.999 119.567H135.171C134.132 119.567 133.39 119.418 132.945 119.045C132.499 118.673 132.128 118.003 131.98 117.034C131.757 115.991 131.46 115.247 131.015 114.949C130.57 114.651 129.828 114.427 128.789 114.427H124.113C123.074 114.427 122.331 114.576 121.886 114.949C121.441 115.247 121.144 115.991 120.921 117.034C120.699 118.003 120.328 118.673 119.957 119.045C119.585 119.418 118.843 119.567 117.656 119.567H110.828ZM88.0427 100.126C89.6013 100.126 90.7887 99.828 91.6051 99.2321C92.4957 98.6362 92.8669 97.519 92.8669 95.8058C92.8669 94.0926 92.4215 92.9753 91.6051 92.3794C90.7145 91.7835 89.5271 91.56 88.0427 91.56H87.0778C86.5583 91.56 86.1873 91.709 85.8904 92.0069C85.5935 92.3049 85.4451 92.6773 85.4451 93.1987V98.4873C85.4451 99.0087 85.5935 99.381 85.8904 99.679C86.1873 99.9769 86.5583 100.126 87.0778 100.126H88.0427ZM76.0194 119.939C75.0545 119.939 74.2381 119.641 73.6443 119.045C73.0506 118.449 72.7537 117.63 72.7537 116.662V84.4093C72.7537 83.441 73.0506 82.6217 73.6443 82.0258C74.2381 81.4299 75.0545 81.132 76.0194 81.132H90.4177C92.4958 81.132 94.4997 81.3555 96.2809 81.8024C98.1364 82.2493 99.7692 83.0686 101.105 84.1114C102.515 85.2287 103.554 86.644 104.371 88.4316C105.187 90.2193 105.558 92.4538 105.558 95.1353C105.558 97.5934 105.261 99.6045 104.593 101.094C104 102.658 103.257 103.85 102.367 104.67C101.402 105.563 101.105 106.532 101.55 107.5L104.964 115.47C105.484 116.736 105.558 117.705 105.039 118.449C104.593 119.194 103.629 119.567 102.293 119.567H96.2809C95.4645 119.567 94.6481 119.343 93.9802 118.896C93.3122 118.449 92.7926 117.854 92.4215 117.034L88.9333 108.915C88.6364 108.17 88.0427 107.798 87.2263 107.798H86.9295C86.4099 107.798 86.0388 107.947 85.7419 108.245C85.4451 108.543 85.2966 108.915 85.2966 109.437V116.662C85.2966 117.63 84.9998 118.449 84.4061 119.045C83.8123 119.641 82.9959 119.939 82.031 119.939H75.8709H76.0194ZM70.2303 100.722C70.8983 107.574 69.8592 112.491 67.0389 115.545C64.2928 118.598 59.914 120.088 53.9023 120.088C47.8907 120.088 43.2891 118.45 40.3946 115.247C37.5001 112.044 36.0157 107.053 36.0157 100.275C36.0157 96.6995 36.3125 93.6457 36.9805 91.1131C37.6484 88.5806 38.7618 86.5694 40.3204 85.0052C41.879 83.441 43.9571 82.2493 46.4805 81.5789C49.0782 80.8341 52.2695 80.5361 56.1288 80.5361H57.4648C58.207 80.5361 59.0976 80.5361 60.1367 80.5361C61.1757 80.5361 62.1405 80.5361 63.2538 80.5361C64.2929 80.5361 65.1835 80.5361 65.8515 80.6851C67.039 80.6851 67.8554 81.0575 68.3749 81.6534C68.8944 82.2493 69.117 83.1431 69.117 84.4093V88.2826C69.117 89.4744 68.8944 90.2192 68.3749 90.5917C67.8554 90.9641 67.039 91.1131 65.8515 91.1131H56.3514C55.0897 91.1131 53.9766 91.1876 53.0859 91.411C52.1953 91.6345 51.5273 92.0814 50.9335 92.6773C50.414 93.3476 49.9687 94.2415 49.746 95.5078C49.5234 96.6995 49.375 98.3382 49.375 100.275C49.375 102.212 49.375 103.701 49.5977 104.968C49.7461 106.159 49.9687 107.128 50.3398 107.798C50.7109 108.468 51.1562 108.99 51.8241 109.213C52.4179 109.437 53.1602 109.586 54.125 109.586C54.9414 109.586 55.6836 109.437 56.2031 109.213C56.7226 108.99 57.1679 108.394 57.4648 107.574C57.6132 106.979 57.6132 106.532 57.2421 106.085C56.9453 105.712 56.4258 105.489 55.7578 105.489C55.1641 105.489 54.6444 105.265 54.2733 104.893C53.9023 104.521 53.6797 103.999 53.7539 103.403V98.3383C53.7539 97.37 53.9765 96.5506 54.6445 95.9547C55.2382 95.3588 56.0547 95.0609 57.0195 95.0609H66.4451C67.41 95.0609 68.2264 95.3588 68.8944 95.9547C69.5623 96.5506 69.9335 97.2955 70.0077 98.3383L70.2303 100.722Z" fill="black" stroke="black" stroke-width="2" mask="url(#path-4-inside-2_230_1718)"/>
</svg>
