<svg width="272" height="282" viewBox="0 0 272 282" fill="none" xmlns="http://www.w3.org/2000/svg">
<path d="M249.574 183.227C255.041 194.546 257.851 207.987 256.223 220.574C222.851 331.968 37.894 279.001 24.7622 244.121C-21.3519 185.391 6.66434 106.409 59.8868 142.516C56.437 143.729 45.7535 147.41 47.9792 146.665C63.6149 141.496 89.7115 129.956 116.406 134.699C123.083 142.502 124.572 143.646 124.53 143.688C103.511 127.006 97.9327 87.7976 104.29 65.8083C108.352 51.7462 116.615 35.9746 131.082 30.1705C136.132 28.1439 141.905 27.7441 147.191 26.6136C141.946 27.6062 136.257 25.9932 132.348 22.3949C130.386 20.5889 128.773 17.8592 129.649 15.3501C130.428 13.1167 132.877 11.8897 135.2 11.3934C141.459 10.0423 147.886 12.2344 153.91 14.3851C151.795 14.1093 149.625 13.8198 147.747 12.8272C145.869 11.8346 144.311 9.94584 144.339 7.83652C144.367 6.07187 145.494 4.44505 146.982 3.46622C148.47 2.48739 150.265 2.07382 152.032 1.89459C157.081 1.3845 162.284 2.63907 166.527 5.39635C169.323 7.21615 171.674 9.67012 173.398 12.4963C174.15 13.7371 175.068 15.2123 175.193 16.6874C175.304 18.0798 174.956 19.5274 175.04 20.9336C178.671 20.8784 182.26 20.3821 185.932 20.5476C189.605 20.713 193.305 21.2093 196.908 21.9814C204.155 23.5254 211.152 26.2138 217.537 29.9637C229.737 37.1326 239.697 48.465 242.827 62.403C245.985 81.1801 247.07 128.412 227.386 139.896C226.245 140.806 223.964 141.123 223.463 142.447C223.463 142.723 242.632 168.861 249.588 183.227H249.574Z" fill="#FBDF46"/>
<mask id="mask0_233_2925" style="mask-type:luminance" maskUnits="userSpaceOnUse" x="1" y="1" width="256" height="287">
<path d="M249.579 183.225C255.046 194.544 257.856 207.985 256.229 220.572C222.857 331.966 37.8996 278.999 24.7678 244.12C-21.3463 185.389 6.66995 106.407 59.8925 142.514C56.4426 143.727 45.7591 147.408 47.9849 146.664C63.6205 141.494 89.7171 129.954 116.412 134.697C123.089 142.5 124.577 143.644 124.536 143.686C103.517 127.004 97.9383 87.7956 104.296 65.8063C108.357 51.7442 116.62 35.9726 131.088 30.1685C136.137 28.1419 141.91 27.7421 147.196 26.6116C141.952 27.6042 136.262 25.9912 132.353 22.393C130.392 20.587 128.778 17.8573 129.655 15.3482C130.434 13.1148 132.882 11.8877 135.205 11.3914C141.465 10.0404 147.892 12.2324 153.915 14.3831C151.801 14.1074 149.631 13.8179 147.753 12.8252C145.875 11.8326 144.317 9.94389 144.345 7.83457C144.372 6.06991 145.499 4.4431 146.988 3.46427C148.476 2.48543 150.271 2.07186 152.037 1.89264C157.087 1.38254 162.289 2.63712 166.532 5.39439C169.328 7.2142 171.679 9.66817 173.404 12.4944C174.155 13.7352 175.073 15.2103 175.199 16.6855C175.31 18.0779 174.962 19.5254 175.046 20.9316C178.676 20.8765 182.265 20.3802 185.938 20.5456C189.61 20.7111 193.31 21.2074 196.913 21.9794C204.161 23.5235 211.158 26.2118 217.543 29.9617C229.743 37.1306 239.703 48.463 242.833 62.4011C245.99 81.1781 247.075 128.41 227.392 139.894C226.251 140.804 223.97 141.121 223.469 142.445C223.469 142.721 242.638 168.86 249.593 183.225H249.579Z" fill="white"/>
</mask>
<g mask="url(#mask0_233_2925)">
<path d="M243.604 156.192C235.425 159.404 233.895 161.237 233.881 162.699C233.853 164.574 236.273 165.263 236.245 167.124C236.218 169.509 232.239 171.384 228.887 172.597C232.281 174.762 237.442 178.636 242.032 184.84C244.578 188.286 255.359 202.9 250.977 216.107C248.417 223.8 242.77 224.848 242.032 233.037C241.907 234.374 241.49 240.854 245.454 245.541C251.325 252.49 264.79 253.096 272.789 248.409C290.567 237.986 283.764 200.005 279.104 184.054C277.825 179.67 269.548 152.497 257.028 152.014C254.496 151.918 250.866 153.338 243.618 156.178L243.604 156.192Z" fill="white"/>
<path d="M123.206 144.461C122.482 145.55 118.559 143.33 117.794 143.041C113.885 141.511 109.698 140.256 105.497 140.063C97.7628 139.718 90.0563 140.876 82.5723 142.738C75.0883 144.599 67.966 146.653 60.6768 148.831C55.7385 150.306 50.8001 151.781 45.8618 153.257C44.9854 153.519 44.0812 153.78 43.1631 153.684C42.245 153.587 41.3269 153.022 41.1043 152.14C40.7844 150.913 41.8973 149.796 42.9266 149.038C44.429 147.935 46.0148 146.942 47.6702 146.074C48.5465 145.619 51.7043 144.888 51.7043 143.675C51.3009 140.325 16.691 136.975 9.77732 149.796C8.40016 152.36 9.24873 153.477 7.53771 156.441C2.64113 164.934 -11.8539 168.766 -16.1245 165.044C-22.4678 159.488 -9.22471 116.282 23.8272 106.948C36.486 103.377 52.9702 107.293 64.0431 112.159C69.83 114.71 72.9043 117.109 82.1827 120.5C94.146 124.87 96.8029 123.726 104.523 127.531C115.888 133.128 124.388 142.627 123.192 144.461H123.206Z" fill="white"/>
<path d="M183.272 15.8898C182.243 24.7131 213.208 24.8372 228.218 49.1012C237.552 64.1698 238.234 84.5322 238.47 91.7012C239.054 109.21 235.132 120.239 241.67 125.202C246.107 128.566 254.175 128.249 259.267 124.609C275.57 112.987 264.163 65.314 243.214 33.8535C227.147 9.74109 212.986 7.32847 209.703 6.88731C197.851 5.30187 183.968 10.0857 183.286 15.876L183.272 15.8898Z" fill="white"/>
<path d="M11.7397 133.529C16.831 135.762 3.05935 162.26 12.2126 193.21C16.2885 206.983 23.6056 217.254 29.5594 224.078C27.0554 212.042 24.8714 197.374 29.1698 195.554C32.3971 194.189 37.405 200.848 41.7869 204.929C70.4152 231.605 127.213 199.497 143.92 221.734C150.541 230.544 146.716 242.372 146.284 243.613C141.902 256.504 125.933 265.23 105.665 265.892C115.959 270.455 135.072 277.183 159.291 275.667C201.051 273.033 227.829 247.735 235.007 240.498C223.113 242.91 213.557 240.07 211.345 234.638C210.9 233.535 210.469 231.647 211.345 228.779C216.353 231.357 223.016 233.673 230.389 232.598C241.225 231.013 246.372 221.5 247.304 222.575C248.181 223.609 242.63 231.04 244.077 235.81C245.538 240.677 255.748 238.94 258.266 242.579C263.649 250.341 234.131 291.549 192.023 313.179C140.428 339.691 48.4501 347.838 1.96041 290.515C-25.8054 256.269 -30.7298 206.983 -17.2364 171.455C-8.70911 149.025 7.31609 131.585 11.7397 133.529Z" fill="#E4A02B"/>
<path d="M242.809 149.55C234.671 165.088 211.594 163.227 177.749 160.497C174.41 160.221 167.942 159.49 165.925 155.41C164.297 152.129 166.926 149.399 165.535 146.807C163.045 142.189 151.624 145.056 142.666 144.849C127.308 144.505 116.013 135.075 107.569 128.044C105.468 126.293 73.4877 98.9131 81.1525 70.2098C85.4231 54.2176 100.683 42.6508 104.411 44.8015C108.056 46.9108 97.595 60.3526 99.6816 78.7987C102.937 107.723 134.431 126.127 143.055 131.159C162.35 142.437 181.491 145.428 194.706 146.007C186.624 147.014 179.404 144.215 176.566 138.976C172.546 131.532 179.154 122.46 180.503 120.613C190.755 106.537 219.203 98.0583 235.311 113.182C245.105 122.378 248.527 138.59 242.809 149.523V149.55Z" fill="#E4A02B"/>
</g>
<path d="M249.574 183.227C255.041 194.546 257.851 207.987 256.223 220.574C222.851 331.968 37.894 279.001 24.7622 244.121C-21.3519 185.391 6.66434 106.409 59.8868 142.516C56.437 143.729 45.7535 147.41 47.9792 146.665C63.6149 141.496 89.7115 129.956 116.406 134.699C123.083 142.502 124.572 143.646 124.53 143.688C103.511 127.006 97.9327 87.7976 104.29 65.8083C108.352 51.7462 116.615 35.9746 131.082 30.1705C136.132 28.1439 141.905 27.7441 147.191 26.6136C141.946 27.6062 136.257 25.9932 132.348 22.3949C130.386 20.5889 128.773 17.8592 129.649 15.3501C130.428 13.1167 132.877 11.8897 135.2 11.3934C141.459 10.0423 147.886 12.2344 153.91 14.3851C151.795 14.1093 149.625 13.8198 147.747 12.8272C145.869 11.8346 144.311 9.94584 144.339 7.83652C144.367 6.07187 145.494 4.44505 146.982 3.46622C148.47 2.48739 150.265 2.07382 152.032 1.89459C157.081 1.3845 162.284 2.63907 166.527 5.39635C169.323 7.21615 171.674 9.67012 173.398 12.4963C174.15 13.7371 175.068 15.2123 175.193 16.6874C175.304 18.0798 174.956 19.5274 175.04 20.9336C178.671 20.8784 182.26 20.3821 185.932 20.5476C189.605 20.713 193.305 21.2093 196.908 21.9814C204.155 23.5254 211.152 26.2138 217.537 29.9637C229.737 37.1326 239.697 48.465 242.827 62.403C245.985 81.1801 247.07 128.412 227.386 139.896C226.245 140.806 223.964 141.123 223.463 142.447C223.463 142.723 242.632 168.861 249.588 183.227H249.574Z" stroke="black" stroke-width="2.4" stroke-linecap="round" stroke-linejoin="round"/>
<path d="M259.265 141.664C257.916 145.538 253.006 147.344 248.053 148.764C246.495 149.219 239.29 151.659 228.773 150.391C223.584 149.77 220.107 148.557 214.473 146.6C208.06 144.38 202.704 141.54 191.993 135.846C183.883 131.545 181.574 130.001 180.531 126.982C179.501 123.962 179.765 119.275 182.367 116.849C187.792 111.775 198.698 125.3 217.519 125.81C231.583 126.196 235.381 119.054 245.229 122.763C253.979 126.058 261.366 135.612 259.265 141.65V141.664Z" fill="#FF1A46"/>
<mask id="mask1_233_2925" style="mask-type:luminance" maskUnits="userSpaceOnUse" x="179" y="115" width="81" height="36">
<path d="M259.262 141.666C257.912 145.54 253.002 147.346 248.05 148.766C246.492 149.221 239.286 151.661 228.769 150.393C223.581 149.772 220.103 148.559 214.469 146.602C208.056 144.382 202.7 141.542 191.989 135.848C183.879 131.547 181.57 130.003 180.527 126.984C179.497 123.964 179.762 119.277 182.363 116.851C187.788 111.777 198.694 125.302 217.515 125.812C231.579 126.198 235.377 119.056 245.226 122.765C253.976 126.06 261.362 135.614 259.262 141.652V141.666Z" fill="white"/>
</mask>
<g mask="url(#mask1_233_2925)">
<path d="M256.637 131.2C255.705 136.604 242.086 138.493 237.232 139.169C217.576 141.898 199.033 136.204 199.311 133.833C199.533 131.834 212.707 135.46 228.482 128.498C236.745 124.844 240.083 120.791 246.134 121.729C251.838 122.611 257.291 127.505 256.637 131.214V131.2Z" fill="#DB2046"/>
<path d="M261.492 128.995C259.239 124.583 253.076 122.694 251.922 123.976C250.656 125.369 256.387 129.394 255.497 134.95C254.718 139.789 249.293 143.65 245.231 145.276C240.626 147.124 236.787 146.49 236.175 148.489C235.785 149.743 236.856 151.453 238.15 152.321C242.81 155.451 254.161 150.102 259.28 141.651C260.519 139.61 263.996 133.875 261.492 128.981V128.995Z" fill="white"/>
</g>
<path d="M259.265 141.664C257.916 145.538 253.006 147.344 248.053 148.764C246.495 149.219 239.29 151.659 228.773 150.391C223.584 149.77 220.107 148.557 214.473 146.6C208.06 144.38 202.704 141.54 191.993 135.846C183.883 131.545 181.574 130.001 180.531 126.982C179.501 123.962 179.765 119.275 182.367 116.849C187.792 111.775 198.698 125.3 217.519 125.81C231.583 126.196 235.381 119.054 245.229 122.763C253.979 126.058 261.366 135.612 259.265 141.65V141.664Z" stroke="black" stroke-width="2.4" stroke-miterlimit="22.93"/>
<path d="M267.268 126.356C271.566 123.778 272.095 116.044 266.878 112.156C264.486 109.867 258.323 108.861 252.356 108.186C251.215 108.061 248.155 108.02 244.023 107.289C241.895 106.903 240.17 106.476 239.015 106.173C234.355 102.326 220.903 92.9929 212.223 95.5847C208.912 96.5773 205.769 99.3071 203 104.739C196.643 115.437 193.054 112.252 182.496 115.933C176.653 117.726 174.608 125.308 181.313 127.004C187.615 129.816 208.578 136.682 210.095 136.379C214.004 137.027 221.919 137.771 230.919 134.559C236.929 132.408 241.255 129.265 243.898 126.976C246.402 125.749 251.66 123.612 258.421 124.136C262.163 124.426 265.195 125.446 267.282 126.356H267.268Z" fill="#FF1A46"/>
<mask id="mask2_233_2925" style="mask-type:luminance" maskUnits="userSpaceOnUse" x="177" y="95" width="94" height="42">
<path d="M267.271 126.354C271.569 123.776 272.098 116.042 266.881 112.154C264.488 109.866 258.326 108.859 252.358 108.184C251.218 108.059 248.157 108.018 244.026 107.287C241.897 106.901 240.173 106.474 239.018 106.171C234.358 102.324 220.906 92.9909 212.226 95.5828C208.915 96.5754 205.771 99.3051 203.003 104.737C196.646 115.435 193.057 112.251 182.499 115.932C176.656 117.724 174.611 125.306 181.316 127.002C187.618 129.814 208.581 136.68 210.097 136.377C214.006 137.025 221.922 137.769 230.922 134.557C236.931 132.406 241.257 129.263 243.901 126.974C246.404 125.747 251.663 123.61 258.423 124.134C262.165 124.424 265.198 125.444 267.284 126.354H267.271Z" fill="white"/>
</mask>
<g mask="url(#mask2_233_2925)">
<path d="M266.157 129.744C265.128 128.269 267.409 124.078 266.811 119.584C266.24 115.296 261.483 114.372 258.005 113.655C253.957 112.828 246.112 112.373 238.461 114.317C225.426 117.64 222.894 119.556 222.422 118.867C221.531 117.543 228.028 114.028 234.037 112.056C237.654 110.871 240.492 107.879 244.999 105.577C257.004 99.4692 262.999 96.4224 268.257 98.5455C274.295 100.986 278.287 108.913 277.327 116.137C276.604 121.596 273.071 126.408 268.647 128.641C266.38 129.785 266.825 130.723 266.143 129.744H266.157Z" fill="white"/>
<path d="M239.116 109.271C236.361 109.492 231.854 106.431 226.944 103.812C222.45 101.413 218.82 99.469 214.716 100.007C212.017 100.365 203.643 102.571 201.501 101.468C197.564 99.4691 190.47 94.2303 195.408 88.371C201.932 80.6369 216.26 84.4695 221.338 85.8343C222.367 86.11 231.006 88.5365 237.905 95.8984C242.19 100.462 241.856 102.723 241.647 103.522C241.021 105.962 241.675 109.064 239.129 109.271H239.116Z" fill="white"/>
</g>
<path d="M267.268 126.356C271.566 123.778 272.095 116.044 266.878 112.156C264.486 109.867 258.323 108.861 252.356 108.186C251.215 108.061 248.155 108.02 244.023 107.289C241.895 106.903 240.17 106.476 239.015 106.173C234.355 102.326 220.903 92.9929 212.223 95.5847C208.912 96.5773 205.769 99.3071 203 104.739C196.643 115.437 193.054 112.252 182.496 115.933C176.653 117.726 174.608 125.308 181.313 127.004C187.615 129.816 208.578 136.682 210.095 136.379C214.004 137.027 221.919 137.771 230.919 134.559C236.929 132.408 241.255 129.265 243.898 126.976C246.402 125.749 251.66 123.612 258.421 124.136C262.163 124.426 263.508 125.446 265.595 126.356H267.268Z" stroke="black" stroke-width="2.4" stroke-miterlimit="22.93"/>
<path d="M147.401 208.555C146.692 203.909 144.411 193.404 135.772 184.126C134.687 182.954 129.401 177.425 120.387 173.372C112.291 169.733 104.292 169.402 88.6425 168.878C85.29 168.767 76.2202 168.933 58.0806 169.264C53.4762 169.347 30.4121 167.761 28.3116 177.081C27.2544 181.768 37.5345 191.887 43.224 191.474C42.9179 191.253 37.6596 190.109 34.4184 190.564C34.168 190.605 31.2467 191.846 30.273 194.672C28.5759 199.594 34.2932 205.288 37.1727 208.155C39.0646 210.044 42.1249 213.022 47.2302 214.607C50.2766 215.545 52.6554 216.041 54.4221 215.972C50.8749 214.111 46.7016 213.89 41.9024 214.8C41.0956 214.952 40.3583 215.765 39.927 216.758C38.216 220.715 45.3801 227.236 47.8145 229.455C51.3478 232.667 63.2693 242.718 86.4585 247.24C94.8606 248.88 100.967 250.066 109.328 248.798C114.391 248.039 126.661 245.999 136.342 235.7C138.707 233.191 144.856 225.981 146.789 215.186C147.276 212.484 147.374 210.182 147.388 208.541L147.401 208.555Z" fill="#FBDF46"/>
<mask id="mask3_233_2925" style="mask-type:luminance" maskUnits="userSpaceOnUse" x="28" y="168" width="120" height="82">
<path d="M147.4 208.559C146.691 203.913 144.409 193.408 135.771 184.129C134.686 182.958 129.4 177.429 120.385 173.376C112.289 169.736 104.291 169.406 88.6411 168.882C85.2887 168.771 76.2189 168.937 58.0793 169.268C53.4748 169.35 30.4108 167.765 28.3103 177.085C27.253 181.772 37.5331 191.891 43.2226 191.478C42.9166 191.257 37.6583 190.113 34.4171 190.568C34.1667 190.609 31.2454 191.85 30.2716 194.676C28.5745 199.598 34.2919 205.292 37.1714 208.159C39.0633 210.048 42.1236 213.026 47.2288 214.611C50.2753 215.549 52.6541 216.045 54.4207 215.976C50.8735 214.115 46.7003 213.894 41.9011 214.804C41.0943 214.956 40.3569 215.769 39.9257 216.762C38.2147 220.718 45.3788 227.239 47.8131 229.459C51.3465 232.671 63.2679 242.722 86.4571 247.244C94.8592 248.884 100.966 250.07 109.326 248.801C114.39 248.043 126.659 246.003 136.341 235.704C138.706 233.195 144.854 225.985 146.788 215.19C147.275 212.488 147.372 210.186 147.386 208.545L147.4 208.559Z" fill="white"/>
</mask>
<g mask="url(#mask3_233_2925)">
<path d="M20.5647 189.408C13.7206 196.439 23.9589 218.111 34.7537 231.222C36.6873 233.566 61.6988 262.903 99.8142 260.146C117.286 258.877 146.471 250.206 148.933 232.325C149.364 229.154 149.587 221.089 139.905 210.432C138.528 216.443 136.093 220.744 133.729 223.791C118.802 243.009 84.5124 240.693 63.535 231.994C53.8392 227.968 44.6025 221.585 45.3954 219.49C46.2579 217.215 58.9723 219.862 59.1948 218.704C59.4035 217.628 48.0941 216.98 41.4447 208.929C38.0922 204.876 35.5883 198.534 37.8975 195.253C40.3736 191.724 47.2455 193.378 47.3568 192.523C47.5515 191.021 27.0749 182.68 20.5368 189.394L20.5647 189.408Z" fill="#E4A02B"/>
<path d="M139.92 210.432C136.874 195.681 124.869 188.029 121.113 185.63C112.53 180.157 103.391 178.282 80.3684 178.337C65.8456 178.379 46.3149 179.178 23.1257 182.377C22.9727 177.745 23.696 172.451 27.0068 168.177C36.5356 155.852 60.9629 160.346 95.4477 166.716C124.034 171.982 131.81 176.89 135.469 179.192C147.377 186.706 156.933 198.562 159.493 212.321C160.466 217.587 160.369 223.267 157.823 227.982C155.278 232.711 149.866 236.158 144.539 235.234C144.483 233.979 144.427 232.738 144.372 231.484C144.26 228.961 138.14 231.443 137.444 232.118C139.03 228.465 141.951 220.248 139.92 210.432Z" fill="white"/>
</g>
<path d="M147.401 208.555C146.692 203.909 144.411 193.404 135.772 184.126C134.687 182.954 129.401 177.425 120.387 173.372C112.291 169.733 104.292 169.402 88.6425 168.878C85.29 168.767 76.2202 168.933 58.0806 169.264C53.4762 169.347 30.4121 167.761 28.3116 177.081C27.2544 181.768 37.5345 191.887 43.224 191.474C42.9179 191.253 37.6596 190.109 34.4184 190.564C34.168 190.605 31.2467 191.846 30.273 194.672C28.5759 199.594 34.2932 205.288 37.1727 208.155C39.0646 210.044 42.1249 213.022 47.2302 214.607C50.2766 215.545 52.6554 216.041 54.4221 215.972C50.8749 214.111 46.7016 213.89 41.9024 214.8C41.0956 214.952 40.3583 215.765 39.927 216.758C38.216 220.715 45.3801 227.236 47.8145 229.455C51.3478 232.667 63.2693 242.718 86.4585 247.24C94.8606 248.88 100.967 250.066 109.328 248.798C114.391 248.039 126.661 245.999 136.342 235.7C138.707 233.191 144.856 225.981 146.789 215.186C147.276 212.484 147.374 210.182 147.388 208.541L147.401 208.555Z" stroke="black" stroke-width="2.4" stroke-miterlimit="22.93"/>
<path d="M214.323 108.905C213.767 110.587 215.018 112.793 216.785 112.917C218.204 112.999 219.623 111.717 219.748 110.187C219.887 108.533 218.482 106.947 216.883 106.961C215.686 106.961 214.657 107.885 214.323 108.919V108.905Z" fill="black"/>
<path d="M230.389 113.387C233.602 108.907 239.334 106.273 244.898 106.839C250.254 107.445 255.275 108.3 260.422 109.775C255.261 110.065 249.906 109.872 244.828 109.83C239.737 110.092 235.383 111.871 230.389 113.401V113.387Z" fill="black"/>
<path d="M173.479 79.4298C165.035 79.292 157.037 86.006 155.771 94.2778C155.479 96.2079 155.562 98.331 156.8 99.8475C158.038 101.364 160.709 101.764 161.892 100.22C162.545 99.3512 162.587 98.1931 162.74 97.1315C163.45 92.2512 167.512 88.0187 172.408 87.0951C177.305 86.1714 182.646 88.5978 185.136 92.8716C185.846 94.0985 186.416 95.5324 187.64 96.263C190.409 97.9036 190.812 94.7879 190.339 93.0094C189.657 90.4865 188.517 88.1842 186.847 86.1576C183.592 82.2009 178.654 79.5263 173.465 79.4436L173.479 79.4298Z" fill="black"/>
<path d="M237.916 77.224C230.919 74.2737 221.946 77.1827 218.065 83.6623C217.161 85.165 216.507 86.9848 217.022 88.6667C217.537 90.3487 219.623 91.5757 221.154 90.6933C222.002 90.197 222.419 89.2457 222.92 88.391C225.188 84.5584 230.029 82.3939 234.424 83.2624C238.82 84.131 242.465 87.9498 243.077 92.3615C243.258 93.6298 243.23 95.0085 244.009 96.0424C245.748 98.3448 247.167 95.877 247.375 94.2364C247.667 91.9065 247.514 89.5904 246.819 87.3432C245.456 82.9454 242.256 79.0576 237.944 77.2378L237.916 77.224Z" fill="black"/>
</svg>
