<svg width="478" height="90" viewBox="0 0 478 90" fill="none" xmlns="http://www.w3.org/2000/svg">
<path d="M34.6797 0.68334V15.6813C34.6797 16.0555 34.3776 16.3644 33.9985 16.3644H25.4974C20.4263 16.3644 16.315 20.4866 16.315 25.5711V34.0947C16.315 34.4689 16.0129 34.7778 15.6337 34.7778H0.681272C0.308054 34.7778 0 34.4749 0 34.0947V19.0967C0 18.7225 0.30213 18.4136 0.681272 18.4136H9.18237C14.2534 18.4136 18.3647 14.2914 18.3647 9.20695V0.68334C18.3647 0.309133 18.6669 0.000263006 19.046 0.000263006H34.0044C34.3776 0.000263006 34.6857 0.303193 34.6857 0.68334H34.6797Z" fill="url(#paint0_radial_230_1725)"/>
<path d="M71.3944 70.9028V55.9049C71.3944 55.5306 71.0923 55.2218 70.7131 55.2218H62.212C57.141 55.2218 53.0297 51.0996 53.0297 46.0151V37.4915C53.0297 37.1173 52.7275 36.8084 52.3484 36.8084H37.39C37.0168 36.8084 36.7087 37.1113 36.7087 37.4915V52.4895C36.7087 52.8637 37.0109 53.1725 37.39 53.1725H45.8911C50.9621 53.1725 55.0735 57.2948 55.0735 62.3792V70.9028C55.0735 71.2771 55.3756 71.5859 55.7547 71.5859H70.7131C71.0863 71.5859 71.3944 71.283 71.3944 70.9028Z" fill="url(#paint1_radial_230_1725)"/>
<path d="M34.6798 89.3167V74.3187C34.6798 73.9445 34.3776 73.6356 33.9985 73.6356H25.4974C20.4264 73.6356 16.315 69.5134 16.315 64.4289V55.9053C16.315 55.5311 16.0129 55.2222 15.6338 55.2222H0.681318C0.3081 55.2222 4.6012e-05 55.5251 4.6012e-05 55.9053V70.9033C4.6012e-05 71.2775 0.302176 71.5864 0.681318 71.5864H9.18241C14.2534 71.5864 18.3648 75.7086 18.3648 80.7931V89.3167C18.3648 89.6909 18.6669 89.9997 19.0461 89.9997H34.0044C34.3776 89.9997 34.6857 89.6968 34.6857 89.3167H34.6798Z" fill="url(#paint2_radial_230_1725)"/>
<path d="M15.6397 36.8148H0.681318C0.305062 36.8148 4.6012e-05 37.1207 4.6012e-05 37.4979V52.4959C4.6012e-05 52.8732 0.305062 53.179 0.681318 53.179H15.6397C16.0159 53.179 16.321 52.8732 16.321 52.4959V37.4979C16.321 37.1207 16.0159 36.8148 15.6397 36.8148Z" fill="url(#paint3_radial_230_1725)"/>
<path d="M52.326 0.000131503H37.3676C36.9914 0.000131503 36.6863 0.305956 36.6863 0.683209V15.6812C36.6863 16.0585 36.9914 16.3643 37.3676 16.3643H52.326C52.7022 16.3643 53.0073 16.0585 53.0073 15.6812V0.683209C53.0073 0.305956 52.7022 0.000131503 52.326 0.000131503Z" fill="url(#paint4_radial_230_1725)"/>
<path d="M70.6677 0.000131503H55.7093C55.333 0.000131503 55.028 0.305956 55.028 0.683209V15.6812C55.028 16.0585 55.333 16.3643 55.7093 16.3643H70.6677C71.0439 16.3643 71.3489 16.0585 71.3489 15.6812V0.683209C71.3489 0.305956 71.0439 0.000131503 70.6677 0.000131503Z" fill="url(#paint5_radial_230_1725)"/>
<path d="M52.3579 73.6358H37.3996C37.0233 73.6358 36.7183 73.9417 36.7183 74.3189V89.3169C36.7183 89.6942 37.0233 90 37.3996 90H52.3579C52.7342 90 53.0392 89.6942 53.0392 89.3169V74.3189C53.0392 73.9417 52.7342 73.6358 52.3579 73.6358Z" fill="url(#paint6_radial_230_1725)"/>
<path d="M70.7154 73.6358H55.757C55.3808 73.6358 55.0757 73.9417 55.0757 74.3189V89.3169C55.0757 89.6942 55.3808 90 55.757 90H70.7154C71.0916 90 71.3967 89.6942 71.3967 89.3169V74.3189C71.3967 73.9417 71.0916 73.6358 70.7154 73.6358Z" fill="url(#paint7_radial_230_1725)"/>
<path d="M359.999 89.3167V74.3187C359.999 73.9445 359.696 73.6356 359.317 73.6356H350.816C345.745 73.6356 341.634 69.5134 341.634 64.4289V55.9053C341.634 55.5311 341.332 55.2222 340.953 55.2222H325.994C325.621 55.2222 325.313 55.5251 325.313 55.9053V70.9033C325.313 71.2775 325.615 71.5864 325.994 71.5864H334.495C339.566 71.5864 343.678 75.7086 343.678 80.7931V89.3167C343.678 89.6909 343.98 89.9997 344.359 89.9997H359.317C359.691 89.9997 359.999 89.6968 359.999 89.3167Z" fill="url(#paint8_radial_230_1725)"/>
<path d="M362.037 89.3167V74.3187C362.037 73.9445 362.34 73.6356 362.719 73.6356H371.22C376.291 73.6356 380.402 69.5134 380.402 64.4289V55.9053C380.402 55.5311 380.704 55.2222 381.083 55.2222H396.042C396.415 55.2222 396.723 55.5251 396.723 55.9053V70.9033C396.723 71.2775 396.421 71.5864 396.042 71.5864H387.541C382.47 71.5864 378.358 75.7086 378.358 80.7931V89.3167C378.358 89.6909 378.056 89.9997 377.677 89.9997H362.719C362.346 89.9997 362.037 89.6968 362.037 89.3167Z" fill="url(#paint9_radial_230_1725)"/>
<path d="M340.959 0.000131503H326C325.624 0.000131503 325.319 0.305955 325.319 0.683208V15.6812C325.319 16.0585 325.624 16.3643 326 16.3643H340.959C341.335 16.3643 341.64 16.0585 341.64 15.6812V0.683208C341.64 0.305955 341.335 0.000131503 340.959 0.000131503Z" fill="url(#paint10_radial_230_1725)"/>
<path d="M396.041 0.000131503H381.082C380.706 0.000131503 380.401 0.305955 380.401 0.683208V15.6812C380.401 16.0585 380.706 16.3643 381.082 16.3643H396.041C396.417 16.3643 396.722 16.0585 396.722 15.6812V0.683208C396.722 0.305955 396.417 0.000131503 396.041 0.000131503Z" fill="url(#paint11_radial_230_1725)"/>
<path d="M340.959 36.8148H326C325.624 36.8148 325.319 37.1207 325.319 37.4979V52.4959C325.319 52.8732 325.624 53.179 326 53.179H340.959C341.335 53.179 341.64 52.8732 341.64 52.4959V37.4979C341.64 37.1207 341.335 36.8148 340.959 36.8148Z" fill="url(#paint12_radial_230_1725)"/>
<path d="M396.041 36.8148H381.082C380.706 36.8148 380.401 37.1207 380.401 37.4979V52.4959C380.401 52.8732 380.706 53.179 381.082 53.179H396.041C396.417 53.179 396.722 52.8732 396.722 52.4959V37.4979C396.722 37.1207 396.417 36.8148 396.041 36.8148Z" fill="url(#paint13_radial_230_1725)"/>
<path d="M396.041 18.4058H381.082C380.706 18.4058 380.401 18.7117 380.401 19.0889V34.0869C380.401 34.4642 380.706 34.77 381.082 34.77H396.041C396.417 34.77 396.722 34.4642 396.722 34.0869V19.0889C396.722 18.7117 396.417 18.4058 396.041 18.4058Z" fill="url(#paint14_radial_230_1725)"/>
<path d="M340.959 18.4058H326C325.624 18.4058 325.319 18.7117 325.319 19.0889V34.0869C325.319 34.4642 325.624 34.77 326 34.77H340.959C341.335 34.77 341.64 34.4642 341.64 34.0869V19.0889C341.64 18.7117 341.335 18.4058 340.959 18.4058Z" fill="url(#paint15_radial_230_1725)"/>
<path d="M81.2705 70.9028V55.9049C81.2705 55.5306 81.5726 55.2218 81.9518 55.2218H90.4529C95.5239 55.2218 99.6352 51.0996 99.6352 46.0151V37.4915C99.6352 37.1173 99.9374 36.8084 100.317 36.8084H115.275C115.648 36.8084 115.956 37.1113 115.956 37.4915V52.4895C115.956 52.8637 115.654 53.1725 115.275 53.1725H106.774C101.703 53.1725 97.5914 57.2948 97.5914 62.3792V70.9028C97.5914 71.2771 97.2893 71.5859 96.9102 71.5859H81.9518C81.5786 71.5859 81.2705 71.283 81.2705 70.9028Z" fill="url(#paint16_radial_230_1725)"/>
<path d="M134.31 43.9725V46.0158C134.31 51.1002 138.421 55.2225 143.492 55.2225H151.993C152.372 55.2225 152.674 55.5254 152.674 55.9055V70.9035C152.674 71.2837 152.372 71.5866 151.993 71.5866H137.035C136.656 71.5866 136.353 71.2837 136.353 70.9035V62.3799C136.353 57.2955 132.242 53.1732 127.171 53.1732H118.67C118.291 53.1732 117.989 52.8703 117.989 52.4902V37.4922C117.989 37.112 118.291 36.8091 118.67 36.8091H127.171C132.242 36.8091 136.353 32.6869 136.353 27.6024V25.5591C136.353 20.4746 132.242 16.3524 127.171 16.3524H118.67C118.291 16.3524 117.989 16.0495 117.989 15.6693V0.683209C117.989 0.303061 118.291 0.000131503 118.67 0.000131503H133.628C134.008 0.000131503 134.31 0.303061 134.31 0.683209V9.20682C134.31 14.2913 138.421 18.4135 143.492 18.4135H151.993C152.372 18.4135 152.674 18.7164 152.674 19.0966V34.0946C152.674 34.4747 152.372 34.7777 151.993 34.7777H143.492C138.421 34.7777 134.31 38.8999 134.31 43.9844V43.9725Z" fill="url(#paint17_radial_230_1725)"/>
<path d="M96.9101 73.6358H81.9518C81.5755 73.6358 81.2705 73.9417 81.2705 74.3189V89.3169C81.2705 89.6942 81.5755 90 81.9518 90H96.9101C97.2864 90 97.5914 89.6942 97.5914 89.3169V74.3189C97.5914 73.9417 97.2864 73.6358 96.9101 73.6358Z" fill="url(#paint18_radial_230_1725)"/>
<path d="M96.9101 18.4058H81.9518C81.5755 18.4058 81.2705 18.7117 81.2705 19.0889V34.0869C81.2705 34.4642 81.5755 34.77 81.9518 34.77H96.9101C97.2864 34.77 97.5914 34.4642 97.5914 34.0869V19.0889C97.5914 18.7117 97.2864 18.4058 96.9101 18.4058Z" fill="url(#paint19_radial_230_1725)"/>
<path d="M96.9101 0.000131503H81.9518C81.5755 0.000131503 81.2705 0.305955 81.2705 0.683208V15.6812C81.2705 16.0585 81.5755 16.3643 81.9518 16.3643H96.9101C97.2864 16.3643 97.5914 16.0585 97.5914 15.6812V0.683208C97.5914 0.305955 97.2864 0.000131503 96.9101 0.000131503Z" fill="url(#paint20_radial_230_1725)"/>
<path d="M115.268 0.000131503H100.309C99.933 0.000131503 99.628 0.305955 99.628 0.683208V15.6812C99.628 16.0585 99.933 16.3643 100.309 16.3643H115.268C115.644 16.3643 115.949 16.0585 115.949 15.6812V0.683208C115.949 0.305955 115.644 0.000131503 115.268 0.000131503Z" fill="url(#paint21_radial_230_1725)"/>
<path d="M151.986 73.6358H137.027C136.651 73.6358 136.346 73.9417 136.346 74.3189V89.3169C136.346 89.6942 136.651 90 137.027 90H151.986C152.362 90 152.667 89.6942 152.667 89.3169V74.3189C152.667 73.9417 152.362 73.6358 151.986 73.6358Z" fill="url(#paint22_radial_230_1725)"/>
<path d="M97.5914 46.473V37.4979C97.5914 37.1237 97.2893 36.8148 96.9101 36.8148H81.9518C81.5786 36.8148 81.2705 37.1178 81.2705 37.4979V52.4959C81.2705 52.8701 81.5726 53.179 81.9518 53.179H90.9031C94.5998 53.179 97.5914 50.1735 97.5914 46.473Z" fill="url(#paint23_radial_230_1725)"/>
<path d="M243.969 70.9027V55.9047C243.969 55.5305 244.271 55.2216 244.651 55.2216H253.152C258.223 55.2216 262.334 51.0994 262.334 46.015V37.4913C262.334 37.1171 262.636 36.8083 263.015 36.8083H277.974C278.347 36.8083 278.655 37.1112 278.655 37.4913V52.4893C278.655 52.8635 278.353 53.1724 277.974 53.1724H269.473C264.402 53.1724 260.29 57.2946 260.29 62.3791V70.9027C260.29 71.2769 259.988 71.5858 259.609 71.5858H244.651C244.277 71.5858 243.969 71.2829 243.969 70.9027Z" fill="url(#paint24_radial_230_1725)"/>
<path d="M259.609 73.6357H244.651C244.274 73.6357 243.969 73.9415 243.969 74.3188V89.3168C243.969 89.694 244.274 89.9999 244.651 89.9999H259.609C259.985 89.9999 260.29 89.694 260.29 89.3168V74.3188C260.29 73.9415 259.985 73.6357 259.609 73.6357Z" fill="url(#paint25_radial_230_1725)"/>
<path d="M259.609 18.4057H244.651C244.274 18.4057 243.969 18.7115 243.969 19.0888V34.0868C243.969 34.464 244.274 34.7699 244.651 34.7699H259.609C259.985 34.7699 260.29 34.464 260.29 34.0868V19.0888C260.29 18.7115 259.985 18.4057 259.609 18.4057Z" fill="url(#paint26_radial_230_1725)"/>
<path d="M259.609 0.000131503H244.651C244.275 0.000131503 243.969 0.305955 243.969 0.683208V15.6812C243.969 16.0585 244.275 16.3643 244.651 16.3643H259.609C259.985 16.3643 260.29 16.0585 260.29 15.6812V0.683208C260.29 0.305955 259.985 0.000131503 259.609 0.000131503Z" fill="url(#paint27_radial_230_1725)"/>
<path d="M277.966 0H263.008C262.632 0 262.327 0.305824 262.327 0.683077V15.6811C262.327 16.0583 262.632 16.3641 263.008 16.3641H277.966C278.343 16.3641 278.648 16.0583 278.648 15.6811V0.683077C278.648 0.305824 278.343 0 277.966 0Z" fill="url(#paint28_radial_230_1725)"/>
<path d="M296.28 0H281.321C280.945 0 280.64 0.305824 280.64 0.683077V15.6811C280.64 16.0583 280.945 16.3641 281.321 16.3641H296.28C296.656 16.3641 296.961 16.0583 296.961 15.6811V0.683077C296.961 0.305824 296.656 0 296.28 0Z" fill="url(#paint29_radial_230_1725)"/>
<path d="M314.777 0H299.818C299.442 0 299.137 0.305824 299.137 0.683077V15.6811C299.137 16.0583 299.442 16.3641 299.818 16.3641H314.777C315.153 16.3641 315.458 16.0583 315.458 15.6811V0.683077C315.458 0.305824 315.153 0 314.777 0Z" fill="url(#paint30_radial_230_1725)"/>
<path d="M296.28 36.8147H281.321C280.945 36.8147 280.64 37.1205 280.64 37.4978V52.4958C280.64 52.873 280.945 53.1789 281.321 53.1789H296.28C296.656 53.1789 296.961 52.873 296.961 52.4958V37.4978C296.961 37.1205 296.656 36.8147 296.28 36.8147Z" fill="url(#paint31_radial_230_1725)"/>
<path d="M314.777 36.8147H299.818C299.442 36.8147 299.137 37.1205 299.137 37.4978V52.4958C299.137 52.873 299.442 53.1789 299.818 53.1789H314.777C315.153 53.1789 315.458 52.873 315.458 52.4958V37.4978C315.458 37.1205 315.153 36.8147 314.777 36.8147Z" fill="url(#paint32_radial_230_1725)"/>
<path d="M260.29 46.4728V37.4978C260.29 37.1236 259.988 36.8147 259.609 36.8147H244.651C244.277 36.8147 243.969 37.1176 243.969 37.4978V52.4958C243.969 52.87 244.271 53.1789 244.651 53.1789H253.602C257.299 53.1789 260.29 50.1733 260.29 46.4728Z" fill="url(#paint33_radial_230_1725)"/>
<path d="M197.217 0.68334V15.6813C197.217 16.0555 196.915 16.3644 196.536 16.3644H188.035C182.964 16.3644 178.852 20.4866 178.852 25.5711V34.0947C178.852 34.4689 178.55 34.7778 178.171 34.7778H163.213C162.839 34.7778 162.531 34.4749 162.531 34.0947V19.0967C162.531 18.7225 162.833 18.4136 163.213 18.4136H171.714C176.785 18.4136 180.896 14.2914 180.896 9.20695V0.68334C180.896 0.309133 181.198 0.000263006 181.577 0.000263006H196.536C196.909 0.000263006 197.217 0.303193 197.217 0.68334Z" fill="url(#paint34_radial_230_1725)"/>
<path d="M197.217 37.4979V52.4959C197.217 52.8701 196.915 53.179 196.536 53.179H188.035C182.964 53.179 178.852 57.3012 178.852 62.3857V70.9093C178.852 71.2835 178.55 71.5924 178.171 71.5924H163.213C162.839 71.5924 162.531 71.2895 162.531 70.9093V55.9113C162.531 55.5371 162.833 55.2282 163.213 55.2282H171.714C176.785 55.2282 180.896 51.106 180.896 46.0215V37.4979C180.896 37.1237 181.198 36.8148 181.577 36.8148H196.536C196.909 36.8148 197.217 37.1178 197.217 37.4979Z" fill="url(#paint35_radial_230_1725)"/>
<path d="M199.259 0.683209V15.6812C199.259 16.0554 199.561 16.3643 199.94 16.3643H208.441C213.512 16.3643 217.624 20.4865 217.624 25.571V34.0946C217.624 34.4688 217.926 34.7777 218.305 34.7777H233.263C233.637 34.7777 233.945 34.4747 233.945 34.0946V19.0966C233.945 18.7224 233.643 18.4135 233.263 18.4135H224.762C219.691 18.4135 215.58 14.2913 215.58 9.20682V0.683209C215.58 0.309001 215.278 0.000131503 214.899 0.000131503H199.94C199.567 0.000131503 199.259 0.303061 199.259 0.683209Z" fill="url(#paint36_radial_230_1725)"/>
<path d="M199.259 37.4979V52.4959C199.259 52.8701 199.561 53.179 199.94 53.179H208.441C213.512 53.179 217.624 57.3012 217.624 62.3857V70.9093C217.624 71.2835 217.926 71.5924 218.305 71.5924H233.263C233.637 71.5924 233.945 71.2895 233.945 70.9093V55.9113C233.945 55.5371 233.643 55.2282 233.263 55.2282H224.762C219.691 55.2282 215.58 51.106 215.58 46.0215V37.4979C215.58 37.1237 215.278 36.8148 214.899 36.8148H199.94C199.567 36.8148 199.259 37.1178 199.259 37.4979Z" fill="url(#paint37_radial_230_1725)"/>
<path d="M178.18 73.6358H163.222C162.846 73.6358 162.541 73.9417 162.541 74.3189V89.3169C162.541 89.6942 162.846 90 163.222 90H178.18C178.557 90 178.862 89.6942 178.862 89.3169V74.3189C178.862 73.9417 178.557 73.6358 178.18 73.6358Z" fill="url(#paint38_radial_230_1725)"/>
<path d="M233.256 73.6358H218.298C217.922 73.6358 217.617 73.9417 217.617 74.3189V89.3169C217.617 89.6942 217.922 90 218.298 90H233.256C233.632 90 233.937 89.6942 233.937 89.3169V74.3189C233.937 73.9417 233.632 73.6358 233.256 73.6358Z" fill="url(#paint39_radial_230_1725)"/>
<path d="M178.856 46.473V37.4979C178.856 37.1237 178.553 36.8148 178.174 36.8148H163.216C162.843 36.8148 162.535 37.1178 162.535 37.4979V52.4959C162.535 52.8701 162.837 53.179 163.216 53.179H172.167C175.864 53.179 178.856 50.1735 178.856 46.473Z" fill="url(#paint40_radial_230_1725)"/>
<path d="M217.775 46.473V37.4979C217.775 37.1237 218.077 36.8148 218.456 36.8148H233.415C233.788 36.8148 234.096 37.1178 234.096 37.4979V52.4959C234.096 52.8701 233.794 53.179 233.415 53.179H224.463C220.767 53.179 217.775 50.1735 217.775 46.473Z" fill="url(#paint41_radial_230_1725)"/>
<path d="M406.596 0.68334V15.6813C406.596 16.0555 406.898 16.3644 407.277 16.3644H415.778C420.849 16.3644 424.961 20.4866 424.961 25.5711V34.0947C424.961 34.4689 425.263 34.7778 425.642 34.7778H440.6C440.974 34.7778 441.282 34.4749 441.282 34.0947V19.0967C441.282 18.7225 440.98 18.4136 440.6 18.4136H432.099C427.028 18.4136 422.917 14.2914 422.917 9.20695V0.68334C422.917 0.309133 422.615 0.000263006 422.236 0.000263006H407.277C406.904 0.000263006 406.596 0.303193 406.596 0.68334Z" fill="url(#paint42_radial_230_1725)"/>
<path d="M443.314 55.9053V70.9033C443.314 71.2775 443.616 71.5864 443.996 71.5864H452.497C457.568 71.5864 461.679 75.7086 461.679 80.7931V89.3167C461.679 89.6909 461.981 89.9997 462.36 89.9997H477.319C477.692 89.9997 478 89.6968 478 89.3167V74.3187C478 73.9445 477.698 73.6356 477.319 73.6356H468.818C463.747 73.6356 459.635 69.5134 459.635 64.4289V55.9053C459.635 55.5311 459.333 55.2222 458.954 55.2222H443.996C443.622 55.2222 443.314 55.5251 443.314 55.9053Z" fill="url(#paint43_radial_230_1725)"/>
<path d="M477.311 0.000131503H462.353C461.977 0.000131503 461.672 0.305955 461.672 0.683208V15.6812C461.672 16.0585 461.977 16.3643 462.353 16.3643H477.311C477.688 16.3643 477.993 16.0585 477.993 15.6812V0.683208C477.993 0.305955 477.688 0.000131503 477.311 0.000131503Z" fill="url(#paint44_radial_230_1725)"/>
<path d="M422.236 36.8148H407.277C406.901 36.8148 406.596 37.1207 406.596 37.4979V52.4959C406.596 52.8732 406.901 53.179 407.277 53.179H422.236C422.612 53.179 422.917 52.8732 422.917 52.4959V37.4979C422.917 37.1207 422.612 36.8148 422.236 36.8148Z" fill="url(#paint45_radial_230_1725)"/>
<path d="M422.917 25.1119V34.0869C422.917 34.4611 422.615 34.77 422.236 34.77H407.277C406.904 34.77 406.596 34.4671 406.596 34.0869V19.0889C406.596 18.7147 406.898 18.4058 407.277 18.4058H416.229C419.925 18.4058 422.917 21.4114 422.917 25.1119Z" fill="url(#paint46_radial_230_1725)"/>
<path d="M477.993 55.9053V70.9033C477.993 71.2775 477.691 71.5864 477.311 71.5864H468.36C464.663 71.5864 461.672 68.5808 461.672 64.8803V55.9053C461.672 55.5311 461.974 55.2222 462.353 55.2222H477.311C477.685 55.2222 477.993 55.5251 477.993 55.9053Z" fill="url(#paint47_radial_230_1725)"/>
<path d="M422.236 55.2222H407.277C406.901 55.2222 406.596 55.528 406.596 55.9053V70.9033C406.596 71.2805 406.901 71.5864 407.277 71.5864H422.236C422.612 71.5864 422.917 71.2805 422.917 70.9033V55.9053C422.917 55.528 422.612 55.2222 422.236 55.2222Z" fill="url(#paint48_radial_230_1725)"/>
<path d="M422.236 73.6358H407.277C406.901 73.6358 406.596 73.9417 406.596 74.3189V89.3169C406.596 89.6942 406.901 90 407.277 90H422.236C422.612 90 422.917 89.6942 422.917 89.3169V74.3189C422.917 73.9417 422.612 73.6358 422.236 73.6358Z" fill="url(#paint49_radial_230_1725)"/>
<path d="M477.311 36.8148H462.353C461.977 36.8148 461.672 37.1207 461.672 37.4979V52.4959C461.672 52.8732 461.977 53.179 462.353 53.179H477.311C477.688 53.179 477.993 52.8732 477.993 52.4959V37.4979C477.993 37.1207 477.688 36.8148 477.311 36.8148Z" fill="url(#paint50_radial_230_1725)"/>
<path d="M477.311 73.6358H462.353C461.977 73.6358 461.672 73.9417 461.672 74.3189V89.3169C461.672 89.6942 461.977 90 462.353 90H477.311C477.688 90 477.993 89.6942 477.993 89.3169V74.3189C477.993 73.9417 477.688 73.6358 477.311 73.6358Z" fill="url(#paint51_radial_230_1725)"/>
<path d="M440.593 36.8148H425.635C425.259 36.8148 424.954 37.1207 424.954 37.4979V52.4959C424.954 52.8732 425.259 53.179 425.635 53.179H440.593C440.969 53.179 441.275 52.8732 441.275 52.4959V37.4979C441.275 37.1207 440.969 36.8148 440.593 36.8148Z" fill="url(#paint52_radial_230_1725)"/>
<path d="M458.954 36.8148H443.996C443.619 36.8148 443.314 37.1207 443.314 37.4979V52.4959C443.314 52.8732 443.619 53.179 443.996 53.179H458.954C459.33 53.179 459.635 52.8732 459.635 52.4959V37.4979C459.635 37.1207 459.33 36.8148 458.954 36.8148Z" fill="url(#paint53_radial_230_1725)"/>
<path d="M477.311 18.4058H462.353C461.977 18.4058 461.672 18.7117 461.672 19.0889V34.0869C461.672 34.4642 461.977 34.77 462.353 34.77H477.311C477.688 34.77 477.993 34.4642 477.993 34.0869V19.0889C477.993 18.7117 477.688 18.4058 477.311 18.4058Z" fill="url(#paint54_radial_230_1725)"/>
<defs>
<radialGradient id="paint0_radial_230_1725" cx="0" cy="0" r="1" gradientUnits="userSpaceOnUse" gradientTransform="translate(245.876 -94.2262) rotate(90) scale(270.947 289.649)">
<stop stop-color="#3CFFF2"/>
<stop offset="0.848039" stop-color="#FFD900"/>
</radialGradient>
<radialGradient id="paint1_radial_230_1725" cx="0" cy="0" r="1" gradientUnits="userSpaceOnUse" gradientTransform="translate(245.876 -94.2262) rotate(90) scale(270.947 289.649)">
<stop stop-color="#3CFFF2"/>
<stop offset="0.848039" stop-color="#FFD900"/>
</radialGradient>
<radialGradient id="paint2_radial_230_1725" cx="0" cy="0" r="1" gradientUnits="userSpaceOnUse" gradientTransform="translate(245.876 -94.2262) rotate(90) scale(270.947 289.649)">
<stop stop-color="#3CFFF2"/>
<stop offset="0.848039" stop-color="#FFD900"/>
</radialGradient>
<radialGradient id="paint3_radial_230_1725" cx="0" cy="0" r="1" gradientUnits="userSpaceOnUse" gradientTransform="translate(245.876 -94.2262) rotate(90) scale(270.947 289.649)">
<stop stop-color="#3CFFF2"/>
<stop offset="0.848039" stop-color="#FFD900"/>
</radialGradient>
<radialGradient id="paint4_radial_230_1725" cx="0" cy="0" r="1" gradientUnits="userSpaceOnUse" gradientTransform="translate(245.876 -94.2262) rotate(90) scale(270.947 289.649)">
<stop stop-color="#3CFFF2"/>
<stop offset="0.848039" stop-color="#FFD900"/>
</radialGradient>
<radialGradient id="paint5_radial_230_1725" cx="0" cy="0" r="1" gradientUnits="userSpaceOnUse" gradientTransform="translate(245.876 -94.2262) rotate(90) scale(270.947 289.649)">
<stop stop-color="#3CFFF2"/>
<stop offset="0.848039" stop-color="#FFD900"/>
</radialGradient>
<radialGradient id="paint6_radial_230_1725" cx="0" cy="0" r="1" gradientUnits="userSpaceOnUse" gradientTransform="translate(245.876 -94.2262) rotate(90) scale(270.947 289.649)">
<stop stop-color="#3CFFF2"/>
<stop offset="0.848039" stop-color="#FFD900"/>
</radialGradient>
<radialGradient id="paint7_radial_230_1725" cx="0" cy="0" r="1" gradientUnits="userSpaceOnUse" gradientTransform="translate(245.876 -94.2262) rotate(90) scale(270.947 289.649)">
<stop stop-color="#3CFFF2"/>
<stop offset="0.848039" stop-color="#FFD900"/>
</radialGradient>
<radialGradient id="paint8_radial_230_1725" cx="0" cy="0" r="1" gradientUnits="userSpaceOnUse" gradientTransform="translate(245.876 -94.2262) rotate(90) scale(270.947 289.649)">
<stop stop-color="#3CFFF2"/>
<stop offset="0.848039" stop-color="#FFD900"/>
</radialGradient>
<radialGradient id="paint9_radial_230_1725" cx="0" cy="0" r="1" gradientUnits="userSpaceOnUse" gradientTransform="translate(245.876 -94.2262) rotate(90) scale(270.947 289.649)">
<stop stop-color="#3CFFF2"/>
<stop offset="0.848039" stop-color="#FFD900"/>
</radialGradient>
<radialGradient id="paint10_radial_230_1725" cx="0" cy="0" r="1" gradientUnits="userSpaceOnUse" gradientTransform="translate(245.876 -94.2262) rotate(90) scale(270.947 289.649)">
<stop stop-color="#3CFFF2"/>
<stop offset="0.848039" stop-color="#FFD900"/>
</radialGradient>
<radialGradient id="paint11_radial_230_1725" cx="0" cy="0" r="1" gradientUnits="userSpaceOnUse" gradientTransform="translate(245.876 -94.2262) rotate(90) scale(270.947 289.649)">
<stop stop-color="#3CFFF2"/>
<stop offset="0.848039" stop-color="#FFD900"/>
</radialGradient>
<radialGradient id="paint12_radial_230_1725" cx="0" cy="0" r="1" gradientUnits="userSpaceOnUse" gradientTransform="translate(245.876 -94.2262) rotate(90) scale(270.947 289.649)">
<stop stop-color="#3CFFF2"/>
<stop offset="0.848039" stop-color="#FFD900"/>
</radialGradient>
<radialGradient id="paint13_radial_230_1725" cx="0" cy="0" r="1" gradientUnits="userSpaceOnUse" gradientTransform="translate(245.876 -94.2262) rotate(90) scale(270.947 289.649)">
<stop stop-color="#3CFFF2"/>
<stop offset="0.848039" stop-color="#FFD900"/>
</radialGradient>
<radialGradient id="paint14_radial_230_1725" cx="0" cy="0" r="1" gradientUnits="userSpaceOnUse" gradientTransform="translate(245.876 -94.2262) rotate(90) scale(270.947 289.649)">
<stop stop-color="#3CFFF2"/>
<stop offset="0.848039" stop-color="#FFD900"/>
</radialGradient>
<radialGradient id="paint15_radial_230_1725" cx="0" cy="0" r="1" gradientUnits="userSpaceOnUse" gradientTransform="translate(245.876 -94.2262) rotate(90) scale(270.947 289.649)">
<stop stop-color="#3CFFF2"/>
<stop offset="0.848039" stop-color="#FFD900"/>
</radialGradient>
<radialGradient id="paint16_radial_230_1725" cx="0" cy="0" r="1" gradientUnits="userSpaceOnUse" gradientTransform="translate(245.876 -94.2262) rotate(90) scale(270.947 289.649)">
<stop stop-color="#3CFFF2"/>
<stop offset="0.848039" stop-color="#FFD900"/>
</radialGradient>
<radialGradient id="paint17_radial_230_1725" cx="0" cy="0" r="1" gradientUnits="userSpaceOnUse" gradientTransform="translate(245.876 -94.2262) rotate(90) scale(270.947 289.649)">
<stop stop-color="#3CFFF2"/>
<stop offset="0.848039" stop-color="#FFD900"/>
</radialGradient>
<radialGradient id="paint18_radial_230_1725" cx="0" cy="0" r="1" gradientUnits="userSpaceOnUse" gradientTransform="translate(245.876 -94.2262) rotate(90) scale(270.947 289.649)">
<stop stop-color="#3CFFF2"/>
<stop offset="0.848039" stop-color="#FFD900"/>
</radialGradient>
<radialGradient id="paint19_radial_230_1725" cx="0" cy="0" r="1" gradientUnits="userSpaceOnUse" gradientTransform="translate(245.876 -94.2262) rotate(90) scale(270.947 289.649)">
<stop stop-color="#3CFFF2"/>
<stop offset="0.848039" stop-color="#FFD900"/>
</radialGradient>
<radialGradient id="paint20_radial_230_1725" cx="0" cy="0" r="1" gradientUnits="userSpaceOnUse" gradientTransform="translate(245.876 -94.2262) rotate(90) scale(270.947 289.649)">
<stop stop-color="#3CFFF2"/>
<stop offset="0.848039" stop-color="#FFD900"/>
</radialGradient>
<radialGradient id="paint21_radial_230_1725" cx="0" cy="0" r="1" gradientUnits="userSpaceOnUse" gradientTransform="translate(245.876 -94.2262) rotate(90) scale(270.947 289.649)">
<stop stop-color="#3CFFF2"/>
<stop offset="0.848039" stop-color="#FFD900"/>
</radialGradient>
<radialGradient id="paint22_radial_230_1725" cx="0" cy="0" r="1" gradientUnits="userSpaceOnUse" gradientTransform="translate(245.876 -94.2262) rotate(90) scale(270.947 289.649)">
<stop stop-color="#3CFFF2"/>
<stop offset="0.848039" stop-color="#FFD900"/>
</radialGradient>
<radialGradient id="paint23_radial_230_1725" cx="0" cy="0" r="1" gradientUnits="userSpaceOnUse" gradientTransform="translate(245.876 -94.2262) rotate(90) scale(270.947 289.649)">
<stop stop-color="#3CFFF2"/>
<stop offset="0.848039" stop-color="#FFD900"/>
</radialGradient>
<radialGradient id="paint24_radial_230_1725" cx="0" cy="0" r="1" gradientUnits="userSpaceOnUse" gradientTransform="translate(245.876 -94.2262) rotate(90) scale(270.947 289.649)">
<stop stop-color="#3CFFF2"/>
<stop offset="0.848039" stop-color="#FFD900"/>
</radialGradient>
<radialGradient id="paint25_radial_230_1725" cx="0" cy="0" r="1" gradientUnits="userSpaceOnUse" gradientTransform="translate(245.876 -94.2262) rotate(90) scale(270.947 289.649)">
<stop stop-color="#3CFFF2"/>
<stop offset="0.848039" stop-color="#FFD900"/>
</radialGradient>
<radialGradient id="paint26_radial_230_1725" cx="0" cy="0" r="1" gradientUnits="userSpaceOnUse" gradientTransform="translate(245.876 -94.2262) rotate(90) scale(270.947 289.649)">
<stop stop-color="#3CFFF2"/>
<stop offset="0.848039" stop-color="#FFD900"/>
</radialGradient>
<radialGradient id="paint27_radial_230_1725" cx="0" cy="0" r="1" gradientUnits="userSpaceOnUse" gradientTransform="translate(245.876 -94.2262) rotate(90) scale(270.947 289.649)">
<stop stop-color="#3CFFF2"/>
<stop offset="0.848039" stop-color="#FFD900"/>
</radialGradient>
<radialGradient id="paint28_radial_230_1725" cx="0" cy="0" r="1" gradientUnits="userSpaceOnUse" gradientTransform="translate(245.876 -94.2262) rotate(90) scale(270.947 289.649)">
<stop stop-color="#3CFFF2"/>
<stop offset="0.848039" stop-color="#FFD900"/>
</radialGradient>
<radialGradient id="paint29_radial_230_1725" cx="0" cy="0" r="1" gradientUnits="userSpaceOnUse" gradientTransform="translate(245.876 -94.2262) rotate(90) scale(270.947 289.649)">
<stop stop-color="#3CFFF2"/>
<stop offset="0.848039" stop-color="#FFD900"/>
</radialGradient>
<radialGradient id="paint30_radial_230_1725" cx="0" cy="0" r="1" gradientUnits="userSpaceOnUse" gradientTransform="translate(245.876 -94.2262) rotate(90) scale(270.947 289.649)">
<stop stop-color="#3CFFF2"/>
<stop offset="0.848039" stop-color="#FFD900"/>
</radialGradient>
<radialGradient id="paint31_radial_230_1725" cx="0" cy="0" r="1" gradientUnits="userSpaceOnUse" gradientTransform="translate(245.876 -94.2262) rotate(90) scale(270.947 289.649)">
<stop stop-color="#3CFFF2"/>
<stop offset="0.848039" stop-color="#FFD900"/>
</radialGradient>
<radialGradient id="paint32_radial_230_1725" cx="0" cy="0" r="1" gradientUnits="userSpaceOnUse" gradientTransform="translate(245.876 -94.2262) rotate(90) scale(270.947 289.649)">
<stop stop-color="#3CFFF2"/>
<stop offset="0.848039" stop-color="#FFD900"/>
</radialGradient>
<radialGradient id="paint33_radial_230_1725" cx="0" cy="0" r="1" gradientUnits="userSpaceOnUse" gradientTransform="translate(245.876 -94.2262) rotate(90) scale(270.947 289.649)">
<stop stop-color="#3CFFF2"/>
<stop offset="0.848039" stop-color="#FFD900"/>
</radialGradient>
<radialGradient id="paint34_radial_230_1725" cx="0" cy="0" r="1" gradientUnits="userSpaceOnUse" gradientTransform="translate(245.876 -94.2262) rotate(90) scale(270.947 289.649)">
<stop stop-color="#3CFFF2"/>
<stop offset="0.848039" stop-color="#FFD900"/>
</radialGradient>
<radialGradient id="paint35_radial_230_1725" cx="0" cy="0" r="1" gradientUnits="userSpaceOnUse" gradientTransform="translate(245.876 -94.2262) rotate(90) scale(270.947 289.649)">
<stop stop-color="#3CFFF2"/>
<stop offset="0.848039" stop-color="#FFD900"/>
</radialGradient>
<radialGradient id="paint36_radial_230_1725" cx="0" cy="0" r="1" gradientUnits="userSpaceOnUse" gradientTransform="translate(245.876 -94.2262) rotate(90) scale(270.947 289.649)">
<stop stop-color="#3CFFF2"/>
<stop offset="0.848039" stop-color="#FFD900"/>
</radialGradient>
<radialGradient id="paint37_radial_230_1725" cx="0" cy="0" r="1" gradientUnits="userSpaceOnUse" gradientTransform="translate(245.876 -94.2262) rotate(90) scale(270.947 289.649)">
<stop stop-color="#3CFFF2"/>
<stop offset="0.848039" stop-color="#FFD900"/>
</radialGradient>
<radialGradient id="paint38_radial_230_1725" cx="0" cy="0" r="1" gradientUnits="userSpaceOnUse" gradientTransform="translate(245.876 -94.2262) rotate(90) scale(270.947 289.649)">
<stop stop-color="#3CFFF2"/>
<stop offset="0.848039" stop-color="#FFD900"/>
</radialGradient>
<radialGradient id="paint39_radial_230_1725" cx="0" cy="0" r="1" gradientUnits="userSpaceOnUse" gradientTransform="translate(245.876 -94.2262) rotate(90) scale(270.947 289.649)">
<stop stop-color="#3CFFF2"/>
<stop offset="0.848039" stop-color="#FFD900"/>
</radialGradient>
<radialGradient id="paint40_radial_230_1725" cx="0" cy="0" r="1" gradientUnits="userSpaceOnUse" gradientTransform="translate(245.876 -94.2262) rotate(90) scale(270.947 289.649)">
<stop stop-color="#3CFFF2"/>
<stop offset="0.848039" stop-color="#FFD900"/>
</radialGradient>
<radialGradient id="paint41_radial_230_1725" cx="0" cy="0" r="1" gradientUnits="userSpaceOnUse" gradientTransform="translate(245.876 -94.2262) rotate(90) scale(270.947 289.649)">
<stop stop-color="#3CFFF2"/>
<stop offset="0.848039" stop-color="#FFD900"/>
</radialGradient>
<radialGradient id="paint42_radial_230_1725" cx="0" cy="0" r="1" gradientUnits="userSpaceOnUse" gradientTransform="translate(245.876 -94.2262) rotate(90) scale(270.947 289.649)">
<stop stop-color="#3CFFF2"/>
<stop offset="0.848039" stop-color="#FFD900"/>
</radialGradient>
<radialGradient id="paint43_radial_230_1725" cx="0" cy="0" r="1" gradientUnits="userSpaceOnUse" gradientTransform="translate(245.876 -94.2262) rotate(90) scale(270.947 289.649)">
<stop stop-color="#3CFFF2"/>
<stop offset="0.848039" stop-color="#FFD900"/>
</radialGradient>
<radialGradient id="paint44_radial_230_1725" cx="0" cy="0" r="1" gradientUnits="userSpaceOnUse" gradientTransform="translate(245.876 -94.2262) rotate(90) scale(270.947 289.649)">
<stop stop-color="#3CFFF2"/>
<stop offset="0.848039" stop-color="#FFD900"/>
</radialGradient>
<radialGradient id="paint45_radial_230_1725" cx="0" cy="0" r="1" gradientUnits="userSpaceOnUse" gradientTransform="translate(245.876 -94.2262) rotate(90) scale(270.947 289.649)">
<stop stop-color="#3CFFF2"/>
<stop offset="0.848039" stop-color="#FFD900"/>
</radialGradient>
<radialGradient id="paint46_radial_230_1725" cx="0" cy="0" r="1" gradientUnits="userSpaceOnUse" gradientTransform="translate(245.876 -94.2262) rotate(90) scale(270.947 289.649)">
<stop stop-color="#3CFFF2"/>
<stop offset="0.848039" stop-color="#FFD900"/>
</radialGradient>
<radialGradient id="paint47_radial_230_1725" cx="0" cy="0" r="1" gradientUnits="userSpaceOnUse" gradientTransform="translate(245.876 -94.2262) rotate(90) scale(270.947 289.649)">
<stop stop-color="#3CFFF2"/>
<stop offset="0.848039" stop-color="#FFD900"/>
</radialGradient>
<radialGradient id="paint48_radial_230_1725" cx="0" cy="0" r="1" gradientUnits="userSpaceOnUse" gradientTransform="translate(245.876 -94.2262) rotate(90) scale(270.947 289.649)">
<stop stop-color="#3CFFF2"/>
<stop offset="0.848039" stop-color="#FFD900"/>
</radialGradient>
<radialGradient id="paint49_radial_230_1725" cx="0" cy="0" r="1" gradientUnits="userSpaceOnUse" gradientTransform="translate(245.876 -94.2262) rotate(90) scale(270.947 289.649)">
<stop stop-color="#3CFFF2"/>
<stop offset="0.848039" stop-color="#FFD900"/>
</radialGradient>
<radialGradient id="paint50_radial_230_1725" cx="0" cy="0" r="1" gradientUnits="userSpaceOnUse" gradientTransform="translate(245.876 -94.2262) rotate(90) scale(270.947 289.649)">
<stop stop-color="#3CFFF2"/>
<stop offset="0.848039" stop-color="#FFD900"/>
</radialGradient>
<radialGradient id="paint51_radial_230_1725" cx="0" cy="0" r="1" gradientUnits="userSpaceOnUse" gradientTransform="translate(245.876 -94.2262) rotate(90) scale(270.947 289.649)">
<stop stop-color="#3CFFF2"/>
<stop offset="0.848039" stop-color="#FFD900"/>
</radialGradient>
<radialGradient id="paint52_radial_230_1725" cx="0" cy="0" r="1" gradientUnits="userSpaceOnUse" gradientTransform="translate(245.876 -94.2262) rotate(90) scale(270.947 289.649)">
<stop stop-color="#3CFFF2"/>
<stop offset="0.848039" stop-color="#FFD900"/>
</radialGradient>
<radialGradient id="paint53_radial_230_1725" cx="0" cy="0" r="1" gradientUnits="userSpaceOnUse" gradientTransform="translate(245.876 -94.2262) rotate(90) scale(270.947 289.649)">
<stop stop-color="#3CFFF2"/>
<stop offset="0.848039" stop-color="#FFD900"/>
</radialGradient>
<radialGradient id="paint54_radial_230_1725" cx="0" cy="0" r="1" gradientUnits="userSpaceOnUse" gradientTransform="translate(245.876 -94.2262) rotate(90) scale(270.947 289.649)">
<stop stop-color="#3CFFF2"/>
<stop offset="0.848039" stop-color="#FFD900"/>
</radialGradient>
</defs>
</svg>
