<svg width="1022" height="130" viewBox="0 0 1022 130" fill="none" xmlns="http://www.w3.org/2000/svg">
<path d="M66.7258 71.9416C98.8172 52.6309 111.658 40.6257 131.941 27.7597C155.605 12.7299 172.32 2.12065 196.5 0.7247C203.308 0.329179 235.024 -1.50891 246.409 17.2201C251.363 25.3399 253.241 38.6248 246.409 45.5813C238.052 54.0733 221.455 48.2801 219.67 47.6287C213.661 45.4417 209.529 41.9984 207.134 39.6485C210.468 44.2552 215.187 51.5839 219.107 61.4021C221.619 67.7071 221.948 70.3828 223.098 72.8257C229.53 86.5759 255.471 92.1597 275.449 86.9016C288.501 83.4582 294.699 76.4086 302.07 79.8752C307.024 82.2018 311.062 88.6 310.498 93.0671C306.719 123.452 137.529 155.42 98.8876 113.285C95.9062 110.028 91.7275 104.165 83.2762 100.675C63.2983 92.3923 48.7199 109.423 23.0609 103.467C9.84402 100.396 -0.767031 92.5319 0.0780968 89.2281C1.25188 84.6448 23.953 91.6943 50.9736 80.3173C57.0773 77.758 61.3733 75.1989 66.7258 71.9649V71.9416Z" fill="#70B3AB"/>
<mask id="mask0_233_3006" style="mask-type:luminance" maskUnits="userSpaceOnUse" x="0" y="0" width="311" height="134">
<path d="M66.7203 71.9416C98.8117 52.6309 111.653 40.6257 131.936 27.7597C155.6 12.7299 172.314 2.12065 196.494 0.7247C203.302 0.329179 235.018 -1.50891 246.404 17.2201C251.357 25.3399 253.235 38.6248 246.404 45.5813C238.046 54.0733 221.449 48.2801 219.665 47.6287C213.655 45.4417 209.523 41.9984 207.129 39.6485C210.462 44.2552 215.181 51.5839 219.101 61.4021C221.613 67.7071 221.942 70.3828 223.092 72.8257C229.525 86.5759 255.465 92.1597 275.443 86.9016C288.496 83.4582 294.693 76.4086 302.065 79.8752C307.018 82.2018 311.056 88.6 310.493 93.0671C306.713 123.452 137.523 155.42 98.8821 113.285C95.9007 110.028 91.722 104.165 83.2707 100.675C63.2928 92.3923 48.7144 109.423 23.0554 103.467C9.83852 100.396 -0.772524 92.5319 0.0726036 89.2281C1.24639 84.6448 23.9475 91.6943 50.9681 80.3173C57.0718 77.758 61.3678 75.1989 66.7203 71.9649V71.9416Z" fill="white"/>
</mask>
<g mask="url(#mask0_233_3006)">
<path d="M263.568 24.0137C261.103 33.0409 238.144 37.8103 219.175 34.2274C210.255 32.5522 209.175 30.3419 199.644 27.9688C181.403 23.432 165.627 26.6194 157.364 28.2946C127.315 34.3903 120.108 50.2343 80.2693 71.4994C51.8167 86.692 27.8009 99.5115 5.31116 91.2754C-9.76028 85.7614 -24.6439 70.6153 -23.4701 55.9811C-22.5076 44.1155 -11.0984 34.8789 64.2823 4.21443C153.936 -32.2665 170.322 -32.4295 185.065 -29.7539C217.18 -23.9374 238.355 -5.30137 252.91 7.51815C260.516 14.2187 264.836 19.3606 263.568 24.0137Z" fill="white" stroke="white" stroke-width="0.75" stroke-miterlimit="22.93"/>
<path d="M14.3713 109.259C14.9347 108.305 16.7893 108.422 17.6344 108.445C42.1431 109.585 109.307 85.365 154.099 54.2817C170.18 43.1373 184.289 30.4807 198.797 34.971C206.473 37.3442 210.746 43.4399 212.108 45.1848C240.138 81.247 404.773 40.6479 426.042 75.3839C437.076 93.415 408.928 130.733 392.331 147.927C326.669 215.98 202.882 224.867 115.951 184.85C66.957 162.305 10.7091 115.518 14.3478 109.236L14.3713 109.259Z" fill="#488D9F"/>
<path d="M215.797 51.1636C215.257 51.4661 216.642 54.6535 217.628 57.0964C222.91 70.1718 220.28 72.1029 224.224 78.4545C228.074 84.6665 233.591 87.9935 235.563 89.18C235.821 89.3429 239.413 91.4368 243.709 92.6699C249.742 94.4148 260.142 95.392 288.477 85.1318C299.042 81.2929 304.324 79.3851 307.282 76.8957C320.123 66.0305 324.466 44.9981 318.597 40.6241C310.169 34.3423 286.365 69.6832 250.728 67.9848C244.695 67.7056 229.53 66.9379 221.454 57.4221C219.694 55.3515 216.477 50.7681 215.797 51.1636Z" fill="white"/>
</g>
<path d="M303.669 71.9416C335.76 52.6309 348.601 40.6257 368.884 27.7597C392.548 12.7299 409.263 2.12065 433.443 0.7247C440.251 0.329179 471.966 -1.50891 483.352 17.2201C488.306 25.3399 490.184 38.6248 483.352 45.5813C474.995 54.0733 458.397 48.2801 456.613 47.6287C450.603 45.4417 446.472 41.9984 444.077 39.6485C447.411 44.2552 452.129 51.5839 456.05 61.4021C458.562 67.7071 458.89 70.3828 460.041 72.8257C466.473 86.5759 492.414 92.1597 512.392 86.9016C525.444 83.4582 531.642 76.4086 539.013 79.8752C543.967 82.2018 548.004 88.6 547.441 93.0671C543.661 123.452 374.472 155.42 335.83 113.285C332.849 110.028 328.67 104.165 320.219 100.675C300.241 92.3923 285.663 109.423 260.004 103.467C246.787 100.396 236.176 92.5319 237.021 89.2281C238.195 84.6448 260.896 91.6943 287.916 80.3173C294.02 77.758 298.316 75.1989 303.669 71.9649V71.9416Z" fill="#70B3AB"/>
<mask id="mask1_233_3006" style="mask-type:luminance" maskUnits="userSpaceOnUse" x="236" y="0" width="312" height="146">
<path d="M303.669 71.9416C335.76 52.6309 348.601 40.6257 368.884 27.7597C392.548 12.7299 409.263 2.12065 433.443 0.7247C440.251 0.329179 471.966 -1.50891 483.352 17.2201C488.305 25.3399 490.184 38.6248 483.352 45.5813C474.995 54.0733 458.397 48.2801 456.613 47.6287C450.603 45.4417 446.472 41.9984 444.077 39.6485C447.411 44.2552 452.129 51.5839 456.05 61.4021C458.562 67.7071 458.89 70.3828 460.041 72.8257C466.473 86.5759 492.414 92.1597 512.392 86.9016C525.444 83.4582 531.642 76.4086 539.013 79.8752C543.966 82.2018 547.735 118.211 547.171 122.678C543.392 153.063 374.471 155.42 335.83 113.285C332.849 110.028 328.67 104.165 320.219 100.675C300.241 92.3923 285.663 109.423 260.004 103.467C246.787 100.396 236.176 92.5319 237.021 89.2282C238.195 84.6448 260.896 91.6943 287.916 80.3173C294.02 77.758 298.316 75.1989 303.669 71.9649V71.9416Z" fill="white"/>
</mask>
<g mask="url(#mask1_233_3006)">
<path d="M500.491 24.0137C498.026 33.0409 475.067 37.8103 456.098 34.2274C447.177 32.5522 446.098 30.3419 436.566 27.9688C418.326 23.432 402.55 26.6194 394.287 28.2946C364.238 34.3903 357.031 50.2343 317.192 71.4994C288.74 86.692 264.724 99.5115 242.234 91.2754C227.163 85.7614 212.279 70.6153 213.453 55.9811C214.415 44.1155 225.824 34.8789 301.205 4.21443C390.859 -32.2665 407.245 -32.4295 421.988 -29.7539C454.103 -23.9374 475.278 -5.30137 489.833 7.51815C497.439 14.2187 501.759 19.3606 500.491 24.0137Z" fill="white" stroke="white" stroke-width="0.75" stroke-miterlimit="22.93"/>
<path d="M251.317 109.259C251.881 108.305 253.735 108.422 254.58 108.445C279.089 109.585 346.253 85.365 391.045 54.2817C407.126 43.1373 421.235 30.4807 435.743 34.971C443.419 37.3442 447.692 43.4399 449.054 45.1848C477.084 81.247 641.719 40.6479 662.988 75.3839C674.022 93.415 637.786 148.247 621.189 165.44C555.527 233.493 439.828 224.867 352.897 184.85C303.903 162.305 247.655 115.518 251.294 109.236L251.317 109.259Z" fill="#488D9F"/>
<path d="M452.743 51.1636C452.203 51.4661 453.588 54.6535 454.574 57.0964C459.856 70.1718 457.226 72.1029 461.17 78.4545C465.02 84.6665 470.537 87.9935 472.509 89.18C472.767 89.3429 476.359 91.4368 480.655 92.6699C486.688 94.4148 497.088 95.392 525.424 85.1318C535.988 81.2929 541.27 79.3851 544.228 76.8957C557.069 66.0305 561.412 44.9981 555.543 40.6241C547.115 34.3423 523.311 69.6832 487.675 67.9848C481.641 67.7056 466.476 66.9379 458.4 57.4221C456.64 55.3515 453.423 50.7681 452.743 51.1636Z" fill="white"/>
</g>
<path d="M540.843 71.9416C572.934 52.6309 585.775 40.6257 606.059 27.7597C629.722 12.7299 646.437 2.12065 670.617 0.7247C677.425 0.329179 709.141 -1.50891 720.526 17.2201C725.48 25.3399 727.358 38.6248 720.526 45.5813C712.169 54.0733 695.572 48.2801 693.787 47.6287C687.778 45.4417 683.646 41.9984 681.251 39.6485C684.585 44.2552 689.304 51.5839 693.224 61.4021C695.736 67.7071 696.065 70.3828 697.215 72.8257C703.647 86.5759 729.588 92.1597 749.566 86.9016C762.618 83.4582 768.816 76.4086 776.187 79.8752C781.141 82.2018 785.179 88.6 784.615 93.0671C780.836 123.452 611.646 155.42 573.005 113.285C570.023 110.028 565.845 104.165 557.393 100.675C537.415 92.3923 522.837 109.423 497.178 103.467C483.961 100.396 473.35 92.5319 474.195 89.2281C475.369 84.6448 498.07 91.6943 525.091 80.3173C531.194 77.758 535.49 75.1989 540.843 71.9649V71.9416Z" fill="#70B3AB"/>
<mask id="mask2_233_3006" style="mask-type:luminance" maskUnits="userSpaceOnUse" x="462" y="0" width="323" height="151">
<path d="M540.846 71.9416C572.937 52.6309 585.779 40.6257 606.062 27.7597C629.725 12.7299 646.44 2.12065 670.62 0.7247C677.428 0.329179 709.144 -1.50891 720.529 17.2201C725.483 25.3399 727.361 38.6248 720.529 45.5813C712.172 54.0733 695.575 48.2801 693.79 47.6287C687.781 45.4417 683.649 41.9984 681.254 39.6485C684.588 44.2552 689.307 51.5839 693.227 61.4021C695.739 67.7071 696.068 70.3828 697.218 72.8257C703.65 86.5759 729.591 92.1596 749.569 86.9016C762.621 83.4582 768.819 76.4086 776.19 79.8752C781.144 82.2018 785.182 88.6 784.618 93.0671C780.839 123.452 595.907 177.03 557.266 134.895C554.284 131.638 530.951 135.609 522.5 132.119C502.522 123.836 493.206 128.634 467.547 122.678C454.331 119.607 473.353 92.5319 474.198 89.2281C475.372 84.6448 498.073 91.6943 525.094 80.3173C531.197 77.758 535.494 75.1988 540.846 71.9649V71.9416Z" fill="white"/>
</mask>
<g mask="url(#mask2_233_3006)">
<path d="M737.666 24.0137C735.201 33.0409 712.242 37.8103 693.273 34.2274C684.352 32.5522 683.273 30.3419 673.741 27.9688C655.501 23.432 639.725 26.6194 631.462 28.2946C601.413 34.3903 594.206 50.2343 554.367 71.4994C525.915 86.692 501.899 99.5115 479.409 91.2754C464.338 85.7614 449.454 70.6153 450.628 55.9811C451.59 44.1155 462.999 34.8789 538.38 4.21443C628.034 -32.2665 644.42 -32.4295 659.163 -29.7539C691.278 -23.9374 712.453 -5.30137 727.008 7.51815C734.614 14.2187 738.934 19.3606 737.666 24.0137Z" fill="white" stroke="white" stroke-width="0.75" stroke-miterlimit="22.93"/>
<path d="M488.492 109.259C489.056 108.305 490.91 108.422 491.755 108.445C516.264 109.585 583.428 85.365 628.22 54.2817C644.301 43.1373 658.41 30.4807 672.918 34.971C680.595 37.3442 684.867 43.4399 686.229 45.1848C714.259 81.247 878.894 40.6479 900.163 75.3839C911.197 93.415 883.049 130.733 866.452 147.927C800.79 215.98 677.003 224.867 590.072 184.85C541.078 162.305 484.83 115.518 488.469 109.236L488.492 109.259Z" fill="#488D9F"/>
<path d="M689.894 51.1636C689.354 51.4661 690.739 54.6535 691.725 57.0964C697.007 70.1718 694.378 72.1029 698.322 78.4545C702.172 84.6665 707.689 87.9935 709.661 89.18C709.919 89.3429 713.511 91.4368 717.807 92.6699C723.84 94.4148 734.24 95.392 762.575 85.1318C773.139 81.2929 778.421 79.3851 781.379 76.8957C794.22 66.0305 798.563 44.9981 792.695 40.6241C784.267 34.3423 760.462 69.6832 724.826 67.9848C718.793 67.7056 703.628 66.9379 695.552 57.4221C693.791 55.3515 690.575 50.7681 689.894 51.1636Z" fill="white"/>
</g>
<path d="M777.78 71.9416C809.872 52.6309 822.713 40.6257 842.996 27.7597C866.66 12.7299 883.374 2.12065 907.554 0.7247C914.362 0.329179 946.078 -1.50891 957.464 17.2201C962.417 25.3399 964.295 38.6248 957.464 45.5813C949.107 54.0733 932.509 48.2801 930.725 47.6287C924.715 45.4417 920.584 41.9984 918.189 39.6485C921.523 44.2552 926.241 51.5839 930.162 61.4021C932.674 67.7071 933.002 70.3828 934.153 72.8257C940.585 86.5759 966.526 92.1597 986.503 86.9016C999.556 83.4582 1005.75 76.4086 1013.13 79.8752C1018.08 82.2018 1022.12 88.6 1021.55 93.0671C1017.77 123.452 848.583 155.42 809.942 113.285C806.961 110.028 802.782 104.165 794.331 100.675C774.353 92.3923 759.775 109.423 734.116 103.467C720.899 100.396 710.288 92.5319 711.133 89.2281C712.307 84.6448 735.008 91.6943 762.028 80.3173C768.132 77.758 772.428 75.1989 777.78 71.9649V71.9416Z" fill="#70B3AB"/>
<mask id="mask3_233_3006" style="mask-type:luminance" maskUnits="userSpaceOnUse" x="711" y="0" width="311" height="134">
<path d="M777.773 71.9416C809.864 52.6309 822.706 40.6257 842.989 27.7597C866.652 12.7299 883.367 2.12065 907.547 0.7247C914.355 0.329179 946.071 -1.50891 957.457 17.2201C962.41 25.3399 964.288 38.6248 957.457 45.5813C949.099 54.0733 932.502 48.2801 930.718 47.6287C924.708 45.4417 920.576 41.9984 918.182 39.6485C921.515 44.2552 926.234 51.5839 930.154 61.4021C932.666 67.7071 932.995 70.3828 934.145 72.8257C940.577 86.5759 966.518 92.1597 986.496 86.9016C999.549 83.4582 1005.75 76.4086 1013.12 79.8752C1018.07 82.2018 1022.11 88.6 1021.55 93.0671C1017.77 123.452 848.576 155.42 809.935 113.285C806.953 110.028 792.242 121.725 783.791 118.235C763.813 109.953 759.767 109.423 734.108 103.467C720.891 100.396 710.28 92.5319 711.125 89.2282C712.299 84.6448 735 91.6943 762.021 80.3173C768.124 77.758 772.421 75.1989 777.773 71.9649V71.9416Z" fill="white"/>
</mask>
<g mask="url(#mask3_233_3006)">
<path d="M974.598 24.0137C972.133 33.0409 949.173 37.8103 930.205 34.2274C921.284 32.5522 920.204 30.3419 910.673 27.9688C892.432 23.432 876.657 26.6194 868.393 28.2946C838.344 34.3903 831.137 50.2343 791.299 71.4994C762.846 86.692 738.831 99.5115 716.341 91.2754C701.269 85.7614 686.386 70.6153 687.559 55.9811C688.522 44.1155 699.931 34.8789 775.312 4.21443C864.966 -32.2665 881.352 -32.4295 896.095 -29.7539C928.209 -23.9374 949.385 -5.30137 963.94 7.51815C971.546 14.2187 975.865 19.3606 974.598 24.0137Z" fill="white" stroke="white" stroke-width="0.75" stroke-miterlimit="22.93"/>
<path d="M725.424 109.259C725.987 108.305 727.842 108.422 728.687 108.445C753.196 109.585 820.36 85.365 865.152 54.2817C881.233 43.1373 895.342 30.4807 909.85 34.971C917.526 37.3442 921.799 43.4399 923.16 45.1848C951.19 81.247 1115.83 40.6479 1137.1 75.3839C1148.13 93.415 1119.98 130.733 1103.38 147.927C1037.72 215.98 913.934 224.867 827.004 184.85C778.01 162.305 721.762 115.518 725.401 109.236L725.424 109.259Z" fill="#488D9F"/>
<path d="M926.826 51.1636C926.286 51.4661 927.671 54.6535 928.657 57.0964C933.939 70.1718 931.31 72.1029 935.254 78.4545C939.104 84.6665 944.62 87.9935 946.592 89.18C946.851 89.3429 950.442 91.4368 954.738 92.6699C960.772 94.4148 971.172 95.392 999.507 85.1318C1010.07 81.2929 1015.35 79.3851 1018.31 76.8957C1031.15 66.0305 1035.5 44.9981 1029.63 40.6241C1021.2 34.3423 997.394 69.6832 961.758 67.9848C955.725 67.7056 940.559 66.9379 932.483 57.4221C930.723 55.3515 927.507 50.7681 926.826 51.1636Z" fill="white"/>
</g>
</svg>
